<svg fill="none" height="24" viewBox="0 0 24 24" width="24" xmlns="http://www.w3.org/2000/svg"><g clip-rule="evenodd" fill="#757575" fill-rule="evenodd"><path d="m17 13c-2.2091 0-4 1.7909-4 4s1.7909 4 4 4 4-1.7909 4-4-1.7909-4-4-4zm-6 4c0-3.3137 2.6863-6 6-6s6 2.6863 6 6-2.6863 6-6 6-6-2.6863-6-6z"/><path d="m11.6585 3.90514c-.377-.3299-.94-.3299-1.317 0l-6 5.25c-.21702.18989-.3415.46421-.3415.75258v9.09248c0 .5523.44772 1 1 1h9v2h-9c-1.65685 0-3-1.3432-3-3v-9.09248c0-.86509.37344-1.68807 1.02449-2.25773l6-5.25001c1.13111-.98969 2.81991-.98969 3.95101.00001l6 5.25c.6511.56966 1.0245 1.39264 1.0245 2.25773v2.59248h-2v-2.59248c0-.28837-.1245-.56269-.3415-.75258z"/><path d="m17 14.5c.5523 0 1 .4477 1 1v1h1c.5523 0 1 .4477 1 1s-.4477 1-1 1h-2c-.5523 0-1-.4477-1-1v-2c0-.5523.4477-1 1-1z"/></g></svg>