<svg fill="none" height="24" viewBox="0 0 24 24" width="24" xmlns="http://www.w3.org/2000/svg"><g fill="#757575"><path d="m12.1001 6h-6.20021c-.23867 0-.46756.10536-.63632.29289-.16876.18754-.26357.44189-.26357.70711s.09481.51957.26357.70711c.16876.18753.39765.29289.63632.29289h6.20021c.2387 0 .4676-.10536.6363-.29289.1688-.18754.2636-.44189.2636-.70711s-.0948-.51957-.2636-.70711c-.1687-.18753-.3976-.29289-.6363-.29289z"/><path d="m10.1561 10h-4.31222c-.22381 0-.43845.1054-.59671.2929s-.24717.4419-.24717.7071.08891.5196.24717.7071.3729.2929.59671.2929h4.31222c.2238 0 .4385-.1054.5967-.2929.1583-.1875.2472-.4419.2472-.7071s-.0889-.5196-.2472-.7071c-.1582-.1875-.3729-.2929-.5967-.2929z"/><path d="m9.0689 14h-3.1378c-.24694 0-.48377.1054-.65839.2929-.17461.1875-.27271.4419-.27271.7071s.0981.5196.27271.7071c.17462.1875.41145.2929.65839.2929h3.1378c.24694 0 .48377-.1054.65839-.2929.17461-.1875.27271-.4419.27271-.7071s-.0981-.5196-.27271-.7071c-.17462-.1875-.41145-.2929-.65839-.2929z"/><path d="m21.16 16.85c.2889-.697.4162-1.4504.3726-2.2037-.0437-.7532-.2573-1.4868-.6248-2.1458s-.8793-1.2263-1.4972-1.6593-1.3258-.7206-2.0706-.8412v-6c0-.53043-.2107-1.03914-.5858-1.41421-.3751-.37508-.8838-.58579-1.4142-.58579h-11.34c-.53043 0-1.03914.21071-1.41421.58579-.37508.37507-.58579.88378-.58579 1.41421v16c0 .5304.21071 1.0391.58579 1.4142.37507.3751.88378.5858 1.41421.5858h11.34c.5304 0 1.0391-.2107 1.4142-.5858s.5858-.8838.5858-1.4142v-.79c0-.2652-.1054-.5196-.2929-.7071s-.4419-.2929-.7071-.2929h-.1c-.3417-.0144-.679-.0819-1-.2-.544-.2058-1.0205-.5582-1.3765-1.0181-.3561-.46-.5778-1.0095-.6407-1.5877-.0628-.5783.0356-1.1626.2845-1.6883.2489-.5258.6385-.9723 1.1256-1.2902.4871-.3178 1.0527-.4946 1.6341-.5108.5815-.0161 1.156.1291 1.66.4194.504.2904.9177.7147 1.1953 1.2258.2777.5111.4084 1.0891.3777 1.6699-.0202-.2511-.1343-.4854-.3197-.6559-.1854-.1706-.4284-.2649-.6803-.2641-.2652 0-.5196.1054-.7071.2929s-.2929.4419-.2929.7071v2.5c0 .2652.1054.5196.2929.7071s.4419.2929.7071.2929h2.5c.2652 0 .5196-.1054.7071-.2929s.2929-.4419.2929-.7071c-.0063-.2328-.0937-.4561-.2471-.6313-.1533-.1753-.363-.2915-.5929-.3287zm-9.63-3.63c-.484 1.2811-.4399 2.7019.1225 3.9505.5625 1.2486 1.5973 2.2231 2.8775 2.7095.14.05.29.08.43.12h-10.96v-16h11.34v6c-.8566.1682-1.656.5522-2.3227 1.1157-.6668.5635-1.1787 1.2878-1.4873 2.1043z"/></g></svg>