<svg fill="none" height="24" viewBox="0 0 24 24" width="24" xmlns="http://www.w3.org/2000/svg"><g fill="#757575"><path d="m3 10.7c-.20988 0-.41444-.066-.58471-.1888-.17027-.1227-.2976-.2959-.36397-.495-.06637-.19908-.06841-.41403-.00583-.61436.06258-.20034.1866-.37591.35451-.50184l9-6.7c.2122-.15913.4789-.22745.7414-.18995.2626.03751.4995.17778.6586.38995.1591.21218.2275.47887.1899.74143-.0375.26255-.1777.49944-.3899.65857l-9 6.7c-.1731.1298-.38363.2-.6.2z"/><path d="m21 10.7c-.2164 0-.4269-.0702-.6-.2l-9-6.7c-.1051-.07879-.1936-.17751-.2605-.29051s-.1109-.23807-.1294-.36807c-.0186-.13-.0114-.26239.0212-.3896s.0899-.24676.1687-.35182.1775-.19357.2905-.26047c.113-.06691.2381-.11091.3681-.12948s.2624-.01136.3896.02124c.1272.03259.2467.08992.3518.16871l9 6.7c.1679.12593.2919.3015.3545.50183.0626.20034.0606.41529-.0058.61437-.0664.1991-.1937.3723-.364.495-.1703.1228-.3748.1888-.5847.1888z"/><path d="m18 21.9999h-12c-.26522 0-.51957-.1053-.70711-.2929-.18753-.1875-.29289-.4419-.29289-.7071v-13.52998c0-.26521.10536-.51957.29289-.70711.18754-.18753.44189-.29289.70711-.29289s.51957.10536.70711.29289c.18753.18754.29289.4419.29289.70711v12.52998h10v-12.57998c0-.26521.1054-.51957.2929-.70711.1875-.18753.4419-.29289.7071-.29289s.5196.10536.7071.29289c.1875.18754.2929.4419.2929.70711v13.57998c0 .2652-.1054.5196-.2929.7071-.1875.1876-.4419.2929-.7071.2929z"/></g></svg>