<svg fill="none" height="24" viewBox="0 0 24 24" width="24" xmlns="http://www.w3.org/2000/svg"><g fill="#757575"><path d="m21.5702 14.81c.2699-.9.4198-1.85.4198-2.81 0-5.51-4.4878-10-9.995-10-5.50724 0-9.995 4.49-9.995 10s4.48776 10 9.995 10c.9695 0 1.919-.15 2.8286-.42.6197.27 1.3093.42 2.029.42 2.8386 0 5.1474-2.31 5.1474-5.15-.01-.73-.1599-1.41-.4298-2.04zm-17.5712-2.81c0-4.41 3.58821-8 7.996-8 4.4078 0 7.996 3.59 7.996 8 0 .25-.04.5-.06.75-.8595-.65-1.919-1.05-3.0784-1.05-.9795 0-1.8891.29-2.6687.77-.4398-.22-.9195-.39-1.4293-.47 1.3094-.34 2.2789-1.51 2.2789-2.93 0-1.68-1.3593-3.04-3.0385-3.04s-3.03848 1.36-3.03848 3.04c0 1.42.97951 2.61 2.29888 2.94-2.37884.36-4.21792 2.41-4.21792 4.89v.01l4.65772-.01c.0099 1.15.4097 2.19 1.0494 3.05-.2399.01-.4897.05-.7496.05-4.40779 0-7.996-3.59-7.996-8zm12.8436 8c-1.7392 0-3.1484-1.41-3.1484-3.15s1.4092-3.15 3.1484-3.15c1.7391 0 3.1484 1.41 3.1484 3.15 0 1.73-1.4093 3.15-3.1484 3.15z"/><path d="m17.9621 15.41-1.2993 1.29-.5598-.56c-.2898-.29-.7696-.29-1.0594 0-.2899.29-.2899.77 0 1.06l1.0894 1.09c.1499.15.3398.22.5298.22.1899 0 .3798-.07.5297-.22l1.8291-1.82c.2898-.29.2998-.77 0-1.06-.2899-.29-.7696-.3-1.0595 0z"/></g></svg>