<svg width="100" height="100" viewBox="0 0 100 100" fill="none" xmlns="http://www.w3.org/2000/svg">
<rect width="100" height="100" rx="50" fill="#A5A5A5" fill-opacity="0.12"/>
<path d="M33.604 58.94C34.14 58.94 34.576 58.872 34.912 58.736C35.256 58.6 35.524 58.424 35.716 58.208C35.908 57.992 36.04 57.748 36.112 57.476C36.184 57.204 36.22 56.928 36.22 56.648C36.22 56.328 36.176 56.04 36.088 55.784C36.008 55.528 35.864 55.312 35.656 55.136C35.456 54.96 35.188 54.824 34.852 54.728C34.516 54.632 34.092 54.584 33.58 54.584H30.748V58.94H33.604ZM30.748 47.552V51.872H32.86C33.308 51.872 33.712 51.84 34.072 51.776C34.432 51.712 34.736 51.6 34.984 51.44C35.24 51.28 35.432 51.06 35.56 50.78C35.696 50.5 35.764 50.148 35.764 49.724C35.764 49.308 35.712 48.964 35.608 48.692C35.504 48.412 35.344 48.188 35.128 48.02C34.912 47.852 34.636 47.732 34.3 47.66C33.972 47.588 33.58 47.552 33.124 47.552H30.748ZM33.124 44.516C34.332 44.516 35.36 44.628 36.208 44.852C37.056 45.076 37.748 45.392 38.284 45.8C38.82 46.208 39.208 46.704 39.448 47.288C39.696 47.872 39.82 48.524 39.82 49.244C39.82 49.636 39.764 50.016 39.652 50.384C39.54 50.744 39.364 51.084 39.124 51.404C38.884 51.716 38.576 52.004 38.2 52.268C37.824 52.532 37.372 52.76 36.844 52.952C37.996 53.232 38.848 53.684 39.4 54.308C39.952 54.932 40.228 55.74 40.228 56.732C40.228 57.476 40.084 58.168 39.796 58.808C39.508 59.448 39.084 60.008 38.524 60.488C37.972 60.96 37.288 61.332 36.472 61.604C35.656 61.868 34.724 62 33.676 62H26.692V44.516H33.124ZM53.3106 49.556V62H51.0066C50.5426 62 50.2386 61.792 50.0946 61.376L49.8786 60.656C49.6386 60.888 49.3906 61.1 49.1346 61.292C48.8786 61.476 48.6026 61.636 48.3066 61.772C48.0186 61.9 47.7026 62 47.3586 62.072C47.0226 62.152 46.6546 62.192 46.2546 62.192C45.5746 62.192 44.9706 62.076 44.4426 61.844C43.9226 61.604 43.4826 61.272 43.1226 60.848C42.7626 60.424 42.4906 59.924 42.3066 59.348C42.1226 58.772 42.0306 58.14 42.0306 57.452V49.556H45.7506V57.452C45.7506 58.068 45.8906 58.544 46.1706 58.88C46.4506 59.216 46.8626 59.384 47.4066 59.384C47.8146 59.384 48.1946 59.3 48.5466 59.132C48.9066 58.956 49.2546 58.72 49.5906 58.424V49.556H53.3106ZM60.1386 51.596H60.7866C61.3866 51.596 61.8186 51.408 62.0826 51.032L66.0186 45.32C66.2506 45.016 66.4986 44.808 66.7626 44.696C67.0346 44.576 67.3706 44.516 67.7706 44.516H71.2986L66.1146 51.584C65.7466 52.072 65.3506 52.424 64.9266 52.64C65.2306 52.752 65.5066 52.908 65.7546 53.108C66.0026 53.308 66.2346 53.568 66.4506 53.888L71.7306 62H68.1066C67.8746 62 67.6746 61.984 67.5066 61.952C67.3466 61.92 67.2066 61.872 67.0866 61.808C66.9666 61.744 66.8626 61.668 66.7746 61.58C66.6866 61.484 66.6026 61.376 66.5226 61.256L62.5626 55.172C62.4186 54.948 62.2346 54.792 62.0106 54.704C61.7946 54.608 61.4986 54.56 61.1226 54.56H60.1386V62H56.0826V44.516H60.1386V51.596ZM77.4648 49.364C78.4088 49.364 79.2688 49.512 80.0448 49.808C80.8208 50.104 81.4848 50.528 82.0368 51.08C82.5968 51.632 83.0288 52.304 83.3328 53.096C83.6448 53.88 83.8008 54.764 83.8008 55.748C83.8008 56.74 83.6448 57.636 83.3328 58.436C83.0288 59.228 82.5968 59.904 82.0368 60.464C81.4848 61.016 80.8208 61.444 80.0448 61.748C79.2688 62.044 78.4088 62.192 77.4648 62.192C76.5128 62.192 75.6448 62.044 74.8608 61.748C74.0848 61.444 73.4128 61.016 72.8448 60.464C72.2848 59.904 71.8488 59.228 71.5368 58.436C71.2328 57.636 71.0808 56.74 71.0808 55.748C71.0808 54.764 71.2328 53.88 71.5368 53.096C71.8488 52.304 72.2848 51.632 72.8448 51.08C73.4128 50.528 74.0848 50.104 74.8608 49.808C75.6448 49.512 76.5128 49.364 77.4648 49.364ZM77.4648 59.432C78.3208 59.432 78.9488 59.132 79.3488 58.532C79.7568 57.924 79.9608 57.004 79.9608 55.772C79.9608 54.54 79.7568 53.624 79.3488 53.024C78.9488 52.424 78.3208 52.124 77.4648 52.124C76.5848 52.124 75.9408 52.424 75.5328 53.024C75.1248 53.624 74.9208 54.54 74.9208 55.772C74.9208 57.004 75.1248 57.924 75.5328 58.532C75.9408 59.132 76.5848 59.432 77.4648 59.432ZM93.5821 52.28C93.4861 52.432 93.3821 52.54 93.2701 52.604C93.1661 52.668 93.0301 52.7 92.8621 52.7C92.6861 52.7 92.5101 52.664 92.3341 52.592C92.1581 52.512 91.9661 52.428 91.7581 52.34C91.5581 52.252 91.3301 52.172 91.0741 52.1C90.8181 52.02 90.5261 51.98 90.1981 51.98C89.7261 51.98 89.3621 52.072 89.1061 52.256C88.8581 52.432 88.7341 52.68 88.7341 53C88.7341 53.232 88.8141 53.424 88.9741 53.576C89.1421 53.728 89.3621 53.864 89.6341 53.984C89.9061 54.096 90.2141 54.204 90.5581 54.308C90.9021 54.412 91.2541 54.528 91.6141 54.656C91.9741 54.784 92.3261 54.936 92.6701 55.112C93.0141 55.28 93.3221 55.492 93.5941 55.748C93.8661 55.996 94.0821 56.3 94.2421 56.66C94.4101 57.02 94.4941 57.452 94.4941 57.956C94.4941 58.572 94.3821 59.14 94.1581 59.66C93.9341 60.18 93.5981 60.628 93.1501 61.004C92.7101 61.38 92.1621 61.672 91.5061 61.88C90.8581 62.088 90.1101 62.192 89.2621 62.192C88.8381 62.192 88.4141 62.152 87.9901 62.072C87.5661 61.992 87.1541 61.884 86.7541 61.748C86.3621 61.612 85.9981 61.452 85.6621 61.268C85.3261 61.076 85.0381 60.872 84.7981 60.656L85.6621 59.288C85.7581 59.128 85.8781 59.004 86.0221 58.916C86.1741 58.82 86.3661 58.772 86.5981 58.772C86.8141 58.772 87.0061 58.82 87.1741 58.916C87.3501 59.012 87.5381 59.116 87.7381 59.228C87.9381 59.34 88.1701 59.444 88.4341 59.54C88.7061 59.636 89.0461 59.684 89.4541 59.684C89.7421 59.684 89.9861 59.656 90.1861 59.6C90.3861 59.536 90.5461 59.452 90.6661 59.348C90.7861 59.244 90.8741 59.128 90.9301 59C90.9861 58.872 91.0141 58.74 91.0141 58.604C91.0141 58.356 90.9301 58.152 90.7621 57.992C90.5941 57.832 90.3741 57.696 90.1021 57.584C89.8301 57.464 89.5181 57.356 89.1661 57.26C88.8221 57.156 88.4701 57.04 88.1101 56.912C87.7501 56.784 87.3941 56.632 87.0421 56.456C86.6981 56.272 86.3901 56.044 86.1181 55.772C85.8461 55.492 85.6261 55.152 85.4581 54.752C85.2901 54.352 85.2061 53.868 85.2061 53.3C85.2061 52.772 85.3061 52.272 85.5061 51.8C85.7141 51.32 86.0221 50.9 86.4301 50.54C86.8381 50.18 87.3501 49.896 87.9661 49.688C88.5821 49.472 89.3021 49.364 90.1261 49.364C90.5741 49.364 91.0061 49.404 91.4221 49.484C91.8461 49.564 92.2421 49.676 92.6101 49.82C92.9781 49.964 93.3141 50.136 93.6181 50.336C93.9221 50.528 94.1901 50.74 94.4221 50.972L93.5821 52.28Z" fill="black"/>
<path d="M12.75 42.1406V44.5196L14.5 45.9196V44.2459H23.25V60.0354H18.875V62.1406H25V42.1406H12.75ZM10.5625 45.2985L4 50.5617V62.1406H17.125V50.5617L10.5625 45.2985ZM16.25 46.3512V47.3301L17.6587 48.4564H18V46.3512H16.25ZM19.75 46.3512V48.4564H21.5V46.3512H19.75ZM10.5625 47.9301L15.375 51.6143V60.0354H12.75V53.7196H8.375V60.0354H5.75V51.6143L10.5625 47.9301ZM19.75 50.5617V52.6669H21.5V50.5617H19.75ZM19.75 54.7722V56.8775H21.5V54.7722H19.75Z" fill="#834BFF"/>
</svg>
