<svg width="121" height="38" viewBox="0 0 121 38" fill="none" xmlns="http://www.w3.org/2000/svg">
<path d="M38.472 26.92C39.1867 26.92 39.768 26.8293 40.216 26.648C40.6747 26.4667 41.032 26.232 41.288 25.944C41.544 25.656 41.72 25.3307 41.816 24.968C41.912 24.6053 41.96 24.2373 41.96 23.864C41.96 23.4373 41.9013 23.0533 41.784 22.712C41.6773 22.3707 41.4853 22.0827 41.208 21.848C40.9413 21.6133 40.584 21.432 40.136 21.304C39.688 21.176 39.1227 21.112 38.44 21.112H34.664V26.92H38.472ZM34.664 11.736V17.496H37.48C38.0773 17.496 38.616 17.4533 39.096 17.368C39.576 17.2827 39.9813 17.1333 40.312 16.92C40.6533 16.7067 40.9093 16.4133 41.08 16.04C41.2613 15.6667 41.352 15.1973 41.352 14.632C41.352 14.0773 41.2827 13.6187 41.144 13.256C41.0053 12.8827 40.792 12.584 40.504 12.36C40.216 12.136 39.848 11.976 39.4 11.88C38.9627 11.784 38.44 11.736 37.832 11.736H34.664ZM37.832 7.688C39.4427 7.688 40.8133 7.83733 41.944 8.136C43.0747 8.43467 43.9973 8.856 44.712 9.4C45.4267 9.944 45.944 10.6053 46.264 11.384C46.5947 12.1627 46.76 13.032 46.76 13.992C46.76 14.5147 46.6853 15.0213 46.536 15.512C46.3867 15.992 46.152 16.4453 45.832 16.872C45.512 17.288 45.1013 17.672 44.6 18.024C44.0987 18.376 43.496 18.68 42.792 18.936C44.328 19.3093 45.464 19.912 46.2 20.744C46.936 21.576 47.304 22.6533 47.304 23.976C47.304 24.968 47.112 25.8907 46.728 26.744C46.344 27.5973 45.7787 28.344 45.032 28.984C44.296 29.6133 43.384 30.1093 42.296 30.472C41.208 30.824 39.9653 31 38.568 31H29.256V7.688H37.832ZM64.7475 14.408V31H61.6755C61.0568 31 60.6515 30.7227 60.4595 30.168L60.1715 29.208C59.8515 29.5173 59.5208 29.8 59.1795 30.056C58.8382 30.3013 58.4702 30.5147 58.0755 30.696C57.6915 30.8667 57.2702 31 56.8115 31.096C56.3635 31.2027 55.8728 31.256 55.3395 31.256C54.4328 31.256 53.6275 31.1013 52.9235 30.792C52.2302 30.472 51.6435 30.0293 51.1635 29.464C50.6835 28.8987 50.3208 28.232 50.0755 27.464C49.8302 26.696 49.7075 25.8533 49.7075 24.936V14.408H54.6675V24.936C54.6675 25.7573 54.8542 26.392 55.2275 26.84C55.6008 27.288 56.1502 27.512 56.8755 27.512C57.4195 27.512 57.9262 27.4 58.3955 27.176C58.8755 26.9413 59.3395 26.6267 59.7875 26.232V14.408H64.7475ZM73.8515 17.128H74.7155C75.5155 17.128 76.0915 16.8773 76.4435 16.376L81.6915 8.76C82.0008 8.35467 82.3315 8.07733 82.6835 7.928C83.0462 7.768 83.4942 7.688 84.0275 7.688H88.7315L81.8195 17.112C81.3288 17.7627 80.8008 18.232 80.2355 18.52C80.6408 18.6693 81.0088 18.8773 81.3395 19.144C81.6702 19.4107 81.9795 19.7573 82.2675 20.184L89.3075 31H84.4755C84.1662 31 83.8995 30.9787 83.6755 30.936C83.4622 30.8933 83.2755 30.8293 83.1155 30.744C82.9555 30.6587 82.8168 30.5573 82.6995 30.44C82.5822 30.312 82.4702 30.168 82.3635 30.008L77.0835 21.896C76.8915 21.5973 76.6462 21.3893 76.3475 21.272C76.0595 21.144 75.6648 21.08 75.1635 21.08H73.8515V31H68.4435V7.688H73.8515V17.128ZM96.953 14.152C98.2117 14.152 99.3583 14.3493 100.393 14.744C101.428 15.1387 102.313 15.704 103.049 16.44C103.796 17.176 104.372 18.072 104.777 19.128C105.193 20.1733 105.401 21.352 105.401 22.664C105.401 23.9867 105.193 25.1813 104.777 26.248C104.372 27.304 103.796 28.2053 103.049 28.952C102.313 29.688 101.428 30.2587 100.393 30.664C99.3583 31.0587 98.2117 31.256 96.953 31.256C95.6837 31.256 94.5263 31.0587 93.481 30.664C92.4463 30.2587 91.5503 29.688 90.793 28.952C90.0463 28.2053 89.465 27.304 89.049 26.248C88.6437 25.1813 88.441 23.9867 88.441 22.664C88.441 21.352 88.6437 20.1733 89.049 19.128C89.465 18.072 90.0463 17.176 90.793 16.44C91.5503 15.704 92.4463 15.1387 93.481 14.744C94.5263 14.3493 95.6837 14.152 96.953 14.152ZM96.953 27.576C98.0943 27.576 98.9317 27.176 99.465 26.376C100.009 25.5653 100.281 24.3387 100.281 22.696C100.281 21.0533 100.009 19.832 99.465 19.032C98.9317 18.232 98.0943 17.832 96.953 17.832C95.7797 17.832 94.921 18.232 94.377 19.032C93.833 19.832 93.561 21.0533 93.561 22.696C93.561 24.3387 93.833 25.5653 94.377 26.376C94.921 27.176 95.7797 27.576 96.953 27.576ZM118.443 18.04C118.315 18.2427 118.176 18.3867 118.027 18.472C117.888 18.5573 117.707 18.6 117.483 18.6C117.248 18.6 117.013 18.552 116.779 18.456C116.544 18.3493 116.288 18.2373 116.011 18.12C115.744 18.0027 115.44 17.896 115.099 17.8C114.757 17.6933 114.368 17.64 113.931 17.64C113.301 17.64 112.816 17.7627 112.475 18.008C112.144 18.2427 111.979 18.5733 111.979 19C111.979 19.3093 112.085 19.5653 112.299 19.768C112.523 19.9707 112.816 20.152 113.179 20.312C113.541 20.4613 113.952 20.6053 114.411 20.744C114.869 20.8827 115.339 21.0373 115.819 21.208C116.299 21.3787 116.768 21.5813 117.227 21.816C117.685 22.04 118.096 22.3227 118.459 22.664C118.821 22.9947 119.109 23.4 119.323 23.88C119.547 24.36 119.659 24.936 119.659 25.608C119.659 26.4293 119.509 27.1867 119.211 27.88C118.912 28.5733 118.464 29.1707 117.867 29.672C117.28 30.1733 116.549 30.5627 115.675 30.84C114.811 31.1173 113.813 31.256 112.683 31.256C112.117 31.256 111.552 31.2027 110.987 31.096C110.421 30.9893 109.872 30.8453 109.339 30.664C108.816 30.4827 108.331 30.2693 107.883 30.024C107.435 29.768 107.051 29.496 106.731 29.208L107.883 27.384C108.011 27.1707 108.171 27.0053 108.363 26.888C108.565 26.76 108.821 26.696 109.131 26.696C109.419 26.696 109.675 26.76 109.899 26.888C110.133 27.016 110.384 27.1547 110.651 27.304C110.917 27.4533 111.227 27.592 111.579 27.72C111.941 27.848 112.395 27.912 112.939 27.912C113.323 27.912 113.648 27.8747 113.915 27.8C114.181 27.7147 114.395 27.6027 114.555 27.464C114.715 27.3253 114.832 27.1707 114.907 27C114.981 26.8293 115.019 26.6533 115.019 26.472C115.019 26.1413 114.907 25.8693 114.683 25.656C114.459 25.4427 114.165 25.2613 113.803 25.112C113.44 24.952 113.024 24.808 112.555 24.68C112.096 24.5413 111.627 24.3867 111.147 24.216C110.667 24.0453 110.192 23.8427 109.723 23.608C109.264 23.3627 108.853 23.0587 108.491 22.696C108.128 22.3227 107.835 21.8693 107.611 21.336C107.387 20.8027 107.275 20.1573 107.275 19.4C107.275 18.696 107.408 18.0293 107.675 17.4C107.952 16.76 108.363 16.2 108.907 15.72C109.451 15.24 110.133 14.8613 110.955 14.584C111.776 14.296 112.736 14.152 113.835 14.152C114.432 14.152 115.008 14.2053 115.563 14.312C116.128 14.4187 116.656 14.568 117.147 14.76C117.637 14.952 118.085 15.1813 118.491 15.448C118.896 15.704 119.253 15.9867 119.563 16.296L118.443 18.04Z" fill="white"/>
<path d="M11.25 8V10.7358L13.5 12.3458V10.4211H24.75V28.5789H19.125V31H27V8H11.25ZM8.4375 11.6316L0 17.6842V31H16.875V17.6842L8.4375 11.6316ZM15.75 12.8421V13.9679L17.5612 15.2632H18V12.8421H15.75ZM20.25 12.8421V15.2632H22.5V12.8421H20.25ZM8.4375 14.6579L14.625 18.8947V28.5789H11.25V21.3158H5.625V28.5789H2.25V18.8947L8.4375 14.6579ZM20.25 17.6842V20.1053H22.5V17.6842H20.25ZM20.25 22.5263V24.9474H22.5V22.5263H20.25Z" fill="#834BFF"/>
</svg>
