<svg width="150" height="32" viewBox="0 0 150 32" fill="none" xmlns="http://www.w3.org/2000/svg">
<path d="M41.6733 26.92C42.388 26.92 42.9693 26.8293 43.4173 26.648C43.876 26.4667 44.2333 26.232 44.4893 25.944C44.7453 25.656 44.9213 25.3307 45.0173 24.968C45.1133 24.6053 45.1613 24.2373 45.1613 23.864C45.1613 23.4373 45.1026 23.0533 44.9853 22.712C44.8786 22.3707 44.6866 22.0827 44.4093 21.848C44.1426 21.6133 43.7853 21.432 43.3373 21.304C42.8893 21.176 42.324 21.112 41.6413 21.112H37.8653V26.92H41.6733ZM37.8653 11.736V17.496H40.6813C41.2786 17.496 41.8173 17.4533 42.2973 17.368C42.7773 17.2827 43.1826 17.1333 43.5133 16.92C43.8546 16.7067 44.1106 16.4133 44.2813 16.04C44.4626 15.6667 44.5533 15.1973 44.5533 14.632C44.5533 14.0773 44.484 13.6187 44.3453 13.256C44.2066 12.8827 43.9933 12.584 43.7053 12.36C43.4173 12.136 43.0493 11.976 42.6013 11.88C42.164 11.784 41.6413 11.736 41.0333 11.736H37.8653ZM41.0333 7.688C42.644 7.688 44.0146 7.83733 45.1453 8.136C46.276 8.43467 47.1986 8.856 47.9133 9.4C48.628 9.944 49.1453 10.6053 49.4653 11.384C49.796 12.1627 49.9613 13.032 49.9613 13.992C49.9613 14.5147 49.8866 15.0213 49.7373 15.512C49.588 15.992 49.3533 16.4453 49.0333 16.872C48.7133 17.288 48.3026 17.672 47.8013 18.024C47.3 18.376 46.6973 18.68 45.9933 18.936C47.5293 19.3093 48.6653 19.912 49.4013 20.744C50.1373 21.576 50.5053 22.6533 50.5053 23.976C50.5053 24.968 50.3133 25.8907 49.9293 26.744C49.5453 27.5973 48.98 28.344 48.2333 28.984C47.4973 29.6133 46.5853 30.1093 45.4973 30.472C44.4093 30.824 43.1666 31 41.7693 31H32.4573V7.688H41.0333ZM67.9488 14.408V31H64.8768C64.2581 31 63.8528 30.7227 63.6608 30.168L63.3728 29.208C63.0528 29.5173 62.7221 29.8 62.3808 30.056C62.0395 30.3013 61.6715 30.5147 61.2768 30.696C60.8928 30.8667 60.4715 31 60.0128 31.096C59.5648 31.2027 59.0741 31.256 58.5408 31.256C57.6341 31.256 56.8288 31.1013 56.1248 30.792C55.4315 30.472 54.8448 30.0293 54.3648 29.464C53.8848 28.8987 53.5221 28.232 53.2768 27.464C53.0315 26.696 52.9088 25.8533 52.9088 24.936V14.408H57.8688V24.936C57.8688 25.7573 58.0555 26.392 58.4288 26.84C58.8021 27.288 59.3515 27.512 60.0768 27.512C60.6208 27.512 61.1275 27.4 61.5968 27.176C62.0768 26.9413 62.5408 26.6267 62.9888 26.232V14.408H67.9488ZM77.0528 17.128H77.9168C78.7168 17.128 79.2928 16.8773 79.6448 16.376L84.8928 8.76C85.2021 8.35467 85.5328 8.07733 85.8848 7.928C86.2475 7.768 86.6955 7.688 87.2288 7.688H91.9328L85.0208 17.112C84.5301 17.7627 84.0021 18.232 83.4368 18.52C83.8421 18.6693 84.2101 18.8773 84.5408 19.144C84.8715 19.4107 85.1808 19.7573 85.4688 20.184L92.5088 31H87.6768C87.3675 31 87.1008 30.9787 86.8768 30.936C86.6635 30.8933 86.4768 30.8293 86.3168 30.744C86.1568 30.6587 86.0181 30.5573 85.9008 30.44C85.7835 30.312 85.6715 30.168 85.5648 30.008L80.2848 21.896C80.0928 21.5973 79.8475 21.3893 79.5488 21.272C79.2608 21.144 78.8661 21.08 78.3648 21.08H77.0528V31H71.6448V7.688H77.0528V17.128ZM100.154 14.152C101.413 14.152 102.56 14.3493 103.594 14.744C104.629 15.1387 105.514 15.704 106.25 16.44C106.997 17.176 107.573 18.072 107.978 19.128C108.394 20.1733 108.602 21.352 108.602 22.664C108.602 23.9867 108.394 25.1813 107.978 26.248C107.573 27.304 106.997 28.2053 106.25 28.952C105.514 29.688 104.629 30.2587 103.594 30.664C102.56 31.0587 101.413 31.256 100.154 31.256C98.885 31.256 97.7276 31.0587 96.6823 30.664C95.6476 30.2587 94.7516 29.688 93.9943 28.952C93.2476 28.2053 92.6663 27.304 92.2503 26.248C91.845 25.1813 91.6423 23.9867 91.6423 22.664C91.6423 21.352 91.845 20.1733 92.2503 19.128C92.6663 18.072 93.2476 17.176 93.9943 16.44C94.7516 15.704 95.6476 15.1387 96.6823 14.744C97.7276 14.3493 98.885 14.152 100.154 14.152ZM100.154 27.576C101.296 27.576 102.133 27.176 102.666 26.376C103.21 25.5653 103.482 24.3387 103.482 22.696C103.482 21.0533 103.21 19.832 102.666 19.032C102.133 18.232 101.296 17.832 100.154 17.832C98.981 17.832 98.1223 18.232 97.5783 19.032C97.0343 19.832 96.7623 21.0533 96.7623 22.696C96.7623 24.3387 97.0343 25.5653 97.5783 26.376C98.1223 27.176 98.981 27.576 100.154 27.576ZM121.644 18.04C121.516 18.2427 121.377 18.3867 121.228 18.472C121.089 18.5573 120.908 18.6 120.684 18.6C120.449 18.6 120.215 18.552 119.98 18.456C119.745 18.3493 119.489 18.2373 119.212 18.12C118.945 18.0027 118.641 17.896 118.3 17.8C117.959 17.6933 117.569 17.64 117.132 17.64C116.503 17.64 116.017 17.7627 115.676 18.008C115.345 18.2427 115.18 18.5733 115.18 19C115.18 19.3093 115.287 19.5653 115.5 19.768C115.724 19.9707 116.017 20.152 116.38 20.312C116.743 20.4613 117.153 20.6053 117.612 20.744C118.071 20.8827 118.54 21.0373 119.02 21.208C119.5 21.3787 119.969 21.5813 120.428 21.816C120.887 22.04 121.297 22.3227 121.66 22.664C122.023 22.9947 122.311 23.4 122.524 23.88C122.748 24.36 122.86 24.936 122.86 25.608C122.86 26.4293 122.711 27.1867 122.412 27.88C122.113 28.5733 121.665 29.1707 121.068 29.672C120.481 30.1733 119.751 30.5627 118.876 30.84C118.012 31.1173 117.015 31.256 115.884 31.256C115.319 31.256 114.753 31.2027 114.188 31.096C113.623 30.9893 113.073 30.8453 112.54 30.664C112.017 30.4827 111.532 30.2693 111.084 30.024C110.636 29.768 110.252 29.496 109.932 29.208L111.084 27.384C111.212 27.1707 111.372 27.0053 111.564 26.888C111.767 26.76 112.023 26.696 112.332 26.696C112.62 26.696 112.876 26.76 113.1 26.888C113.335 27.016 113.585 27.1547 113.852 27.304C114.119 27.4533 114.428 27.592 114.78 27.72C115.143 27.848 115.596 27.912 116.14 27.912C116.524 27.912 116.849 27.8747 117.116 27.8C117.383 27.7147 117.596 27.6027 117.756 27.464C117.916 27.3253 118.033 27.1707 118.108 27C118.183 26.8293 118.22 26.6533 118.22 26.472C118.22 26.1413 118.108 25.8693 117.884 25.656C117.66 25.4427 117.367 25.2613 117.004 25.112C116.641 24.952 116.225 24.808 115.756 24.68C115.297 24.5413 114.828 24.3867 114.348 24.216C113.868 24.0453 113.393 23.8427 112.924 23.608C112.465 23.3627 112.055 23.0587 111.692 22.696C111.329 22.3227 111.036 21.8693 110.812 21.336C110.588 20.8027 110.476 20.1573 110.476 19.4C110.476 18.696 110.609 18.0293 110.876 17.4C111.153 16.76 111.564 16.2 112.108 15.72C112.652 15.24 113.335 14.8613 114.156 14.584C114.977 14.296 115.937 14.152 117.036 14.152C117.633 14.152 118.209 14.2053 118.764 14.312C119.329 14.4187 119.857 14.568 120.348 14.76C120.839 14.952 121.287 15.1813 121.692 15.448C122.097 15.704 122.455 15.9867 122.764 16.296L121.644 18.04Z" fill="white"/>
<path d="M12.756 5.92578V8.90832L15.3072 10.6635V8.56519H28.0633V28.3608H21.6853V31.0002H30.6145V5.92578H12.756ZM9.56703 9.8849L0 16.4834V31.0002H19.1341V16.4834L9.56703 9.8849ZM17.8584 11.2046V12.4319L19.9122 13.844H20.4097V11.2046H17.8584ZM22.9609 11.2046V13.844H25.5121V11.2046H22.9609ZM9.56703 13.1842L16.5828 17.8031V28.3608H12.756V20.4426H6.37802V28.3608H2.55121V17.8031L9.56703 13.1842ZM22.9609 16.4834V19.1228H25.5121V16.4834H22.9609ZM22.9609 21.7623V24.4017H25.5121V21.7623H22.9609Z" fill="#FB9849"/>
</svg>
