<svg width="351" height="704" viewBox="0 0 351 704" fill="none" xmlns="http://www.w3.org/2000/svg">
<path d="M1.00001 352.004L1.29746 355.292L2.18878 358.587L3.67239 361.896L5.74488 365.225L8.40192 368.581L11.6376 371.97L15.4452 375.398L19.8164 378.872L24.7419 382.397L30.2109 385.979L36.2121 389.621L42.7323 393.33L49.7577 397.109L57.2734 400.962L65.2635 404.893L73.7108 408.903L82.5977 412.996L91.9052 417.172L101.614 421.434L111.704 425.781L122.153 430.213L132.94 434.73L144.043 439.33L155.438 444.012L167.103 448.771L179.013 453.606L407.043 545.68L418.93 550.45L430.584 555.101L441.986 559.619L453.118 563.99L463.962 568.198L474.501 572.23L484.719 576.071L494.602 579.707L504.133 583.122L513.302 586.303L522.095 589.235L530.501 591.905L538.511 594.299L546.115 596.403L553.305 598.204L560.075 599.69L566.418 600.849L572.33 601.668L577.808 602.138L582.848 602.247L587.449 601.986L591.611 601.345L595.333 600.316L598.619 598.891L601.469 597.064L603.889 594.828L605.881 592.179L607.452 589.111L608.607 585.622L609.355 581.709L609.702 577.371L609.657 572.607L609.231 567.418L608.432 561.805L607.273 555.772L605.763 549.321L603.916 542.458L601.744 535.187L599.26 527.517L596.477 519.455L593.409 511.01L590.07 502.192L586.475 493.011L582.639 483.48L578.576 473.613L574.301 463.422L569.83 452.922L565.177 442.13L560.358 431.063L555.387 419.737L550.28 408.172L545.052 396.386L450.318 183.725L445.018 171.858L439.799 160.219L434.665 148.831L429.62 137.718L424.667 126.903L419.81 116.408L415.049 106.257L410.387 96.4696L405.824 87.0673L401.359 78.0702L396.993 69.4975L392.724 61.3677L388.551 53.6983L384.47 46.5061L380.479 39.8068L376.575 33.615L372.753 27.9445L369.01 22.8077L365.34 18.2161L361.738 14.18L358.2 10.7086L354.719 7.80972L351.289 5.49012L347.903 3.75531L344.557 2.60947L341.241 2.05553L337.951 2.09521L334.679 2.72892L331.419 3.95572L328.163 5.77348L324.905 8.17878L321.638 11.1669L318.355 14.7319L315.051 18.8665L311.718 23.5625L308.352 28.81L304.946 34.5984L301.496 40.9157L297.995 47.7487L294.441 55.0835L290.828 62.9047L287.153 71.1962L283.413 79.9408L279.605 89.1203L275.727 98.7158L271.778 108.707L267.756 119.075L263.661 129.796L259.494 140.85L255.254 152.213L250.945 163.862L246.568 175.775L242.125 187.925L162.458 406.682L158.04 418.858L153.725 430.811L149.525 442.52L145.455 453.966L141.529 465.13L137.759 475.994L134.16 486.541L130.747 496.755L127.533 506.62L124.531 516.122L121.757 525.249L119.223 533.988L116.943 542.326L114.931 550.256L113.198 557.767L111.759 564.851L110.625 571.502L109.807 577.714L109.318 583.481L109.167 588.801L109.365 593.67L109.922 598.088L110.847 602.053L112.147 605.567L113.83 608.631L115.903 611.248L118.372 613.421L121.241 615.155L124.515 616.456L128.197 617.329L132.289 617.783L136.793 617.826L141.71 617.466L147.037 616.713L152.775 615.578L158.919 614.072L165.468 612.207L172.415 609.994L179.755 607.447L187.482 604.58L195.587 601.406L204.062 597.939L212.897 594.195L222.08 590.188L231.601 585.932L241.447 581.445L251.602 576.74L262.054 571.834L272.786 566.742L283.781 561.481L295.023 556.065L306.493 550.511L318.172 544.833L527.522 442.782L539.122 437.106L550.489 431.521L561.598 426.032L572.427 420.643L582.953 415.358L593.153 410.181L603.006 405.113L612.49 400.157L621.585 395.313L630.271 390.582L638.529 385.964L646.341 381.458L653.689 377.063L660.557 372.776L666.93 368.596L672.793 364.518L678.133 360.539L682.938 356.656L687.196 352.864L690.897 349.157L694.032 345.532L696.595 341.981L698.577 338.499L699.975 335.08L700.783 331.717L701 328.404L700.624 325.135L699.654 321.902L698.093 318.698L695.941 315.517L693.204 312.352L689.885 309.195L685.992 306.041L681.531 302.883L676.511 299.713L670.943 296.527L664.836 293.318L658.203 290.081L651.059 286.81L643.416 283.501L635.29 280.149L626.699 276.75L617.658 273.3L608.188 269.796L598.306 266.237L588.033 262.618L577.39 258.941L566.398 255.202L555.08 251.403L543.459 247.542L531.558 243.623L519.4 239.645L507.011 235.61L285.505 163.686L273.257 159.732L261.244 155.877L249.486 152.135L238.004 148.517L226.815 145.038L215.939 141.71L205.392 138.547L195.19 135.563L185.35 132.77L175.885 130.182L166.808 127.812L158.133 125.674L149.87 123.781L142.029 122.145L134.62 120.78L127.651 119.696L121.129 118.906L115.058 118.422L109.445 118.254L104.293 118.412L99.6041 118.907L95.3798 119.748L91.6204 120.943L88.3254 122.5L85.4928 124.427L83.1199 126.731L81.2029 129.415L79.737 132.487L78.7162 135.948L78.1343 139.804L77.9831 144.056L78.2546 148.704L78.9395 153.751L80.0276 159.194L81.5081 165.032L83.3696 171.264L85.6001 177.884L88.1865 184.888L91.1156 192.272L94.3737 200.028L97.9464 208.148L101.819 216.623L105.976 225.445L110.403 234.602L115.083 244.083L120.001 253.875L125.141 263.964L130.487 274.336L136.021 284.975L141.729 295.866L147.594 306.991L153.599 318.332L269.062 535.359L275.106 546.664L281.049 557.73L286.885 568.534L292.609 579.053L298.217 589.265L303.705 599.146L309.071 608.677L314.311 617.836L319.425 626.602L324.411 634.956L329.269 642.88L334 650.356L338.604 657.366L343.084 663.895L347.442 669.927L351.68 675.449L355.801 680.446L359.81 684.908L363.711 688.823L367.509 692.182L371.208 694.975L374.814 697.195L378.333 698.837L381.771 699.895L385.135 700.365L388.43 700.245L391.664 699.535L394.844 698.233L397.976 696.341L401.067 693.862L404.125 690.8L407.157 687.16L410.168 682.948L413.167 678.173L416.16 672.842L419.152 666.966L422.151 660.557L425.162 653.626L428.19 646.187L431.242 638.255L434.321 629.846L437.433 620.976L440.581 611.662L443.769 601.924L447.001 591.78L450.277 581.252L453.601 570.36L456.975 559.126L460.398 547.572L463.871 535.721L467.394 523.598L470.966 511.226L535.169 287.467L538.746 274.958L542.24 262.673L545.638 250.634L548.928 238.862L552.098 227.376L555.136 216.195L558.028 205.339L560.763 194.823L563.326 184.665L565.705 174.88L567.888 165.482L569.86 156.485L571.611 147.901L573.126 139.741L574.394 132.016L575.403 124.735L576.141 117.906L576.596 111.536L576.758 105.63L576.615 100.194L576.158 95.2304L575.378 90.742L574.264 86.7301L572.809 83.1951L571.006 80.1359L568.846 77.5508L566.324 75.4367L563.435 73.7896L560.173 72.6046L556.534 71.8755L552.516 71.5957L548.117 71.7571L543.335 72.3511L538.169 73.3681L532.622 74.7978L526.693 76.6291L520.386 78.8501L513.704 81.4483L506.652 84.4106L499.236 87.7233L491.461 91.3721L483.336 95.3422L474.869 99.6186L466.07 104.186L456.948 109.027L447.517 114.128L437.787 119.47L427.773 125.039L417.489 130.816L406.949 136.785L396.171 142.93L385.17 149.233L373.965 155.678L172.243 272.074L161.014 278.57L150.005 284.961L139.24 291.241L128.743 297.402L118.535 303.44L108.638 309.35L99.0756 315.126L89.8677 320.766L81.035 326.268L72.5974 331.629L64.5743 336.847L56.9839 341.923L49.8439 346.855L43.1709 351.646L36.9808 356.296L31.2886 360.808L26.1079 365.183L21.4516 369.424L17.3317 373.536L13.7584 377.523L10.7418 381.389L8.28977 385.138L6.40959 388.777L5.10734 392.31L4.38765 395.745L4.25409 399.087L4.70868 402.343L5.75257 405.52L7.38538 408.624L9.60547 411.663L12.41 414.643L15.795 417.572L19.7548 420.457L24.283 423.305L29.3715 426.124L35.0113 428.918L41.1922 431.697L47.9025 434.465L55.1298 437.23L62.8602 439.997L71.0789 442.772L79.7702 445.56L88.917 448.366L98.5015 451.194L108.505 454.049L118.907 456.934L129.689 459.852L140.828 462.805L152.302 465.797L164.089 468.827L176.166 471.898L188.508 475.009L201.091 478.159L427.101 534.476L439.652 537.585L451.968 540.615L464.026 543.553L475.807 546.389L487.289 549.111L498.455 551.706L509.284 554.163L519.761 556.469L529.869 558.612L539.591 560.58L548.914 562.361L557.824 563.941L566.308 565.309L574.355 566.453L581.956 567.36L589.101 568.02L595.781 568.42L601.99 568.55L607.722 568.399L612.973 567.957L617.739 567.214L622.018 566.161L625.808 564.788L629.11 563.089L631.924 561.055L634.252 558.679L636.099 555.956L637.467 552.88L638.362 549.446L638.79 545.651L638.759 541.492L638.276 536.966L637.351 532.073L635.994 526.812L634.214 521.183L632.024 515.189L629.436 508.832L626.462 502.115L623.116 495.042L619.413 487.62L615.366 479.854L610.992 471.753L606.306 463.324L601.323 454.576L596.06 445.521L590.534 436.169L584.762 426.533L578.761 416.625L572.548 406.46L566.141 396.053L559.556 385.419L552.811 374.574L545.924 363.537L422.495 166.131L415.649 155.22L408.917 144.535L402.309 134.097L395.831 123.931L389.488 114.058L383.287 104.5L377.232 95.2784L371.327 86.4141L365.575 77.9272L359.978 69.8373L354.539 62.1633L349.258 54.9233L344.135 48.1344L339.171 41.8131L334.363 35.9749L329.711 30.6344L325.213 25.8051L320.865 21.4995L316.663 17.7292L312.605 14.5044L308.686 11.8344L304.9 9.72734L301.244 8.19007L297.71 7.2283L294.293 6.84647L290.987 7.04785L287.785 7.83439L284.681 9.20682L281.667 11.1646L278.736 13.7059L275.881 16.8276L273.095 20.5254L270.37 24.7937L267.699 29.6256L265.076 35.013L262.492 40.9466L259.941 47.416L257.415 54.4095L254.909 61.9141L252.416 69.9161L249.931 78.4004L247.446 87.3508L244.957 96.7505L242.46 106.581L239.948 116.824L237.42 127.46L234.87 138.466L232.295 149.824L229.694 161.509L227.064 173.499L224.404 185.771L221.712 198.3L170.577 438.727L167.932 451.286L165.361 463.598L162.877 475.642L160.49 487.397L158.211 498.844L156.052 509.961L154.023 520.732L152.137 531.139L150.406 541.165L148.841 550.795L147.454 560.014L146.257 568.808L145.262 577.165L144.48 585.075L143.923 592.525L143.603 599.509L143.529 606.016L143.713 612.042L144.165 617.579L144.896 622.624L145.914 627.173L147.228 631.223L148.848 634.775L150.78 637.826L153.033 640.38L155.613 642.438L158.525 644.004L161.776 645.081L165.369 645.675L169.309 645.794L173.598 645.443L178.238 644.632L183.23 643.37L188.576 641.667L194.273 639.533L200.322 636.982L206.718 634.025L213.46 630.675L220.542 626.947L227.959 622.854L235.705 618.413L243.773 613.638L252.155 608.547L260.841 603.154L269.821 597.478L279.084 591.534L288.618 585.342L298.411 578.917L308.449 572.279L318.716 565.445L329.199 558.432L339.879 551.259L532.967 421.101L543.766 413.809L554.358 406.635L564.719 399.587L574.829 392.673L584.663 385.902L594.201 379.278L603.421 372.809L612.302 366.5L620.823 360.354L628.965 354.375L636.708 348.567L644.034 342.931L650.925 337.468L657.364 332.18L663.335 327.065L668.823 322.125L673.814 317.356L678.294 312.757L682.25 308.326L685.673 304.059L688.552 299.953L690.877 296.003L692.642 292.205L693.838 288.553L694.462 285.041L694.509 281.665L693.975 278.417L692.859 275.291L691.161 272.281L688.881 269.378L686.021 266.576L682.585 263.868L678.577 261.245L674.003 258.701L668.87 256.228L663.186 253.818L656.962 251.464L650.207 249.159L642.933 246.896L635.154 244.667L626.883 242.466L618.136 240.286L608.93 238.122L599.28 235.967L589.206 233.816L578.727 231.665L567.862 229.507L556.633 227.34L545.061 225.16L533.168 222.963L520.978 220.747L508.514 218.51L495.801 216.251L266.416 175.825L253.621 173.583L241.061 171.403L228.758 169.293L216.735 167.263L205.011 165.324L193.608 163.487L182.544 161.761L171.839 160.158L161.509 158.688L151.571 157.365L142.041 156.197L132.934 155.198L124.263 154.377L116.04 153.748L108.277 153.32L100.983 153.104L94.169 153.112L87.8418 153.355L82.0082 153.841L76.674 154.583L71.8436 155.588L67.5203 156.867L63.7063 158.428L60.4023 160.279L57.6084 162.427L55.3231 164.882L53.544 167.647L52.2676 170.73L51.4894 174.135L51.2035 177.868L51.4034 181.931L52.0812 186.327L53.2285 191.059L54.8355 196.128L56.8919 201.533L59.3862 207.275L62.3065 213.352L65.6396 219.762L69.3721 226.501L73.4895 233.566L77.977 240.951L82.8191 248.649L87.9997 256.655L93.5021 264.959L99.3096 273.554L105.405 282.429L111.77 291.573L118.387 300.975L125.238 310.622L132.305 320.501L139.569 330.598L147.012 340.897L154.615 351.382L291.528 539.718L299.151 550.176L306.646 560.423L314.003 570.437L321.213 580.195L328.269 589.675L335.164 598.857L341.891 607.718L348.445 616.238L354.821 624.398L361.015 632.177L367.024 639.557L372.846 646.519L378.478 653.047L383.919 659.123L389.171 664.733L394.232 669.86L399.104 674.491L403.789 678.614L408.29 682.215L412.608 685.285L416.749 687.814L420.715 689.792L424.512 691.213L428.145 692.069L431.62 692.356L434.941 692.07L438.116 691.208L441.152 689.769L444.054 687.751L446.831 685.157L449.49 681.989L452.038 678.25L454.483 673.944L456.832 669.078L459.095 663.659L461.277 657.696L463.388 651.198L465.434 644.176L467.423 636.642L469.363 628.61L471.26 620.093L473.122 611.107L474.954 601.668L476.765 591.794L478.558 581.504L480.341 570.815L482.117 559.749L483.892 548.327L485.67 536.57L487.454 524.501L489.249 512.143L491.056 499.519L492.877 486.655L525.29 256.134L527.066 243.361L528.786 230.835L530.442 218.575L532.023 206.606L533.52 194.947L534.924 183.619L536.223 172.641L537.409 162.032L538.469 151.81L539.394 141.99L540.173 132.589L540.795 123.621L541.248 115.1L541.523 107.037L541.608 99.4454L541.493 92.3339L541.167 85.7119L540.62 79.5872L539.842 73.9666L538.824 68.8556L537.555 64.2585L536.028 60.1784L534.234 56.6174L532.164 53.5763L529.811 51.0546L527.168 49.051L524.229 47.5628L520.988 46.5862L517.44 46.1164L513.581 46.1476L509.407 46.6727L504.916 47.6838L500.105 49.172L494.972 51.1274L489.519 53.5392L483.744 56.3957L477.65 59.6846L471.238 63.3925L464.512 67.5054L457.477 72.0086L450.135 76.8868L442.495 82.124L434.562 87.7039L426.345 93.6093L417.851 99.823L409.091 106.327L400.075 113.103L390.814 120.134L381.321 127.399L371.608 134.881L361.691 142.56L351.582 150.418L341.299 158.436L157.779 301.743L147.662 309.673L137.759 317.463L128.094 325.103L118.687 332.586L109.56 339.901L100.735 347.042L92.2314 354.002L84.0703 360.775L76.2711 367.356L68.8531 373.74L61.8346 379.925L55.2335 385.906L49.0669 391.683L43.3509 397.253L38.101 402.616L33.3319 407.773L29.057 412.725L25.289 417.472L22.0396 422.018L19.3193 426.365L17.1379 430.516L15.5033 434.476L14.4233 438.249L13.9037 441.84L13.9495 445.255L14.5646 448.5L15.7512 451.58L17.5107 454.504L19.8432 457.278L22.7474 459.908L26.2209 462.403L30.26 464.771L34.8597 467.019L40.0138 469.156L45.7146 471.188L51.9539 473.125L58.7216 474.975L66.0066 476.744L73.7968 478.442L82.0789 480.076L90.8383 481.654L100.06 483.182L109.726 484.669L119.821 486.12L130.324 487.542L141.218 488.941L152.481 490.324L164.092 491.694L176.03 493.057L188.272 494.418L200.795 495.78L213.574 497.146L445.189 521.483L458.165 522.836L470.909 524.148L483.398 525.409L495.607 526.611L507.517 527.747L519.105 528.806L530.352 529.779L541.237 530.658L551.743 531.431L561.852 532.09L571.547 532.623L580.813 533.021L589.635 533.273L597.999 533.369L605.894 533.299L613.308 533.052L620.23 532.617L626.653 531.986L632.568 531.147L637.968 530.092L642.849 528.811L647.205 527.295L651.035 525.535L654.335 523.523L657.106 521.251L659.348 518.713L661.062 515.9L662.252 512.807L662.922 509.429L663.076 505.76L662.72 501.796L661.863 497.533L660.512 492.969L658.676 488.102L656.365 482.93L653.591 477.453L650.366 471.671L646.702 465.586L642.614 459.199L638.115 452.513L633.22 445.533L627.946 438.264L622.308 430.709L616.324 422.878L610.012 414.776L603.388 406.412L596.471 397.797L589.28 388.938L581.833 379.849L574.151 370.54L566.252 361.024L558.155 351.316L549.88 341.429L400.166 163.103L391.797 153.155L383.569 143.402L375.491 133.867L367.575 124.571L359.829 115.537L352.264 106.784L344.886 98.3336L337.703 90.2062L330.721 82.4215L323.946 74.9987L317.383 67.9566L311.035 61.3134L304.905 55.0864L298.996 49.2923L293.31 43.947L287.847 39.0656L282.607 34.6623L277.589 30.7503L272.793 27.3421L268.216 24.4489L263.855 22.081L259.707 20.2477L255.767 18.957L252.033 18.216L248.497 18.0306L245.156 18.4054L242.002 19.3438L239.03 20.8482L236.232 22.9196L233.602 25.5578L231.132 28.7615L228.814 32.5278L226.64 36.853L224.602 41.7319L222.693 47.1581L220.903 53.1239L219.225 59.6207L217.649 66.6383L216.168 74.1655L214.773 82.1901L213.456 90.6985L212.21 99.6762L211.026 109.108L209.896 118.976L208.814 129.264L207.773 139.952L206.766 151.021L205.787 162.452L204.829 174.222L203.888 186.309L202.958 198.692L202.036 211.345L201.116 224.247L184.867 456.475L183.978 469.399L183.126 482.081L182.318 494.496L181.562 506.623L180.866 518.44L180.238 529.925L179.686 541.059L179.221 551.821L178.851 562.194L178.586 572.16L178.434 581.702L178.407 590.804L178.514 599.453L178.765 607.635L179.17 615.338L179.738 622.55L180.48 629.261L181.405 635.462L182.523 641.147L183.843 646.308L185.375 650.939L187.126 655.038L189.106 658.601L191.322 661.626L193.783 664.114L196.494 666.064L199.464 667.478L202.697 668.36L206.2 668.715L209.978 668.546L214.034 667.86L218.372 666.666L222.995 664.971L227.906 662.785L233.105 660.118L238.593 656.983L244.37 653.39L250.435 649.354L256.785 644.889L263.419 640.008L270.331 634.729L277.519 629.066L284.976 623.036L292.696 616.658L300.672 609.948L308.896 602.925L317.358 595.608L326.049 588.016L334.959 580.168L344.075 572.084L353.386 563.783L362.877 555.286L372.536 546.612L545.632 390.843L555.219 382.19L564.608 373.689L573.775 365.35L582.701 357.184L591.365 349.203L599.745 341.414L607.822 333.826L615.575 326.446L622.986 319.282L630.034 312.34L636.703 305.623L642.974 299.137L648.83 292.886L654.254 286.87L659.232 281.093L663.749 275.556L667.79 270.258L671.343 265.199L674.395 260.378L676.936 255.793L678.956 251.442L680.445 247.32L681.396 243.424L681.803 239.75L681.659 236.293L680.959 233.047L679.702 230.005L677.884 227.163L675.506 224.511L672.566 222.044L669.068 219.754L665.014 217.632L660.407 215.671L655.253 213.862L649.56 212.197L643.334 210.667L636.584 209.263L629.321 207.977L621.556 206.8L613.302 205.723L604.572 204.739L595.38 203.837L585.744 203.01L575.678 202.251L565.202 201.551L554.333 200.902L543.092 200.298L531.499 199.732L519.575 199.198L507.342 198.688L494.824 198.199L482.043 197.724L469.023 197.259L236.259 189.14L223.393 188.713L210.78 188.317L198.442 187.958L186.404 187.644L174.685 187.381L163.309 187.177L152.294 187.042L141.66 186.982L131.426 187.007L121.609 187.126L112.226 187.347L103.293 187.681L94.8224 188.136L86.8294 188.722L79.3255 189.448L72.322 190.325L65.8288 191.361L59.8546 192.566L54.4069 193.948L49.4922 195.518L45.1155 197.283L41.2809 199.253L37.9909 201.435L35.2472 203.838L33.05 206.468L31.3984 209.333L30.2903 212.439L29.7224 215.793L29.6902 219.399L30.1884 223.263L31.2102 227.388L32.7478 231.779L34.7924 236.438L37.3343 241.368L40.3626 246.57L43.8656 252.044L47.8305 257.79L52.2439 263.808L57.0914 270.096L62.3578 276.651L68.0273 283.469L74.0833 290.547L80.5088 297.879L87.2858 305.459L94.3961 313.281L101.821 321.336L109.541 329.616L117.537 338.111L125.789 346.812L134.277 355.706L142.98 364.783L151.879 374.028L322.724 550.841L331.653 560.045L340.42 569.048L349.011 577.828L357.417 586.365L365.626 594.639L373.63 602.629L381.418 610.316L388.983 617.68L396.319 624.701L403.419 631.363L410.277 637.646L416.889 643.533L423.251 649.008L429.361 654.054L435.216 658.657L440.815 662.802L446.158 666.476L451.245 669.666L456.077 672.36L460.657 674.547L464.985 676.219L469.067 677.366L472.905 677.98L476.504 678.055L479.87 677.587L483.007 676.57L485.922 675.002L488.622 672.88L491.113 670.205L493.403 666.976L495.5 663.196L497.412 658.868L499.148 653.996L500.715 648.585L502.123 642.642L503.38 636.175L504.497 629.193L505.481 621.707L506.342 613.727L507.089 605.267L507.731 596.34L508.277 586.961L508.735 577.145L509.115 566.91L509.424 556.274L509.671 545.255L509.863 533.873L510.007 522.148L510.112 510.102L510.182 497.757L510.225 485.136L510.247 472.262L510.251 239.485L510.24 226.472L510.211 213.699L510.157 201.187L510.073 188.961L509.954 177.043L509.79 165.456L509.577 154.219L509.306 143.353L508.969 132.878L508.558 122.812L508.065 113.172L507.481 103.976L506.798 95.2369L506.005 86.9709L505.095 79.1907L504.058 71.9085L502.886 65.1353L501.568 58.8808L500.096 53.1537L498.462 47.9614L496.655 43.3101L494.669 39.2047L492.494 35.6491L490.123 32.6458L487.548 30.1961L484.761 28.3001L481.756 26.9567L478.527 26.1635L475.067 25.9172L471.371 26.2129L467.434 27.045L463.252 28.4065L458.822 30.2893L454.14 32.6845L449.204 35.5818L444.013 38.9701L438.565 42.8375L432.862 47.1708L426.903 51.9562L420.69 57.1791L414.225 62.8238L407.513 68.8743L400.556 75.3134L393.359 82.1237L385.929 89.2869L378.272 96.7845L370.395 104.597L362.307 112.705L354.016 121.089L345.533 129.728L336.869 138.601L328.035 147.689L319.043 156.969L157.236 324.425L148.232 333.765L139.41 342.943L130.792 351.947L122.398 360.764L114.248 369.382L106.362 377.791L98.7597 385.98L91.4607 393.941L84.4839 401.665L77.8479 409.145L71.5708 416.374L65.6702 423.347L60.1629 430.059L55.0653 436.505L50.3929 442.683L46.1604 448.591L42.3822 454.226L39.0711 459.589L36.2396 464.68L33.8989 469.499L32.0598 474.049L30.7312 478.332L29.922 482.35L29.639 486.108L29.8887 489.611L30.6763 492.863L32.0054 495.87L33.8792 498.639L36.2989 501.175L39.2652 503.487L42.7772 505.582L46.833 507.467L51.4295 509.152L56.562 510.644L62.225 511.953L68.4116 513.088L75.1138 514.058L82.3224 514.872L90.0269 515.54L98.2159 516.072L106.877 516.477L115.995 516.763L125.557 516.942L135.546 517.021L145.944 517.011L156.736 516.919L167.9 516.755L179.419 516.526L191.27 516.241L203.433 515.908L215.886 515.533L228.605 515.123L241.567 514.686L474.354 506.56L487.279 506.092L499.956 505.611L512.361 505.114L524.47 504.595L536.262 504.048L547.715 503.468L558.806 502.847L569.518 502.178L579.829 501.454L589.722 500.669L599.179 499.813L608.185 498.878L616.723 497.857L624.779 496.74L632.341 495.52L639.396 494.187L645.934 492.733L651.944 491.149L657.418 489.426L662.35 487.557L666.732 485.531L670.56 483.341L673.831 480.98L676.542 478.439L678.693 475.71L680.282 472.787L681.311 469.663L681.784 466.332L681.703 462.787L681.074 459.023L679.903 455.036L678.197 450.821L675.963 446.375L673.213 441.694L669.955 436.776L666.202 431.62L661.966 426.225L657.26 420.589L652.098 414.715L646.496 408.603L640.469 402.256L634.034 395.676L627.208 388.867L620.01 381.833L612.457 374.581L604.57 367.115L596.367 359.445L587.869 351.576L579.096 343.518L570.069 335.281L560.809 326.875L551.337 318.31L541.674 309.599L368.582 153.842L358.99 145.238L349.57 136.818L340.338 128.603L331.304 120.613L322.482 112.867L313.883 105.384L305.516 98.1849L297.393 91.2873L289.52 84.7103L281.906 78.4718L274.558 72.5896L267.482 67.0808L260.682 61.9618L254.164 57.2486L247.93 52.9563L241.982 49.0994L236.322 45.6916L230.952 42.7456L225.871 40.2735L221.077 38.2863L216.57 36.7941L212.347 35.806L208.405 35.3302L204.74 35.3735L201.348 35.9421L198.223 37.0407L195.359 38.6731L192.75 40.8418L190.39 43.5483L188.271 46.7927L186.386 50.5742L184.725 54.8906L183.281 59.7385L182.044 65.1133L181.006 71.0092L180.156 77.4194L179.486 84.3356L178.986 91.7484L178.645 99.6476L178.454 108.021L178.403 116.857L178.482 126.14L178.681 135.857L178.99 145.991L179.4 156.524L179.901 167.44L180.485 178.719L181.142 190.342L181.863 202.288L182.641 214.535L183.468 227.061L184.336 239.844L201.49 485.044L202.411 497.848L203.336 510.394L204.27 522.659L205.217 534.62L206.183 546.254L207.173 557.54L208.193 568.456L209.25 578.984L210.35 589.103L211.501 598.795L212.71 608.044L213.984 616.832L215.331 625.145L216.76 632.969L218.279 640.29L219.895 647.097L221.618 653.378L223.456 659.125L225.417 664.329L227.508 668.983L229.74 673.081L232.119 676.619L234.654 679.592L237.351 682L240.219 683.84L243.265 685.114L246.494 685.823L249.914 685.969L253.53 685.556L257.347 684.59L261.371 683.078L265.605 681.026L270.054 678.443L274.72 675.338L279.607 671.724L284.714 667.61L290.045 663.01L295.599 657.938L301.376 652.408L307.375 646.436L313.594 640.037L320.03 633.229L326.681 626.03L333.54 618.457L340.605 610.531L347.868 602.269L355.323 593.693L362.963 584.823L370.779 575.68L378.762 566.284L386.903 556.658L395.19 546.823L544.9 368.516L553.271 358.53L561.476 348.714L569.494 339.083L577.308 329.65L584.896 320.429L592.241 311.432L599.322 302.671L606.122 294.157L612.622 285.899L618.803 277.906L624.648 270.187L630.139 262.748L635.261 255.595L639.996 248.735L644.33 242.171L648.247 235.906L651.734 229.944L654.776 224.286L657.363 218.934L659.481 213.886L661.121 209.142L662.272 204.702L662.926 200.561L663.075 196.718L662.712 193.167L661.831 189.906L660.427 186.928L658.498 184.228L656.041 181.799L653.054 179.634L649.538 177.725L645.494 176.066L640.924 174.646L635.831 173.459L630.22 172.493L624.098 171.74L617.47 171.19L610.347 170.833L602.736 170.659L594.648 170.658L586.096 170.818L577.091 171.131L567.649 171.586L557.784 172.171L547.511 172.878L536.848 173.695L525.813 174.614L514.425 175.623L502.703 176.714L490.669 177.878L478.343 179.105L465.748 180.388L452.906 181.718L221.259 206.048L208.339 207.418L195.661 208.782L183.25 210.143L171.129 211.505L159.322 212.87L147.85 214.245L136.735 215.634L125.998 217.042L115.658 218.475L105.736 219.939L96.2486 221.442L87.2136 222.99L78.6468 224.589L70.5634 226.248L62.9774 227.975L55.9017 229.776L49.348 231.66L43.3269 233.635L37.8478 235.709L32.9187 237.89L28.5468 240.186L24.7375 242.604L21.4955 245.154L18.8239 247.842L16.7248 250.676L15.1986 253.662L14.2452 256.809L13.8624 260.123L14.0474 263.609L14.796 267.273L16.1027 271.122L17.9608 275.159L20.3629 279.389L23.3 283.817L26.7619 288.444L30.7378 293.275L35.2157 298.31L40.1823 303.551L45.6239 308.999L51.5253 314.653L57.871 320.513L64.6442 326.577L71.8275 332.843L79.4031 339.308L87.352 345.968L95.655 352.818L104.292 359.853L113.243 367.065L122.486 374.45L132.001 381.998L141.766 389.7L151.758 397.549L161.957 405.532L345.508 548.855L355.722 556.81L365.754 564.598L375.59 572.199L385.215 579.595L394.615 586.767L403.777 593.696L412.691 600.364L421.343 606.752L429.726 612.842L437.828 618.617L445.643 624.059L453.162 629.152L460.38 633.879L467.29 638.225L473.888 642.175L480.171 645.714L486.135 648.828L491.779 651.505L497.102 653.732L502.103 655.499L506.784 656.794L511.146 657.608L515.191 657.932L518.923 657.76L522.345 657.085L525.462 655.9L528.28 654.203L530.804 651.988L533.041 649.255L534.997 646.002L536.682 642.229L538.103 637.938L539.268 633.132L540.188 627.812L540.87 621.986L541.326 615.658L541.565 608.835L541.597 601.527L541.434 593.742L541.085 585.491L540.561 576.786L539.874 567.64L539.035 558.067L538.053 548.081L536.94 537.699L535.707 526.938L534.364 515.815L532.921 504.35L531.388 492.562L529.776 480.472L528.093 468.101L526.349 455.471L524.553 442.606L492.133 212.084L490.318 199.315L488.516 186.797L486.726 174.554L484.945 162.609L483.169 150.986L481.394 139.706L479.615 128.791L477.829 118.263L476.03 108.139L474.211 98.4407L472.367 89.1845L470.492 80.3877L468.578 72.0663L466.619 64.2353L464.608 56.9085L462.536 50.0986L460.397 43.8172L458.183 38.0746L455.886 32.8801L453.499 28.2416L451.013 24.1659L448.421 20.6585L445.715 17.7237L442.887 15.3644L439.932 13.5825L436.84 12.3783L433.606 11.7512L430.223 11.699L426.685 12.2187L422.986 13.3056L419.12 14.9542L415.083 17.1576L410.871 19.9077L406.479 23.1955L401.903 27.0107L397.142 31.3419L392.193 36.1769L387.055 41.5022L381.726 47.3035L376.206 53.5657L370.497 60.2726L364.599 67.4072L358.514 74.952L352.246 82.8883L345.797 91.1972L339.172 99.8588L332.375 108.853L325.414 118.159L318.294 127.755L311.023 137.62L303.609 147.731L296.061 158.067L288.388 168.605L151.5 356.918L143.96 367.329L136.587 377.548L129.401 387.558L122.42 397.344L115.662 406.893L109.146 416.191L102.888 425.227L96.9082 433.989L91.2228 442.466L85.8495 450.65L80.805 458.531L76.1054 466.103L71.7667 473.358L67.8044 480.291L64.2329 486.896L61.0663 493.171L58.318 499.112L56.0007 504.717L54.1261 509.985L52.7051 514.916L51.748 519.511L51.2638 523.772L51.261 527.7L51.7467 531.298L52.7271 534.572L54.2078 537.525L56.1927 540.163L58.6849 542.492L61.6866 544.518L65.1984 546.25L69.2201 547.695L73.7502 548.861L78.7862 549.758L84.3245 550.394L90.3599 550.78L96.8864 550.926L103.897 550.842L111.383 550.538L119.335 550.027L127.742 549.318L136.592 548.423L145.873 547.354L155.571 546.122L165.67 544.737L176.155 543.212L187.009 541.558L198.213 539.785L209.749 537.905L221.598 535.928L233.737 533.864L246.148 531.724L258.806 529.518L501.008 486.833L513.623 484.583L525.978 482.355L538.05 480.147L549.814 477.957L561.249 475.783L572.333 473.62L583.043 471.466L593.36 469.315L603.263 467.163L612.734 465.005L621.756 462.836L630.311 460.648L638.383 458.437L645.958 456.194L653.022 453.915L659.562 451.591L665.567 449.215L671.028 446.78L675.934 444.279L680.278 441.704L684.054 439.047L687.255 436.302L689.879 433.459L691.923 430.514L693.384 427.457L694.262 424.282L694.56 420.983L694.278 417.552L693.42 413.984L691.991 410.273L689.997 406.414L687.446 402.401L684.344 398.229L680.703 393.896L676.531 389.397L671.842 384.729L666.647 379.891L660.96 374.88L654.797 369.694L648.172 364.335L641.101 358.802L633.603 353.095L625.696 347.217L617.397 341.17L608.727 334.957L599.705 328.582L590.353 322.049L580.692 315.365L570.743 308.535L560.528 301.565L550.07 294.465L539.391 287.241L346.296 157.068L335.506 149.808L324.904 142.698L314.507 135.756L304.331 128.999L294.392 122.446L284.702 116.114L275.277 110.021L266.128 104.184L257.266 98.6213L248.703 93.3492L240.449 88.3847L232.511 83.744L224.898 79.4431L217.616 75.4972L210.673 71.9214L204.071 68.7299L197.816 65.9364L191.91 63.5537L186.356 61.5942L181.154 60.0693L176.305 58.9897L171.808 58.3652L167.662 58.2046L163.864 58.5161L160.411 59.3066L157.298 60.5821L154.522 62.3477L152.076 64.6073L149.955 67.3638L148.151 70.6191L146.656 74.3738L145.464 78.6275L144.564 83.3786L143.948 88.6245L143.606 94.3612L143.528 100.584L143.704 107.286L144.122 114.461L144.772 122.1L145.642 130.193L146.721 138.73L147.996 147.699L149.457 157.086L151.092 166.879L152.887 177.062L154.833 187.619L156.916 198.534L159.126 209.788L161.45 221.362L163.878 233.238L166.399 245.394L169.001 257.809L171.674 270.461L220.102 498.17L222.812 510.84L225.491 523.268L228.139 535.428L230.757 547.297L233.347 558.851L235.911 570.068L238.452 580.926L240.973 591.404L243.478 601.481L245.972 611.139L248.458 620.358L250.943 629.12L253.431 637.41L255.928 645.211L258.441 652.509L260.976 659.29L263.54 665.543L266.139 671.255L268.781 676.417L271.473 681.021L274.222 685.057L277.035 688.521L279.92 691.407L282.884 693.711L285.934 695.43L289.077 696.564L292.321 697.112L295.671 697.075L299.135 696.457L302.718 695.26L306.427 693.49L310.266 691.153L314.241 688.256L318.357 684.808L322.618 680.818L327.027 676.298L331.588 671.258L336.303 665.713L341.174 659.677L346.203 653.163L351.39 646.188L356.736 638.769L362.239 630.924L367.899 622.67L373.714 614.027L379.681 605.014L385.796 595.653L392.055 585.964L398.453 575.969L404.986 565.69L411.645 555.148L418.424 544.368L425.315 533.372L548.746 335.952L555.577 324.991L562.258 314.231L568.773 303.687L575.104 293.376L581.232 283.314L587.142 273.516L592.816 263.993L598.237 254.761L603.387 245.83L608.251 237.211L612.812 228.914L617.055 220.949L620.964 213.322L624.523 206.042L627.719 199.113L630.537 192.542L632.965 186.332L634.989 180.487L636.598 175.008L637.781 169.897L638.527 165.153L638.827 160.777L638.672 156.766L638.054 153.119L636.967 149.832L635.405 146.9L633.362 144.319L630.836 142.083L627.824 140.186L624.323 138.621L620.334 137.379L615.856 136.453L610.893 135.834L605.445 135.512L599.518 135.477L593.116 135.718L586.246 136.225L578.915 136.987L571.131 137.992L562.904 139.229L554.245 140.685L545.165 142.348L535.678 144.207L525.797 146.247L515.537 148.459L504.915 150.828L493.946 153.343L482.649 155.991L471.043 158.76L459.147 161.639L446.981 164.616L434.567 167.68L421.926 170.818L195.938 227.136L183.45 230.271L171.213 233.365L159.252 236.419L147.589 239.434L136.249 242.409L125.253 245.348L114.623 248.253L104.381 251.125L94.5456 253.969L85.1372 256.787L76.1739 259.585L67.6731 262.367L59.6515 265.138L52.1242 267.903L45.1059 270.669L38.6098 273.441L32.6481 276.225L27.2315 279.029L22.3703 281.858L18.0728 284.72L14.3464 287.623L11.1973 290.572L8.63037 293.575L6.64927 296.64L5.25624 299.772L4.45233 302.981L4.23755 306.271L4.61024 309.65L5.56779 313.124L7.10608 316.7L9.21988 320.383L11.9029 324.179L15.1474 328.093L18.9445 332.13L23.2843 336.295L28.1556 340.59L33.5463 345.021L39.4431 349.588L45.8318 354.295L52.6969 359.144L60.0224 364.135L67.7913 369.269L75.9855 374.545L84.5863 379.964L93.5744 385.522L102.929 391.218L112.63 397.049L122.656 403.011L132.985 409.1L143.594 415.31L154.461 421.636L165.562 428.071L378.553 550.97L389.677 557.36L400.589 563.601L411.272 569.676L421.71 575.569L431.886 581.263L441.786 586.741L451.395 591.987L460.702 596.984L469.693 601.716L478.359 606.167L486.688 610.32L494.671 614.161L502.3 617.675L509.569 620.846L516.471 623.662L523.001 626.108L529.154 628.172L534.928 629.841L540.32 631.104L545.329 631.95L549.955 632.369L554.199 632.351L558.062 631.889L561.547 630.975L564.657 629.603L567.396 627.766L569.769 625.46L571.783 622.683L573.444 619.43L574.758 615.7L575.735 611.494L576.383 606.812L576.711 601.656L576.728 596.028L576.446 589.932L575.874 583.374L575.024 576.36L573.909 568.897L572.538 560.994L570.925 552.661L569.083 543.907L567.023 534.745L564.759 525.188L562.303 515.249L559.669 504.943L556.869 494.287L553.915 483.296L550.822 471.989L547.602 460.384L544.266 448.5L540.828 436.359L537.299 423.98L473.105 200.221L469.505 187.713L465.953 175.439L462.45 163.424L458.997 151.692L455.595 140.266L452.242 129.168L448.937 118.421L445.679 108.047L442.466 98.0665L439.294 88.499L436.161 79.3638L433.063 70.6792L429.996 62.4623L426.954 54.7295L423.933 47.496L420.928 40.776L417.933 34.5825L414.941 28.9275L411.947 23.8217L408.944 19.2748L405.925 15.2951L402.883 11.8898L399.813 9.06478L396.705 6.82473L393.555 5.17303L390.354 4.1118L387.096 3.64184L383.773 3.76276L380.38 4.47281L376.91 5.76902L373.356 7.64715L369.712 10.1017L365.974 13.1261L362.135 16.7123L358.19 20.8512L354.136 25.5326L349.968 30.7451L345.681 36.4763L341.274 42.7126L336.744 49.4395L332.088 56.6414L327.305 64.3018L322.395 72.4034L317.357 80.9279L312.192 89.8563L306.9 99.1688L301.484 108.845L295.947 118.864L290.291 129.203L284.521 139.841L278.64 150.755L272.656 161.921L266.572 173.317L157.218 378.86L151.137 390.32L145.187 401.575L139.384 412.607L133.745 423.397L128.285 433.93L123.022 444.188L117.97 454.158L113.147 463.824L108.568 473.175L104.249 482.197L100.206 490.879L96.4541 499.211L93.0078 507.183L89.8819 514.788L87.0907 522.018L84.6477 528.867L82.5662 535.329L80.8584 541.401L79.5363 547.079L78.6113 552.36L78.0937 557.245L77.9933 561.731L78.3189 565.821L79.0788 569.516L80.28 572.819L81.9291 575.732L84.0312 578.261L86.591 580.41L89.6117 582.186L93.0957 583.595L97.0445 584.644L101.458 585.343L106.336 585.7L111.676 585.724L117.476 585.426L123.731 584.816L130.437 583.905L137.586 582.705L145.171 581.227L153.185 579.485L161.617 577.491L170.458 575.257L179.694 572.797L189.314 570.124L199.303 567.251L209.647 564.192L220.33 560.961L231.336 557.569L242.647 554.032L254.244 550.362L266.108 546.573L278.219 542.676L290.556 538.686L512.084 466.747L524.382 462.735L536.438 458.781L548.228 454.885L559.729 451.05L570.916 447.275L581.769 443.561L592.263 439.908L602.379 436.314L612.096 432.777L621.394 429.296L630.254 425.867L638.657 422.488L646.588 419.153L654.03 415.86L660.968 412.604L667.388 409.379L673.277 406.18L678.623 403.001L683.416 399.837L687.647 396.681L691.307 393.527L694.39 390.368L696.889 387.197L698.8 384.007L700.121 380.792L700.849 377.545L700.983 374.259L700.525 370.927L699.476 367.542L697.84 364.098L695.621 360.589L692.824 357.008L689.457 353.35L685.528 349.609L681.046 345.78L676.022 341.859L670.467 337.841L664.395 333.721L657.818 329.498L650.753 325.167L643.214 320.727L635.218 316.176L626.783 311.512L617.928 306.735L608.673 301.845L599.036 296.843L589.039 291.73L578.703 286.509L568.051 281.181L557.105 275.751L545.888 270.222L534.423 264.6L522.735 258.889L313.39 156.848L301.794 151.218L290.415 145.718L279.272 140.364L268.382 135.169L257.762 130.152L247.429 125.326L237.398 120.708L227.683 116.313L218.298 112.157L209.255 108.254L200.565 104.621L192.24 101.272L184.288 98.2213L176.718 95.483L169.537 93.0709L162.752 90.9982L156.367 89.2776L150.388 87.9212L144.817 86.9406L139.657 86.3466L134.909 86.1495L130.573 86.3586L126.648 86.9826L123.132 88.0294L120.024 89.5058L117.318 91.4181L115.011 93.7714L113.098 96.5699L111.572 99.8168L110.425 103.515L109.652 107.664L109.242 112.266L109.187 117.319L109.477 122.822L110.101 128.77L111.049 135.162L112.309 141.99L113.869 149.249L115.717 156.931L117.84 165.029L120.225 173.532L122.859 182.43L125.727 191.711L128.817 201.363L132.114 211.372L135.605 221.723L139.275 232.402L143.11 243.39L147.097 254.671L151.221 266.226L155.469 278.037L159.828 290.084L243.942 521.059L248.359 533.115L252.709 544.923L256.99 556.459L261.2 567.699L265.338 578.62L269.403 589.2L273.395 599.416L277.315 609.249L281.164 618.677L284.945 627.682L288.658 636.244L292.307 644.346L295.896 651.971L299.428 659.103L302.907 665.728L306.339 671.831L309.728 677.401L313.08 682.425L316.4 686.893L319.694 690.797L322.97 694.128L326.233 696.879L329.489 699.045L332.746 700.623L336.011 701.608L339.289 702L342.588 701.798L345.916 701.002L349.277 699.616L352.68 697.643L356.13 695.086L359.634 691.953L363.197 688.251L366.826 683.987L370.525 679.172L374.3 673.817L378.155 667.932L382.094 661.532L386.121 654.63L390.24 647.242L394.452 639.383L398.76 631.07L403.166 622.322L407.671 613.158L412.274 603.596L416.976 593.658L421.777 583.364L426.673 572.736L431.664 561.797L436.745 550.569L441.915 539.076L447.168 527.341L541.901 314.702L547.195 302.795L552.376 291.096L557.429 279.626L562.34 268.404L567.093 257.447L571.674 246.772L576.067 236.396L580.257 226.335L584.23 216.603L587.97 207.214L591.462 198.179L594.692 189.511L597.645 181.221L600.308 173.318L602.667 165.81L604.709 158.704L606.419 152.008L607.788 145.727L608.802 139.865L609.45 134.424L609.722 129.408L609.608 124.818L609.099 120.653L608.186 116.913L606.862 113.596L605.121 110.699L602.955 108.219L600.36 106.15L597.333 104.488L593.87 103.225L589.968 102.355L585.628 101.87L580.848 101.76L575.629 102.018L569.974 102.631L563.886 103.59L557.368 104.884L550.426 106.5L543.067 108.426L535.296 110.649L527.124 113.157L518.559 115.936L509.612 118.971L500.294 122.249L490.618 125.756L480.597 129.477L470.246 133.397L459.581 137.503L448.617 141.779L437.373 146.211L425.866 150.785L414.115 155.487L402.14 160.301L186.177 247.503L174.133 252.38L162.32 257.184L150.762 261.912L139.483 266.561L128.507 271.127L117.854 275.61L107.549 280.007L97.6121 284.32L88.0643 288.547L78.9258 292.689L70.2158 296.748L61.9525 300.725L54.1538 304.624L46.8359 308.446L40.0144 312.196L33.7042 315.877L27.9182 319.495L22.6692 323.052L17.9683 326.556L13.8257 330.011L10.2501 333.422L7.24934 336.797L4.82985 340.141L2.99675 343.461L1.75406 346.764L1.10447 350.055L1.04936 353.343L1.58893 356.633L2.72181 359.933L4.44571 363.249L6.75694 366.588L9.65046 369.957L13.1201 373.361L17.1582 376.808L21.7565 380.302L26.9047 383.849L32.592 387.455L38.8061 391.124L45.5339 394.861L52.7609 398.67L60.4718 402.554L68.6502 406.517L77.2788 410.56L86.3394 414.687L95.8128 418.898L105.679 423.194L115.918 427.576L126.507 432.043L137.426 436.594L148.651 441.228L160.158 445.941L171.926 450.732L183.929 455.596L399.897 542.803L411.912 547.637L423.706 552.36L435.26 556.959L446.554 561.418L457.571 565.725L468.293 569.863L478.703 573.819L488.786 577.578L498.527 581.125L507.913 584.447L516.93 587.528L525.566 590.355L533.812 592.914L541.658 595.191L549.094 597.174L556.114 598.848L562.71 600.202L568.879 601.224L574.614 601.903L579.914 602.227L584.775 602.186L589.197 601.771L593.18 600.973L596.724 599.784L599.832 598.196L602.507 596.203L604.751 593.799L606.571 590.98L607.972 587.741L608.961 584.079L609.544 579.993L609.73 575.482L609.529 570.545L608.95 565.183L608.003 559.398L606.699 553.194L605.051 546.575L603.07 539.545L600.769 532.111L598.161 524.28L595.261 516.061L592.081 507.462L588.636 498.495L584.941 489.17L581.01 479.501L576.859 469.499L572.503 459.181L567.955 448.561L563.233 437.655L558.35 426.48L553.322 415.054L548.164 403.397L542.89 391.527L448.15 178.865L442.882 167.088L437.697 155.548L432.598 144.27L427.591 133.275L422.677 122.588L417.859 112.231L413.138 102.225L408.516 92.592L403.993 83.3523L399.569 74.5258L395.243 66.1313L391.013 58.187L386.877 50.7101L382.834 43.7169L378.878 37.2226L375.008 31.2415L371.219 25.7869L367.506 20.8709L363.865 16.5044L360.29 12.6973L356.775 9.4582L353.316 6.79456L349.905 4.71259L346.536 3.21725L343.203 2.31225L339.899 2L336.617 2.28168L333.35 3.15713L330.092 4.62502L326.836 6.68259L323.575 9.32593L320.303 12.5498L317.012 16.3478L313.697 20.7122L310.352 25.634L306.97 31.1033L303.546 37.1086L300.076 43.6376L296.554 50.6768L292.976 58.2116L289.339 66.2265L285.638 74.7046L281.87 83.6286L278.034 92.9799L274.127 102.739L270.148 112.886L266.097 123.4L261.972 134.26L257.775 145.442L253.507 156.925L249.17 168.684L244.766 180.697L240.297 192.938L160.647 411.667L156.269 423.755L151.999 435.611L147.851 447.215L143.838 458.549L139.973 469.592L136.272 480.329L132.747 490.742L129.413 500.816L126.284 510.535L123.373 519.886L120.695 528.856L118.263 537.433L116.09 545.607L114.19 553.367L112.576 560.705L111.259 567.613L110.253 574.086L109.567 580.117L109.215 585.702L109.205 590.839L109.549 595.524L110.254 599.758L111.331 603.539L112.786 606.87L114.627 609.751L116.861 612.187L119.492 614.18L122.526 615.737L125.965 616.863L129.814 617.565L134.074 617.85L138.746 617.727L143.83 617.206L149.325 616.296L155.229 615.009L161.538 613.355L168.25 611.347L175.358 608.996L182.856 606.317L190.738 603.323L198.995 600.028L207.618 596.447L216.596 592.593L225.919 588.483L235.573 584.131L245.547 579.553L255.825 574.765L266.393 569.781L277.234 564.619L288.332 559.293L299.669 553.818L311.226 548.212L532.274 440.459L543.782 434.82L555.046 429.274L566.044 423.825L576.753 418.478L587.149 413.236L597.21 408.103L606.915 403.081L616.243 398.17L625.174 393.372L633.688 388.687L641.766 384.115L649.391 379.655L656.545 375.304L663.214 371.061L669.381 366.922L675.032 362.885L680.156 358.946L684.739 355.101L688.771 351.344L692.243 347.671L695.146 344.076L697.472 340.554L699.217 337.099L700.375 333.703L700.943 330.362L700.918 327.068L700.3 323.814L699.09 320.594L697.287 317.4L694.897 314.226L691.922 311.065L688.368 307.911L684.243 304.755L679.553 301.593L674.309 298.418L668.519 295.223L662.197 292.003L655.354 288.753L648.005 285.467L640.163 282.141L631.846 278.77L623.069 275.351L613.851 271.879L604.211 268.353L594.167 264.77L583.741 261.128L572.953 257.425L561.826 253.662L550.382 249.838L538.643 245.953L526.635 242.009L514.38 238.008L292.865 166.071L280.489 162.064L268.334 158.149L256.423 154.339L244.775 150.646L233.41 147.083L222.346 143.664L211.602 140.401L201.194 137.309L191.137 134.401L181.448 131.69L172.14 129.189L163.225 126.913L154.716 124.873L146.624 123.083L138.959 121.556L131.728 120.303L124.94 119.338L118.601 118.671L112.717 118.314L107.291 118.278L102.327 118.573L97.8272 119.207L93.7923 120.191L90.2222 121.533L87.1159 123.24L84.471 125.32L82.2843 127.778L80.5517 130.619L79.2678 133.849L78.4266 137.471L78.0211 141.488L78.0433 145.901L78.4843 150.712L79.3347 155.92L80.584 161.525L82.2211 167.523L84.2344 173.914L86.6114 180.691L89.3391 187.851L92.4039 195.387L95.7919 203.292L99.4885 211.558L103.479 220.176L107.748 229.135L112.28 238.426L117.059 248.035L122.069 257.949L127.295 268.156L132.719 278.638L138.326 289.382L144.1 300.37L150.024 311.585L156.082 323.009L265.435 528.556L271.535 539.991L277.539 551.202L283.439 562.164L289.23 572.855L294.908 583.251L300.467 593.331L305.906 603.072L311.221 612.454L316.409 621.455L321.471 630.056L326.405 638.237L331.211 645.98L335.89 653.269L340.444 660.085L344.874 666.413L349.182 672.239L353.372 677.549L357.448 682.329L361.412 686.569L365.27 690.259L369.027 693.388L372.688 695.949L376.258 697.934L379.743 699.338L383.15 700.157L386.485 700.388L389.755 700.027L392.966 699.076L396.125 697.533L399.24 695.402L402.317 692.685L405.363 689.387L408.386 685.513L411.391 681.071L414.387 676.068L417.378 670.514L420.372 664.419L423.375 657.796L426.393 650.656L429.43 643.015L432.493 634.887L435.585 626.287L438.711 617.234L441.875 607.745L445.08 597.84L448.33 587.537L451.626 576.858L454.97 565.824L458.363 554.456L461.806 542.779L465.3 530.814L468.843 518.587L472.434 506.121L536.636 282.346L540.18 269.925L543.636 257.738L546.992 245.805L550.235 234.147L553.352 222.783L556.332 211.733L559.162 201.013L561.828 190.641L564.318 180.633L566.619 171.004L568.717 161.768L570.601 152.937L572.257 144.525L573.673 136.541L574.837 128.996L575.737 121.899L576.361 115.256L576.698 109.074L576.737 103.359L576.468 98.1149L575.88 93.3446L574.965 89.0502L573.713 85.2326L572.117 81.8916L570.169 79.0258L567.863 76.633L565.192 74.7096L562.151 73.2514L558.736 72.2529L554.944 71.7077L550.771 71.6086L546.215 71.9474L541.277 72.7149L535.956 73.9013L530.252 75.4959L524.169 77.4874L517.709 79.8636L510.876 82.6118L503.675 85.7185L496.112 89.1699L488.193 92.9514L479.928 97.0481L471.324 101.445L462.392 106.126L453.143 111.075L443.589 116.276L433.742 121.712L423.616 127.368L413.225 133.225L402.587 139.268L391.716 145.479L380.629 151.842L369.346 158.341L167.643 274.732L156.501 281.186L145.589 287.533L134.931 293.765L124.548 299.877L114.464 305.863L104.701 311.719L95.2808 317.44L86.2232 323.024L77.5491 328.469L69.2782 333.771L61.4291 338.932L54.0201 343.949L47.0683 348.824L40.5903 353.557L34.6012 358.151L29.1158 362.606L24.1472 366.926L19.708 371.115L15.8096 375.175L12.462 379.112L9.67439 382.929L7.4545 386.633L5.80909 390.228L4.74371 393.721L4.26233 397.117L4.36816 400.423L5.06269 403.646L6.34665 406.793L8.21893 409.869L10.6775 412.883L13.7191 415.842L17.339 418.752L21.5311 421.622L26.2886 424.457L31.6028 427.264L37.4644 430.052L43.8624 432.826L50.7849 435.592L58.2189 438.357L66.15 441.126L74.5632 443.906L83.4421 446.7L92.7694 449.515L102.527 452.353L112.695 455.22L123.255 458.118L134.184 461.051L145.463 464.019L157.067 467.027L168.975 470.073L181.163 473.16L193.606 476.287L432.241 535.751L444.699 538.83L456.912 541.823L468.86 544.721L480.521 547.512L491.877 550.184L502.908 552.724L513.596 555.121L523.924 557.363L533.876 559.436L543.438 561.329L552.594 563.029L561.332 564.525L569.639 565.803L577.506 566.852L584.922 567.66L591.878 568.215L598.367 568.506L604.383 568.523L609.92 568.255L614.973 567.691L619.541 566.823L623.621 565.641L627.212 564.136L630.315 562.301L632.931 560.129L635.063 557.612L636.713 554.746L637.888 551.525L638.592 547.944L638.833 544.001L638.617 539.693L637.953 535.017L636.85 529.974L635.319 524.563L633.371 518.786L631.017 512.643L628.27 506.139L625.143 499.276L621.65 492.061L617.805 484.498L613.623 476.594L609.12 468.358L604.311 459.798L599.212 450.924L593.84 441.747L588.212 432.278L582.345 422.529L576.255 412.515L569.961 402.249L563.479 391.747L556.827 381.026L550.022 370.101L426.604 172.695L419.693 161.661L412.892 150.839L406.21 140.252L399.654 129.922L393.23 119.873L386.945 110.125L380.803 100.702L374.808 91.6233L368.965 82.9103L363.276 74.5828L357.744 66.6601L352.369 59.1608L347.152 52.1024L342.094 45.5021L337.194 39.3758L332.45 33.7386L327.861 28.6048L323.424 23.9873L319.136 19.8985L314.993 16.3491L310.992 13.3493L307.128 10.9077L303.396 9.03202L299.79 7.72857L296.304 7.00255L292.934 6.85799L289.671 7.29755L286.509 8.32272L283.443 9.93374L280.463 12.1295L277.564 14.9077L274.738 18.2647L271.978 22.1956L269.276 26.6943L266.625 31.7536L264.019 37.3647L261.449 43.5179L258.909 50.2022L256.393 57.4055L253.893 65.1145L251.403 73.3148L248.919 81.991L246.433 91.1266L243.941 100.704L241.439 110.705L238.921 121.11L236.384 131.899L233.824 143.052L231.239 154.545L228.626 166.357L225.984 178.465L223.311 190.845L220.607 203.472L172.177 431.177L169.491 443.871L166.875 456.332L164.338 468.538L161.893 480.467L159.548 492.098L157.316 503.413L155.209 514.392L153.237 525.017L151.413 535.27L149.748 545.136L148.254 554.6L146.943 563.648L145.826 572.266L144.917 580.442L144.225 588.166L143.763 595.427L143.542 602.217L143.572 608.529L143.864 614.357L144.429 619.694L145.275 624.537L146.413 628.883L147.851 632.73L149.597 636.078L151.659 638.927L154.044 641.278L156.759 643.135L159.808 644.501L163.198 645.381L166.932 645.781L171.014 645.707L175.445 645.168L180.229 644.172L185.365 642.729L190.854 640.849L196.695 638.544L202.886 635.826L209.423 632.707L216.304 629.201L223.523 625.323L231.075 621.086L238.953 616.508L247.15 611.602L255.657 606.385L264.464 600.875L273.56 595.088L282.936 589.041L292.577 582.752L302.471 576.238L312.604 569.518L322.961 562.609L333.526 555.529L344.283 548.295L537.39 418.117L548.107 410.872L558.607 403.748L568.869 396.754L578.869 389.897L588.586 383.185L597.997 376.624L607.081 370.22L615.818 363.976L624.187 357.898L632.168 351.989L639.744 346.25L646.895 340.685L653.604 335.293L659.854 330.075L665.63 325.032L670.917 320.162L675.701 315.462L679.969 310.932L683.71 306.569L686.912 302.368L689.566 298.325L691.664 294.438L693.198 290.7L694.162 287.106L694.551 283.65L694.361 280.327L693.591 277.13L692.237 274.052L690.302 271.086L687.785 268.225L684.69 265.462L681.021 262.789L676.781 260.2L671.979 257.685L666.621 255.239L660.715 252.853L654.273 250.52L647.306 248.232L639.824 245.984L631.843 243.767L623.377 241.575L614.441 239.403L605.051 237.243L595.227 235.091L584.985 232.94L574.346 230.787L563.331 228.626L551.959 226.454L540.254 224.267L528.237 222.063L515.933 219.839L503.364 217.593L490.556 215.323L261.177 174.905L248.475 172.687L236.017 170.534L223.826 168.456L211.922 166.462L200.326 164.563L189.059 162.769L178.139 161.092L167.585 159.542L157.413 158.131L147.639 156.87L138.28 155.769L129.349 154.841L120.858 154.097L112.821 153.548L105.248 153.206L98.1492 153.08L91.5324 153.182L85.4056 153.523L79.7748 154.112L74.6453 154.96L70.0212 156.076L65.9051 157.468L62.2988 159.146L59.2027 161.118L56.6162 163.39L54.5374 165.97L52.9637 168.864L51.8908 172.078L51.3138 175.616L51.2267 179.483L51.6223 183.681L52.4924 188.214L53.8282 193.083L55.6196 198.289L57.8558 203.832L60.5251 209.71L63.6151 215.923L67.1127 222.468L71.0036 229.34L75.2737 236.536L79.9075 244.049L84.8894 251.874L90.2031 260.002L95.8319 268.426L101.759 277.136L107.966 286.122L114.436 295.372L121.151 304.876L128.092 314.619L135.241 324.588L142.58 334.769L150.091 345.146L294.648 544.002L302.22 554.377L309.66 564.532L316.958 574.444L324.106 584.092L331.098 593.453L337.925 602.506L344.582 611.231L351.064 619.607L357.367 627.614L363.486 635.232L369.418 642.444L375.163 649.232L380.717 655.578L386.081 661.466L391.255 666.88L396.239 671.807L401.035 676.233L405.645 680.144L410.071 683.531L414.316 686.381L418.385 688.686L422.282 690.438L426.012 691.63L429.579 692.255L432.991 692.309L436.252 691.789L439.369 690.692L442.35 689.017L445.2 686.764L447.928 683.936L450.541 680.534L453.046 676.564L455.451 672.029L457.764 666.937L459.993 661.295L462.145 655.113L464.228 648.4L466.25 641.168L468.219 633.43L470.14 625.198L472.022 616.488L473.871 607.316L475.694 597.698L477.497 587.652L479.285 577.197L481.065 566.352L482.84 555.139L484.615 543.577L486.396 531.69L488.184 519.501L489.983 507.031L491.796 494.307L524.215 263.809L526.02 250.903L527.774 238.228L529.469 225.807L531.095 213.663L532.643 201.818L534.104 190.291L535.466 179.104L536.721 168.274L537.856 157.821L538.863 147.76L539.73 138.109L540.446 128.883L541.001 120.095L541.383 111.76L541.581 103.887L541.586 96.49L541.386 89.5769L540.972 83.1566L540.332 77.2365L539.457 71.8229L538.338 66.9207L536.965 62.5339L535.33 58.6651L533.424 55.3159L531.24 52.4864L528.769 50.1761L526.007 48.3828L522.946 47.1035L519.58 46.334L515.906 46.069L511.919 46.3023L507.616 47.0263L502.995 48.2329L498.053 49.9127L492.79 52.0554L487.205 54.6498L481.3 57.684L475.076 61.1452L468.536 65.0198L461.684 69.2935L454.523 73.9513L447.059 78.9778L439.298 84.3566L431.249 90.0711L422.917 96.1042L414.314 102.438L405.448 109.055L396.331 115.937L386.974 123.066L377.39 130.422L367.592 137.986L357.595 145.741L347.414 153.666L163.867 296.982L153.633 304.989L143.601 312.863L133.792 320.594L124.229 328.171L114.934 335.586L105.928 342.831L97.231 349.9L88.8645 356.784L80.8485 363.479L73.2023 369.981L65.9448 376.284L59.0943 382.386L52.6681 388.284L46.6832 393.977L41.1552 399.463L36.0995 404.742L31.5302 409.815L27.4602 414.683L23.9022 419.348L20.8671 423.812L18.3652 428.079L16.4056 432.152L14.9961 436.035L14.1437 439.733L13.8539 443.252L14.1312 446.597L14.9787 449.774L16.3987 452.79L18.3917 455.652L20.9573 458.366L24.0938 460.941L27.7982 463.383L32.0664 465.701L36.8925 467.903L42.2705 469.996L48.1918 471.988L54.6476 473.889L61.6273 475.705L69.1197 477.444L77.1119 479.115L85.5903 480.725L94.5397 482.282L103.944 483.793L113.788 485.264L124.051 486.702L134.716 488.114L145.762 489.506L157.17 490.883L168.917 492.25L180.982 493.612L193.341 494.973L205.971 496.336L218.847 497.705L450.501 522.039L463.386 523.376L476.029 524.668L488.406 525.906L500.496 527.083L512.277 528.188L523.729 529.213L534.831 530.149L545.564 530.986L555.91 531.714L565.852 532.323L575.374 532.802L584.461 533.142L593.098 533.332L601.273 533.361L608.973 533.22L616.188 532.898L622.907 532.384L629.124 531.67L634.83 530.744L640.019 529.598L644.687 528.222L648.829 526.608L652.443 524.746L655.528 522.63L658.083 520.25L660.11 517.6L661.61 514.674L662.588 511.466L663.046 507.97L662.992 504.181L662.431 500.096L661.372 495.711L659.822 491.023L657.791 486.032L655.291 480.736L652.331 475.134L648.926 469.229L645.087 463.02L640.83 456.511L636.168 449.705L631.117 442.607L625.692 435.22L619.912 427.552L613.792 419.61L607.35 411.4L600.604 402.933L593.574 394.217L586.276 385.263L578.731 376.083L570.958 366.688L562.976 357.092L554.805 347.309L546.463 337.354L396.741 159.028L388.428 149.157L380.259 139.49L372.246 130.05L364.398 120.858L356.725 111.936L349.235 103.304L341.936 94.9828L334.834 86.9926L327.936 79.3531L321.247 72.0831L314.771 65.2014L308.511 58.7256L302.471 52.673L296.653 47.0598L291.058 41.9017L285.685 37.2134L280.536 33.0087L275.609 29.3005L270.902 26.1008L266.413 23.4204L262.14 21.2692L258.077 19.656L254.222 18.5885L250.569 18.0732L247.113 18.1154L243.849 18.7194L240.77 19.8882L237.87 21.6235L235.141 23.9259L232.577 26.7947L230.169 30.2279L227.911 34.2225L225.794 38.7739L223.81 43.8766L221.95 49.5236L220.206 55.7068L218.571 62.417L217.035 69.6436L215.59 77.375L214.228 85.5983L212.94 94.2998L211.72 103.464L210.559 113.076L209.45 123.117L208.386 133.57L207.359 144.416L206.364 155.635L205.394 167.207L204.444 179.108L203.508 191.319L202.582 203.815L201.661 216.572L200.741 229.568L184.501 461.768L183.626 474.596L182.791 487.172L182.003 499.472L181.271 511.475L180.601 523.159L180.003 534.504L179.486 545.488L179.058 556.095L178.73 566.304L178.51 576.099L178.408 585.463L178.434 594.383L178.598 602.843L178.911 610.831L179.381 618.335L180.019 625.344L180.834 631.849L181.837 637.841L183.036 643.312L184.441 648.258L186.061 652.673L187.905 656.554L189.98 659.898L192.295 662.705L194.856 664.973L197.672 666.705L200.749 667.902L204.091 668.568L207.705 668.709L211.596 668.328L215.767 667.435L220.221 666.035L224.961 664.139L229.989 661.756L235.305 658.897L240.911 655.574L246.806 651.799L252.987 647.586L259.453 642.95L266.201 637.905L273.226 632.467L280.524 626.653L288.09 620.479L295.915 613.963L303.993 607.124L312.315 599.979L320.871 592.548L329.653 584.849L338.648 576.902L347.845 568.727L357.231 560.344L366.792 551.773L549.56 387.301L559.069 378.708L568.37 370.271L577.442 362.002L586.263 353.91L594.814 346.006L603.073 338.298L611.02 330.794L618.636 323.502L625.902 316.427L632.798 309.576L639.306 302.953L645.41 296.562L651.092 290.407L656.337 284.488L661.129 278.809L665.453 273.369L669.297 268.168L672.647 263.207L675.493 258.482L677.822 253.993L679.627 249.735L680.898 245.706L681.628 241.901L681.811 238.316L681.441 234.946L680.515 231.784L679.029 228.824L676.983 226.06L674.376 223.484L671.209 221.09L667.483 218.869L663.203 216.814L658.373 214.916L652.999 213.167L647.087 211.558L640.647 210.08L633.687 208.725L626.218 207.485L618.252 206.35L609.803 205.312L600.883 204.362L591.508 203.492L581.694 202.693L571.459 201.959L560.821 201.281L549.798 200.651L538.411 200.064L526.68 199.511L514.628 198.987L502.276 198.487L489.648 198.004L476.767 197.533L243.994 189.405L230.989 188.963L218.223 188.548L205.72 188.166L193.501 187.824L181.59 187.53L170.009 187.29L158.777 187.113L147.915 187.008L137.442 186.981L127.376 187.043L117.734 187.203L108.532 187.469L99.7855 187.851L91.5082 188.358L83.713 189L76.4117 189.787L69.6149 190.727L63.3321 191.831L57.5715 193.107L52.3403 194.565L47.6442 196.213L43.4879 198.061L39.8749 200.116L36.8073 202.387L34.2863 204.881L32.3115 207.606L30.8816 210.569L29.9939 213.775L29.6449 217.231L29.8295 220.941L30.5418 224.911L31.7748 229.145L33.5201 233.645L35.7685 238.414L38.5099 243.454L41.7329 248.767L45.4256 254.352L49.5749 260.209L54.1669 266.337L59.1869 272.734L64.6195 279.396L70.4485 286.321L76.6571 293.503L83.2279 300.937L90.143 308.617L97.3837 316.534L104.931 324.682L112.766 333.051L120.869 341.631L129.219 350.412L137.797 359.382L146.583 368.529L155.555 377.84L317.36 545.299L326.38 554.613L335.244 563.738L343.941 572.652L352.458 581.336L360.785 589.769L368.912 597.929L376.829 605.798L384.527 613.356L392 620.582L399.24 627.459L406.242 633.969L413 640.092L419.511 645.814L425.77 651.116L431.777 655.983L437.528 660.402L443.023 664.356L448.261 667.834L453.244 670.824L457.973 673.312L462.45 675.291L466.678 676.75L470.66 677.68L474.4 678.076L477.903 677.93L481.175 677.239L484.221 675.998L487.047 674.204L489.661 671.857L492.07 668.956L494.28 665.503L496.301 661.499L498.14 656.949L499.806 651.856L501.307 646.228L502.653 640.07L503.852 633.393L504.913 626.204L505.846 618.515L506.659 610.338L507.362 601.686L507.964 592.573L508.473 583.014L508.899 573.026L509.249 562.625L509.531 551.831L509.755 540.661L509.927 529.137L510.054 517.279L510.144 505.108L510.203 492.648L510.236 479.921L510.251 466.951L510.249 234.157L510.231 221.239L510.192 208.569L510.127 196.171L510.029 184.068L509.893 172.282L509.71 160.835L509.474 149.747L509.177 139.038L508.811 128.727L508.368 118.833L507.839 109.372L507.215 100.36L506.488 91.812L505.649 83.7423L504.689 76.1636L503.598 69.0875L502.367 62.5244L500.988 56.4838L499.45 50.9737L497.747 46.001L495.868 41.5716L493.806 37.6898L491.552 34.3589L489.099 31.5811L486.439 29.3569L483.564 27.6862L480.468 26.5673L477.146 25.9974L473.59 25.9725L469.797 26.4875L465.76 27.5361L461.478 29.111L456.945 31.2037L452.16 33.8047L447.12 36.9034L441.825 40.4884L436.273 44.5471L430.465 49.0664L424.402 54.0318L418.087 59.4284L411.521 65.2404L404.708 71.4513L397.653 78.0437L390.36 85L382.837 92.3018L375.089 99.93L367.125 107.865L358.954 116.088L350.583 124.578L342.025 133.315L333.29 142.278L324.39 151.447L315.337 160.8L153.548 328.248L144.615 337.524L135.874 346.633L127.345 355.562L119.048 364.299L111.003 372.833L103.23 381.154L95.7488 389.251L88.5787 397.117L81.7386 404.742L75.2466 412.121L69.1209 419.246L63.3785 426.113L58.0361 432.717L53.1098 439.054L48.6149 445.122L44.5658 450.919L40.9763 456.444L37.8592 461.696L35.2263 466.676L33.0887 471.385L31.4565 475.826L30.3384 480L29.7427 483.912L29.6761 487.566L30.1443 490.966L31.1521 494.117L32.7028 497.027L34.7988 499.7L37.4413 502.144L40.63 504.366L44.364 506.375L48.6404 508.177L53.4557 509.783L58.8051 511.199L64.6823 512.436L71.0799 513.503L77.9896 514.408L85.4015 515.162L93.3049 515.773L101.688 516.252L110.537 516.607L119.837 516.849L129.575 516.986L139.733 517.027L150.294 516.983L161.24 516.86L172.551 516.669L184.207 516.417L196.188 516.111L208.472 515.76L221.036 515.37L233.857 514.948L479.647 506.37L492.474 505.898L505.043 505.411L517.33 504.906L529.313 504.376L540.969 503.816L552.277 503.22L563.217 502.58L573.767 501.89L583.91 501.142L593.628 500.329L602.903 499.442L611.72 498.473L620.063 497.414L627.92 496.256L635.277 494.991L642.122 493.61L648.446 492.104L654.239 490.465L659.493 488.683L664.201 486.751L668.359 484.659L671.96 482.401L675.003 479.967L677.486 477.35L679.408 474.543L680.769 471.539L681.571 468.331L681.818 464.914L681.513 461.28L680.662 457.426L679.272 453.347L677.35 449.038L674.905 444.496L671.946 439.719L668.486 434.705L664.534 429.451L660.105 423.958L655.211 418.225L649.868 412.254L644.091 406.046L637.896 399.603L631.299 392.929L624.32 386.028L616.975 378.905L609.284 371.565L601.265 364.015L592.94 356.263L584.327 348.316L575.448 340.184L566.324 331.877L556.975 323.404L547.422 314.779L374.343 159.02L364.655 150.316L355.131 141.785L345.786 133.446L336.633 125.32L327.684 117.427L318.952 109.786L310.446 102.416L302.177 95.3376L294.155 88.5684L286.387 82.1272L278.881 76.0317L271.643 70.2996L264.679 64.9476L257.993 59.992L251.59 55.4485L245.472 51.3319L239.642 47.6563L234.1 44.4351L228.847 41.6808L223.883 39.4049L219.207 37.6182L214.816 36.3303L210.708 35.55L206.879 35.2848L203.326 35.5414L200.043 36.3254L197.025 37.641L194.266 39.4916L191.76 41.8793L189.499 44.805L187.475 48.2684L185.682 52.2681L184.111 56.8014L182.752 61.8646L181.598 67.4524L180.637 73.5588L179.862 80.1761L179.262 87.2958L178.828 94.9081L178.55 103.002L178.417 111.565L178.42 120.585L178.549 130.047L178.794 139.935L179.145 150.234L179.593 160.926L180.129 171.992L180.744 183.414L181.428 195.17L182.174 207.241L182.973 219.605L183.817 232.239L184.7 245.12L200.946 477.345L201.865 490.289L202.787 502.991L203.715 515.425L204.653 527.569L205.608 539.399L206.583 550.894L207.584 562.032L208.619 572.793L209.692 583.156L210.812 593.104L211.986 602.617L213.22 611.68L214.523 620.277L215.903 628.392L217.367 636.012L218.925 643.125L220.584 649.719L222.353 655.784L224.239 661.311L226.252 666.292L228.4 670.72L230.691 674.59L233.132 677.898L235.732 680.642L238.499 682.818L241.438 684.428L244.557 685.471L247.864 685.95L251.363 685.868L255.06 685.229L258.961 684.04L263.07 682.307L267.391 680.037L271.928 677.241L276.684 673.927L281.66 670.107L286.859 665.794L292.281 661L297.926 655.74L303.793 650.028L309.882 643.88L316.19 637.312L322.714 630.343L329.45 622.989L336.394 615.27L343.54 607.205L350.882 598.813L358.413 590.114L366.126 581.13L374.011 571.882L382.06 562.389L390.262 552.675L398.605 542.761L548.329 364.429L556.634 354.51L564.766 344.768L572.703 335.215L580.427 325.867L587.919 316.736L595.158 307.834L602.127 299.173L608.807 290.762L615.179 282.611L621.225 274.728L626.928 267.122L632.271 259.799L637.237 252.765L641.811 246.025L645.976 239.582L649.72 233.441L653.027 227.603L655.886 222.069L658.283 216.841L660.208 211.917L661.65 207.297L662.599 202.979L663.048 198.96L662.989 195.236L662.416 191.804L661.322 188.659L659.705 185.795L657.561 183.206L654.888 180.885L651.686 178.826L647.955 177.02L643.696 175.459L638.912 174.135L633.608 173.039L627.788 172.161L621.459 171.492L614.628 171.022L607.305 170.741L599.498 170.638L591.22 170.704L582.482 170.928L573.297 171.3L563.681 171.809L553.647 172.445L543.213 173.198L532.397 174.058L521.216 175.014L509.689 176.058L497.838 177.18L485.682 178.371L473.244 179.622L460.545 180.924L447.61 182.271L215.968 206.607L203.144 207.975L190.572 209.337L178.277 210.698L166.281 212.06L154.607 213.429L143.278 214.809L132.314 216.204L121.737 217.622L111.565 219.067L101.818 220.546L92.5127 222.067L83.6664 223.634L75.2949 225.257L67.4125 226.943L60.0329 228.699L53.1684 230.533L46.8306 232.453L41.0291 234.467L35.7731 236.584L31.0702 238.811L26.9268 241.156L23.3482 243.627L20.3383 246.232L17.8997 248.978L16.034 251.873L14.7412 254.925L14.0205 258.138L13.8693 261.521L14.2845 265.079L15.2612 268.818L16.7934 272.743L18.8742 276.859L21.4953 281.169L24.6474 285.677L28.32 290.387L32.5019 295.301L37.1805 300.42L42.3424 305.745L47.9731 311.277L54.0574 317.015L60.5794 322.959L67.5218 329.106L74.8671 335.453L82.5971 341.998L90.6926 348.736L99.1341 355.662L107.901 362.77L116.974 370.053L126.33 377.505L135.95 385.117L145.81 392.88L155.889 400.785L349.689 552.115L359.831 560.004L369.786 567.718L379.537 575.238L389.072 582.545L398.377 589.62L407.439 596.445L416.247 603L424.791 609.269L433.061 615.233L441.047 620.875L448.742 626.177L456.139 631.123L463.232 635.697L470.015 639.883L476.485 643.667L482.639 647.034L488.473 649.972L493.986 652.467L499.178 654.508L504.049 656.083L508.599 657.184L512.832 657.8L516.749 657.923L520.354 657.546L523.651 656.664L526.646 655.271L529.343 653.363L531.749 650.938L533.871 647.993L535.716 644.528L537.292 640.544L538.608 636.043L539.672 631.026L540.494 625.5L541.083 619.468L541.449 612.938L541.602 605.916L541.554 598.413L541.313 590.437L540.892 581.999L540.301 573.113L539.55 563.791L538.651 554.048L537.615 543.899L536.452 533.36L535.172 522.45L533.787 511.185L532.307 499.586L530.74 487.672L529.098 475.465L527.39 462.986L525.623 450.258L493.217 219.761L491.392 206.854L489.582 194.184L487.786 181.775L486 169.651L484.221 157.834L482.446 146.348L480.67 135.215L478.889 124.455L477.098 114.089L475.291 104.136L473.463 94.6158L471.607 85.5447L469.717 76.9397L467.786 68.8164L465.806 61.1892L463.771 54.0714L461.673 47.4755L459.505 41.4124L457.258 35.892L454.925 30.9231L452.498 26.5131L449.97 22.6683L447.332 19.3937L444.578 16.6931L441.699 14.5688L438.689 13.0222L435.54 12.0533L432.246 11.6607L428.801 11.8419L425.198 12.5933L421.432 13.9098L417.497 15.7852L413.389 18.2123L409.103 21.1827L404.637 24.6866L399.986 28.7134L395.149 33.2513L390.123 38.2877L384.907 43.8087L379.5 49.7997L373.904 56.245L368.117 63.1282L362.143 70.4321L355.983 78.1386L349.64 86.229L343.119 94.684L336.424 103.484L329.559 112.607L322.533 122.034L315.35 131.742L308.02 141.71L300.55 151.916L292.95 162.337L156.04 350.663L148.409 361.181L140.935 371.516L133.637 381.651L126.532 391.572L119.639 401.263L112.977 410.711L106.564 419.904L100.418 428.83L94.5558 437.477L88.9954 445.836L83.754 453.898L78.8481 461.654L74.2936 469.097L70.1064 476.221L66.3015 483.021L62.8934 489.492L59.8956 495.631L57.3214 501.435L55.183 506.903L53.4919 512.034L52.2586 516.829L51.4932 521.287L51.2041 525.412L51.3994 529.205L52.086 532.671L53.2697 535.813L54.9553 538.637L57.1466 541.148L59.8461 543.353L63.0555 545.259L66.7751 546.873L71.0042 548.203L75.7408 549.258L80.9819 550.048L86.7233 550.581L92.9596 550.868L99.6842 550.919L106.889 550.744L114.566 550.355L122.705 549.761L131.294 548.975L140.322 548.008L149.774 546.871L159.637 545.575L169.896 544.132L180.533 542.553L191.532 540.849L202.873 539.031L214.539 537.11L226.509 535.097L238.761 533.001L251.275 530.833L264.028 528.602L493.419 488.178L506.176 485.914L518.688 483.673L530.931 481.453L542.88 479.253L554.514 477.07L565.808 474.901L576.742 472.742L587.294 470.59L597.445 468.439L607.174 466.285L616.465 464.123L625.298 461.947L633.658 459.75L641.529 457.527L648.898 455.271L655.75 452.974L662.073 450.63L667.858 448.231L673.093 445.77L677.772 443.239L681.885 440.632L685.427 437.94L688.394 435.156L690.782 432.272L692.588 429.282L693.812 426.178L694.454 422.954L694.515 419.602L693.997 416.116L692.907 412.49L691.247 408.719L689.025 404.798L686.248 400.721L682.925 396.484L679.067 392.084L674.683 387.516L669.786 382.779L664.389 377.87L658.506 372.788L652.153 367.532L645.344 362.102L638.098 356.498L630.431 350.721L622.361 344.774L613.909 338.659L605.093 332.379L595.935 325.94L586.454 319.345L576.673 312.6L566.612 305.712L556.296 298.688L545.745 291.537L534.983 284.266L341.879 154.093L331.163 146.893L320.643 139.849L310.334 132.98L300.253 126.304L290.414 119.839L280.83 113.602L271.516 107.611L262.483 101.884L253.742 96.4377L245.303 91.2889L237.176 86.4543L229.37 81.9501L221.891 77.792L214.747 73.9952L207.942 70.5742L201.481 67.5432L195.368 64.9155L189.605 62.7037L184.194 60.92L179.136 59.5752L174.431 58.6798L170.077 58.2433L166.073 58.2741L162.416 58.7799L159.102 59.7673L156.127 61.2419L153.486 63.2083L151.174 65.67L149.182 68.6296L147.505 72.0882L146.135 76.0463L145.062 80.5029L144.28 85.456L143.776 90.9024L143.543 96.8377L143.57 103.257L143.846 110.152L144.359 117.517L145.1 125.342L146.057 133.617L147.217 142.332L148.57 151.473L150.103 161.027L151.804 170.981L153.663 181.318L155.666 192.023L157.802 203.078L160.059 214.465L162.427 226.164L164.894 238.157L167.449 250.421L170.082 262.935L172.781 275.678L221.21 503.359L223.907 515.933L226.573 528.255L229.209 540.299L231.815 552.043L234.394 563.462L236.949 574.536L239.481 585.241L241.995 595.558L244.495 605.467L246.985 614.948L249.47 623.983L251.955 632.555L254.447 640.647L256.95 648.245L259.471 655.335L262.017 661.902L264.594 667.936L267.21 673.425L269.871 678.361L272.586 682.734L275.36 686.538L278.201 689.767L281.117 692.416L284.116 694.482L287.203 695.963L290.386 696.858L293.672 697.168L297.068 696.894L300.58 696.039L304.213 694.608L307.974 692.606L311.869 690.04L315.901 686.917L320.075 683.247L324.396 679.04L328.866 674.307L333.49 669.06L338.268 663.313L343.203 657.08L348.297 650.377L353.549 643.219L358.959 635.624L364.526 627.61L370.25 619.195L376.126 610.399L382.154 601.242L388.328 591.745L394.645 581.928L401.099 571.815L407.683 561.426L414.392 550.785L421.218 539.914L551.545 331.464L558.318 320.583L564.933 309.908L571.375 299.458L577.625 289.247L583.667 279.29L589.483 269.603L595.056 260.197L600.368 251.086L605.404 242.281L610.147 233.792L614.58 225.629L618.688 217.801L622.456 210.314L625.869 203.177L628.913 196.393L631.574 189.969L633.839 183.907L635.695 178.211L637.132 172.882L638.138 167.92L638.703 163.326L638.819 159.099L638.476 155.237L637.668 151.737L636.388 148.595L634.631 145.806L632.392 143.367L629.668 141.27L626.457 139.509L622.757 138.077L618.569 136.965L613.893 136.165L608.732 135.668L603.088 135.463L596.967 135.542L590.374 135.893L583.315 136.506L575.798 137.368L567.832 138.469L559.428 139.796L550.596 141.338L541.349 143.082L531.7 145.017L521.663 147.128L511.253 149.405L500.487 151.835L489.383 154.406L477.958 157.105L466.231 159.92L454.222 162.841L441.953 165.854L429.444 168.95L203.448 225.26L190.822 228.418L178.434 231.536L166.306 234.614L154.464 237.652L142.929 240.65L131.727 243.611L120.877 246.535L110.403 249.426L100.324 252.286L90.6606 255.119L81.4313 257.929L72.6543 260.72L64.3468 263.497L56.5248 266.265L49.2032 269.029L42.3961 271.797L36.1162 274.573L30.3753 277.364L25.1838 280.178L20.5512 283.02L16.4855 285.897L12.9936 288.818L10.0811 291.788L7.75251 294.816L6.01071 297.907L4.85757 301.07L4.29382 304.31L4.3186 307.636L4.92991 311.053L6.12457 314.568L7.89807 318.187L10.2445 321.915L13.1573 325.759L16.628 329.723L20.6474 333.811L25.2051 338.029L30.2894 342.379L35.888 346.864L41.987 351.489L48.5716 356.253L55.6263 361.16L63.1345 366.209L71.0789 371.401L79.4411 376.735L88.202 382.211L97.3418 387.826L106.84 393.577L116.676 399.462L126.828 405.477L137.274 411.616L147.991 417.874L158.956 424.245L170.146 430.722L371.867 547.121L383.109 553.59L394.149 559.921L404.97 566.096L415.555 572.099L425.887 577.913L435.953 583.522L445.736 588.907L455.224 594.054L464.403 598.945L473.263 603.564L481.793 607.895L489.982 611.923L497.822 615.633L505.305 619.009L512.425 622.037L519.176 624.704L525.553 626.996L531.552 628.9L537.17 630.405L542.407 631.499L547.26 632.172L551.73 632.415L555.818 632.217L559.527 631.572L562.859 630.472L565.817 628.911L568.406 626.884L570.633 624.386L572.502 621.415L574.021 617.968L575.197 614.045L576.038 609.645L576.555 604.769L576.755 599.42L576.649 593.601L576.247 587.316L575.561 580.572L574.601 573.374L573.38 565.731L571.91 557.651L570.202 549.145L568.269 540.224L566.125 530.899L563.781 521.184L561.251 511.094L558.547 500.644L555.683 489.849L552.672 478.727L549.525 467.296L546.256 455.576L542.877 443.585L539.4 431.344L535.838 418.875L471.633 195.099L468.052 182.684L464.52 170.513L461.038 158.61L457.605 146.999L454.223 135.704L450.89 124.747L447.604 114.149L444.365 103.933L441.169 94.1182L438.014 84.7246L434.895 75.7708L431.81 67.2747L428.754 59.2531L425.721 51.7219L422.708 44.6959L419.707 38.1888L416.714 32.2133L413.722 26.7808L410.725 21.9016L407.716 17.5847L404.689 13.8382L401.636 10.6687L398.552 8.08147L395.428 6.08074L392.257 4.66938L389.034 3.84899L385.75 3.61985L382.4 3.98102L378.976 4.93025L375.472 6.46409L371.883 8.57779L368.201 11.2653L364.423 14.5196L360.541 18.332L356.552 22.6933L352.452 27.5925L348.236 33.0178L343.901 38.9565L339.444 45.3945L334.862 52.3168L330.155 59.7074L325.32 67.5497L320.358 75.8258L315.268 84.5172L310.051 93.6045L304.709 103.068L299.243 112.886L293.657 123.038L287.954 133.501L282.138 144.255L276.215 155.274L270.189 166.537L264.068 178.019L154.726 383.552L148.696 394.931L142.805 406.097L137.066 417.032L131.498 427.72L126.117 438.142L120.938 448.285L115.977 458.133L111.252 467.672L106.777 476.89L102.568 485.775L98.6418 494.316L95.0125 502.502L91.695 510.326L88.7038 517.779L86.0527 524.854L83.7555 531.546L81.8247 537.85L80.2726 543.761L79.111 549.278L78.3507 554.398L78.0018 559.12L78.0739 563.445L78.5755 567.374L79.5144 570.909L80.8974 574.052L82.7305 576.808L85.0186 579.182L87.7657 581.178L90.9748 582.803L94.648 584.065L98.7863 584.971L103.389 585.529L108.456 585.749L113.984 585.641L119.969 585.214L126.409 584.48L133.296 583.45L140.624 582.136L148.385 580.549L156.57 578.703L165.17 576.609L174.173 574.282L183.567 571.733L193.339 568.977L203.475 566.027L213.959 562.896L224.776 559.598L235.908 556.145L247.337 552.553L259.045 548.832L271.012 544.998L283.218 541.061L517.121 465.106L529.323 461.118L541.274 457.187L552.949 453.315L564.325 449.505L575.379 445.755L586.088 442.066L596.431 438.437L606.387 434.866L615.935 431.353L625.057 427.893L633.733 424.485L641.946 421.124L649.679 417.807L656.918 414.53L663.646 411.287L669.851 408.073L675.521 404.883L680.643 401.711L685.208 398.551L689.207 395.396L692.633 392.241L695.478 389.078L697.738 385.9L699.41 382.701L700.489 379.474L700.975 376.212L700.868 372.908L700.169 369.555L698.88 366.147L697.006 362.677L694.551 359.139L691.521 355.528L687.924 351.837L683.768 348.06L679.064 344.195L673.823 340.234L668.056 336.175L661.776 332.014L654.998 327.747L647.738 323.372L640.011 318.887L631.834 314.29L623.226 309.58L614.205 304.757L604.792 299.821L595.006 294.774L584.868 289.617L574.401 284.351L563.627 278.981L552.567 273.51L541.247 267.943L529.688 262.284L320.357 160.239L308.642 154.54L297.132 148.961L285.846 143.519L274.804 138.227L264.022 133.103L253.517 128.162L243.306 123.419L233.402 118.89L223.82 114.59L214.572 110.536L205.672 106.741L197.13 103.222L188.955 99.9926L181.158 97.0674L173.745 94.4603L166.725 92.1849L160.102 90.2541L153.883 88.6804L148.069 87.4758L142.666 86.6514L137.673 86.2179L133.093 86.1851L128.924 86.5622L125.166 87.3575L121.817 88.5786L118.873 90.2319L116.331 92.3232L114.185 94.8574L112.43 97.8383L111.059 101.269L110.066 105.15L109.441 109.484L109.177 114.27L109.264 119.506L109.691 125.191L110.449 131.321L111.525 137.891L112.909 144.895L114.588 152.328L116.55 160.18L118.781 168.444L121.269 177.109L124 186.165L126.96 195.599L130.136 205.398L133.514 215.548L137.079 226.035L140.818 236.841L144.716 247.951L148.761 259.346L152.937 271.008L157.232 282.917L161.632 295.053L241.295 513.806L245.749 525.998L250.139 537.957L254.461 549.657L258.713 561.075L262.894 572.187L267.002 582.972L271.038 593.406L275.001 603.469L278.892 613.14L282.713 622.398L286.465 631.224L290.152 639.601L293.776 647.511L297.341 654.937L300.851 661.864L304.31 668.278L307.724 674.165L311.097 679.514L314.435 684.313L317.745 688.552L321.031 692.223L324.3 695.319L327.56 697.832L330.815 699.759L334.075 701.096L337.344 701.84L340.63 701.989L343.94 701.545L347.281 700.509L350.658 698.883L354.079 696.671L357.551 693.879L361.078 690.513L364.667 686.581L368.324 682.092L372.053 677.055L375.86 671.483L379.749 665.387L383.724 658.78L387.788 651.678L391.944 644.096L396.195 636.05L400.543 627.558L404.989 618.638L409.534 609.31L414.178 599.592L418.92 589.507L423.76 579.074L428.695 568.317L433.723 557.257L438.841 545.918L444.045 534.324L449.33 522.498L544.07 309.828L549.32 298.003L554.451 286.395L559.447 275.024L564.296 263.907L568.981 253.063L573.487 242.509L577.799 232.259L581.903 222.33L585.782 212.736L589.423 203.49L592.81 194.604L595.929 186.088L598.766 177.955L601.307 170.211L603.538 162.866L605.446 155.927L607.019 149.399L608.244 143.288L609.11 137.597L609.607 132.33L609.723 127.487L609.449 123.07L608.776 119.078L607.697 115.511L606.204 112.365L604.29 109.639L601.95 107.327L599.18 105.424L595.975 103.925L592.333 102.824L588.253 102.111L583.733 101.78L578.775 101.822L573.378 102.225L567.546 102.981L561.282 104.077L554.591 105.504L547.478 107.248L539.951 109.296L532.015 111.637L523.682 114.257L514.96 117.142L505.86 120.278L496.395 123.651L486.577 127.246L476.42 131.05L465.939 135.048L455.15 139.225L444.07 143.567L432.716 148.058L421.107 152.686L409.263 157.435L397.202 162.292L181.244 249.498L169.292 254.346L157.58 259.12L146.133 263.816L134.974 268.431L124.127 272.963L113.613 277.412L103.456 281.774L93.6746 286.052L84.2912 290.244L75.325 294.352L66.7948 298.377L58.7188 302.322L51.1138 306.19L43.9964 309.982L37.3815 313.704L31.2832 317.358L25.7147 320.951L20.6876 324.486L16.213 327.969L12.3002 331.405L8.95807 334.801L6.19336 338.163L4.01205 341.496L2.41907 344.808L1.41782 348.105L1.01022 351.395" stroke="url(#paint0_linear_407_109)" stroke-width="2"/>
<defs>
<linearGradient id="paint0_linear_407_109" x1="113" y1="2.00001" x2="351" y2="702" gradientUnits="userSpaceOnUse">
<stop stop-color="#282848" stop-opacity="0"/>
<stop offset="1" stop-color="#2D2D55"/>
</linearGradient>
</defs>
</svg>
