<svg width="351" height="704" viewBox="0 0 351 704" fill="none" xmlns="http://www.w3.org/2000/svg">
<path d="M350 352.004L349.703 355.292L348.811 358.587L347.328 361.896L345.255 365.225L342.598 368.581L339.362 371.97L335.555 375.398L331.184 378.872L326.258 382.397L320.789 385.979L314.788 389.621L308.268 393.33L301.242 397.109L293.727 400.962L285.737 404.893L277.289 408.903L268.402 412.996L259.095 417.172L249.386 421.434L239.296 425.781L228.847 430.213L218.06 434.73L206.957 439.33L195.562 444.012L183.897 448.771L171.987 453.606L-56.0433 545.68L-67.9296 550.45L-79.5837 555.101L-90.9861 559.619L-102.118 563.99L-112.962 568.198L-123.501 572.23L-133.719 576.071L-143.602 579.707L-153.133 583.122L-162.302 586.303L-171.095 589.235L-179.501 591.905L-187.511 594.299L-195.115 596.403L-202.305 598.204L-209.075 599.69L-215.418 600.849L-221.33 601.668L-226.808 602.138L-231.848 602.247L-236.449 601.986L-240.611 601.345L-244.333 600.316L-247.619 598.891L-250.469 597.064L-252.889 594.828L-254.881 592.179L-256.452 589.111L-257.607 585.622L-258.355 581.709L-258.702 577.371L-258.657 572.607L-258.231 567.418L-257.432 561.805L-256.273 555.772L-254.763 549.321L-252.916 542.458L-250.744 535.187L-248.26 527.517L-245.477 519.455L-242.409 511.01L-239.07 502.192L-235.475 493.011L-231.639 483.48L-227.576 473.613L-223.301 463.422L-218.83 452.922L-214.177 442.13L-209.358 431.063L-204.387 419.737L-199.28 408.172L-194.052 396.386L-99.3179 183.725L-94.018 171.858L-88.7987 160.219L-83.6646 148.831L-78.6195 137.718L-73.667 126.903L-68.8095 116.408L-64.049 106.257L-59.3869 96.4696L-54.8237 87.0673L-50.3594 78.0702L-45.9934 69.4975L-41.7245 61.3677L-37.5507 53.6983L-33.4699 46.5061L-29.479 39.8068L-25.5746 33.615L-21.753 27.9445L-18.0096 22.8077L-14.3398 18.2161L-10.7384 14.18L-7.19996 10.7086L-3.71876 7.80972L-0.288696 5.49012L3.09657 3.75531L6.4434 2.60947L9.75851 2.05553L13.0486 2.09521L16.3206 2.72892L19.581 3.95572L22.837 5.77348L26.0952 8.17878L29.3623 11.1669L32.6448 14.7319L35.9493 18.8665L39.2817 23.5625L42.648 28.81L46.0537 34.5984L49.5043 40.9157L53.0045 47.7487L56.5591 55.0835L60.172 62.9047L63.847 71.1962L67.5871 79.9408L71.395 89.1203L75.2729 98.7158L79.2224 108.707L83.2442 119.075L87.339 129.796L91.5064 140.85L95.7455 152.213L100.055 163.862L104.432 175.775L108.875 187.925L188.542 406.682L192.96 418.858L197.275 430.811L201.475 442.52L205.545 453.966L209.471 465.13L213.241 475.994L216.84 486.541L220.253 496.755L223.467 506.62L226.469 516.122L229.243 525.249L231.777 533.988L234.057 542.326L236.069 550.256L237.802 557.767L239.241 564.851L240.375 571.502L241.193 577.714L241.682 583.481L241.833 588.801L241.635 593.67L241.078 598.088L240.153 602.053L238.853 605.567L237.17 608.631L235.097 611.248L232.628 613.421L229.759 615.155L226.485 616.456L222.803 617.329L218.711 617.783L214.207 617.826L209.29 617.466L203.963 616.713L198.225 615.578L192.081 614.072L185.532 612.207L178.585 609.994L171.245 607.447L163.518 604.58L155.413 601.406L146.938 597.939L138.103 594.195L128.92 590.188L119.399 585.932L109.553 581.445L99.3976 576.74L88.9459 571.834L78.2142 566.742L67.2187 561.481L55.977 556.065L44.5074 550.511L32.8284 544.833L-176.522 442.782L-188.122 437.106L-199.489 431.521L-210.598 426.032L-221.427 420.643L-231.953 415.358L-242.153 410.181L-252.006 405.113L-261.49 400.157L-270.585 395.313L-279.271 390.582L-287.529 385.964L-295.341 381.458L-302.689 377.063L-309.557 372.776L-315.93 368.596L-321.793 364.518L-327.133 360.539L-331.938 356.656L-336.196 352.864L-339.897 349.157L-343.032 345.532L-345.595 341.981L-347.577 338.499L-348.975 335.08L-349.783 331.717L-350 328.404L-349.624 325.135L-348.654 321.902L-347.093 318.698L-344.941 315.517L-342.204 312.352L-338.885 309.195L-334.992 306.041L-330.531 302.883L-325.511 299.713L-319.943 296.527L-313.836 293.318L-307.203 290.081L-300.059 286.81L-292.416 283.501L-284.29 280.149L-275.699 276.75L-266.658 273.3L-257.188 269.796L-247.306 266.237L-237.033 262.618L-226.39 258.941L-215.398 255.202L-204.08 251.403L-192.459 247.542L-180.558 243.623L-168.4 239.645L-156.011 235.61L65.4954 163.686L77.7431 159.732L89.7559 155.877L101.514 152.135L112.996 148.517L124.185 145.038L135.061 141.71L145.608 138.547L155.81 135.563L165.65 132.77L175.115 130.182L184.192 127.812L192.867 125.674L201.13 123.781L208.971 122.145L216.38 120.78L223.349 119.696L229.871 118.906L235.942 118.422L241.555 118.254L246.707 118.412L251.396 118.907L255.62 119.748L259.38 120.943L262.675 122.5L265.507 124.427L267.88 126.731L269.797 129.415L271.263 132.487L272.284 135.948L272.866 139.804L273.017 144.056L272.745 148.704L272.061 153.751L270.972 159.194L269.492 165.032L267.63 171.264L265.4 177.884L262.814 184.888L259.884 192.272L256.626 200.028L253.054 208.148L249.181 216.623L245.024 225.445L240.597 234.602L235.917 244.083L230.999 253.875L225.859 263.964L220.513 274.336L214.979 284.975L209.271 295.866L203.406 306.991L197.401 318.332L81.9384 535.359L75.8943 546.664L69.9514 557.73L64.1152 568.534L58.3909 579.053L52.7827 589.265L47.2946 599.146L41.9292 608.677L36.689 617.836L31.5754 626.602L26.5894 634.956L21.7313 642.88L17.0004 650.356L12.3957 657.366L7.91582 663.895L3.55833 669.927L-0.679541 675.449L-4.80118 680.446L-8.81023 684.908L-12.7112 688.823L-16.5086 692.182L-20.2077 694.975L-23.8139 697.195L-27.333 698.837L-30.7712 699.895L-34.1347 700.365L-37.4301 700.245L-40.6642 699.535L-43.8438 698.233L-46.9759 696.341L-50.0675 693.862L-53.1254 690.8L-56.1568 687.16L-59.1685 682.948L-62.1672 678.173L-65.1596 672.842L-68.152 666.966L-71.1507 660.557L-74.1616 653.626L-77.1902 646.187L-80.2418 638.255L-83.3213 629.846L-86.4331 620.976L-89.5813 611.662L-92.7695 601.924L-96.0006 591.78L-99.2773 581.252L-102.601 570.36L-105.975 559.126L-109.398 547.572L-112.871 535.721L-116.394 523.598L-119.966 511.226L-184.169 287.467L-187.746 274.958L-191.24 262.673L-194.638 250.634L-197.928 238.862L-201.098 227.376L-204.136 216.195L-207.028 205.339L-209.763 194.823L-212.326 184.665L-214.705 174.88L-216.888 165.482L-218.86 156.485L-220.611 147.901L-222.126 139.741L-223.394 132.016L-224.403 124.735L-225.141 117.906L-225.596 111.536L-225.758 105.63L-225.615 100.194L-225.158 95.2304L-224.378 90.742L-223.264 86.7301L-221.809 83.1951L-220.006 80.1359L-217.846 77.5508L-215.324 75.4367L-212.435 73.7896L-209.173 72.6046L-205.534 71.8755L-201.516 71.5957L-197.117 71.7571L-192.335 72.3511L-187.169 73.3681L-181.622 74.7978L-175.693 76.6291L-169.386 78.8501L-162.704 81.4483L-155.652 84.4106L-148.236 87.7233L-140.461 91.3721L-132.336 95.3422L-123.869 99.6186L-115.07 104.186L-105.948 109.027L-96.5167 114.128L-86.7872 119.47L-76.7731 125.039L-66.4888 130.816L-55.9494 136.785L-45.1709 142.93L-34.1702 149.233L-22.9648 155.678L178.757 272.074L189.986 278.57L200.995 284.961L211.76 291.241L222.257 297.402L232.465 303.44L242.362 309.35L251.924 315.126L261.132 320.766L269.965 326.268L278.403 331.629L286.426 336.847L294.016 341.923L301.156 346.855L307.829 351.646L314.019 356.296L319.711 360.808L324.892 365.183L329.548 369.424L333.668 373.536L337.242 377.523L340.258 381.389L342.71 385.138L344.59 388.777L345.893 392.31L346.612 395.745L346.746 399.087L346.291 402.343L345.247 405.52L343.615 408.624L341.395 411.663L338.59 414.643L335.205 417.572L331.245 420.457L326.717 423.305L321.628 426.124L315.989 428.918L309.808 431.697L303.097 434.465L295.87 437.23L288.14 439.997L279.921 442.772L271.23 445.56L262.083 448.366L252.499 451.194L242.495 454.049L232.093 456.934L221.311 459.852L210.172 462.805L198.698 465.797L186.911 468.827L174.834 471.898L162.492 475.009L149.909 478.159L-76.101 534.476L-88.6522 537.585L-100.968 540.615L-113.026 543.553L-124.807 546.389L-136.289 549.111L-147.455 551.706L-158.284 554.163L-168.761 556.469L-178.869 558.612L-188.591 560.58L-197.914 562.361L-206.824 563.941L-215.308 565.309L-223.355 566.453L-230.956 567.36L-238.101 568.02L-244.781 568.42L-250.99 568.55L-256.722 568.399L-261.973 567.957L-266.739 567.214L-271.018 566.161L-274.808 564.788L-278.11 563.089L-280.924 561.055L-283.252 558.679L-285.099 555.956L-286.467 552.88L-287.362 549.446L-287.79 545.651L-287.759 541.492L-287.276 536.966L-286.351 532.073L-284.994 526.812L-283.214 521.183L-281.024 515.189L-278.436 508.832L-275.462 502.115L-272.116 495.042L-268.413 487.62L-264.366 479.854L-259.992 471.753L-255.306 463.324L-250.323 454.576L-245.06 445.521L-239.534 436.169L-233.762 426.533L-227.761 416.625L-221.548 406.46L-215.141 396.053L-208.556 385.419L-201.811 374.574L-194.924 363.537L-71.4952 166.131L-64.6485 155.22L-57.9173 144.535L-51.309 134.097L-44.8306 123.931L-38.4882 114.058L-32.2872 104.5L-26.2322 95.2784L-20.327 86.4141L-14.5751 77.9272L-8.97845 69.8373L-3.5391 62.1633L1.74209 54.9233L6.86477 48.1344L11.8292 41.8131L16.6367 35.9749L21.2886 30.6344L25.7873 25.8051L30.1355 21.4995L34.3367 17.7292L38.3948 14.5044L42.3141 11.8344L46.0995 9.72734L49.7563 8.19007L53.29 7.2283L56.7067 6.84647L60.0128 7.04785L63.2146 7.83439L66.3191 9.20682L69.3333 11.1646L72.2642 13.7059L75.1191 16.8276L77.9052 20.5254L80.6299 24.7937L83.3005 29.6256L85.9243 35.013L88.5083 40.9466L91.0595 47.416L93.5847 54.4095L96.0907 61.9141L98.5835 69.9161L101.069 78.4004L103.554 87.3508L106.043 96.7505L108.54 106.581L111.052 116.824L113.58 127.46L116.13 138.466L118.705 149.824L121.306 161.509L123.936 173.499L126.596 185.771L129.288 198.3L180.423 438.727L183.068 451.286L185.639 463.598L188.123 475.642L190.51 487.397L192.789 498.844L194.948 509.961L196.977 520.732L198.863 531.139L200.594 541.165L202.159 550.795L203.546 560.014L204.743 568.808L205.738 577.165L206.52 585.075L207.077 592.525L207.397 599.509L207.471 606.016L207.287 612.042L206.835 617.579L206.104 622.624L205.086 627.173L203.772 631.223L202.152 634.775L200.22 637.826L197.967 640.38L195.387 642.438L192.475 644.004L189.224 645.081L185.631 645.675L181.691 645.794L177.402 645.443L172.762 644.632L167.77 643.37L162.424 641.667L156.727 639.533L150.678 636.982L144.282 634.025L137.54 630.675L130.458 626.947L123.041 622.854L115.295 618.413L107.227 613.638L98.8453 608.547L90.1595 603.154L81.1794 597.478L71.9163 591.534L62.3818 585.342L52.5889 578.917L42.5513 572.279L32.2836 565.445L21.8014 558.432L11.1207 551.259L-181.967 421.101L-192.766 413.809L-203.358 406.635L-213.719 399.587L-223.829 392.673L-233.663 385.902L-243.201 379.278L-252.421 372.809L-261.302 366.5L-269.823 360.354L-277.965 354.375L-285.708 348.567L-293.034 342.931L-299.925 337.468L-306.364 332.18L-312.335 327.065L-317.823 322.125L-322.814 317.356L-327.294 312.757L-331.25 308.326L-334.673 304.059L-337.552 299.953L-339.877 296.003L-341.642 292.205L-342.838 288.553L-343.462 285.041L-343.509 281.665L-342.975 278.417L-341.859 275.291L-340.161 272.281L-337.881 269.378L-335.021 266.576L-331.585 263.868L-327.577 261.245L-323.003 258.701L-317.87 256.228L-312.186 253.818L-305.962 251.464L-299.207 249.159L-291.933 246.896L-284.154 244.667L-275.883 242.466L-267.136 240.286L-257.93 238.122L-248.28 235.967L-238.206 233.816L-227.727 231.665L-216.862 229.507L-205.633 227.34L-194.061 225.16L-182.168 222.963L-169.978 220.747L-157.514 218.51L-144.801 216.251L84.584 175.825L97.3788 173.583L109.939 171.403L122.242 169.293L134.265 167.263L145.989 165.324L157.392 163.487L168.456 161.761L179.161 160.158L189.491 158.688L199.429 157.365L208.959 156.197L218.066 155.198L226.737 154.377L234.96 153.748L242.723 153.32L250.017 153.104L256.831 153.112L263.158 153.355L268.992 153.841L274.326 154.583L279.156 155.588L283.48 156.867L287.294 158.428L290.598 160.279L293.392 162.427L295.677 164.882L297.456 167.647L298.732 170.73L299.511 174.135L299.796 177.868L299.597 181.931L298.919 186.327L297.772 191.059L296.164 196.128L294.108 201.533L291.614 207.275L288.694 213.352L285.36 219.762L281.628 226.501L277.51 233.566L273.023 240.951L268.181 248.649L263 256.655L257.498 264.959L251.69 273.554L245.595 282.429L239.23 291.573L232.613 300.975L225.762 310.622L218.695 320.501L211.431 330.598L203.988 340.897L196.385 351.382L59.4721 539.718L51.8489 550.176L44.3542 560.423L36.9974 570.437L29.787 580.195L22.7308 589.675L15.8359 598.857L9.10875 607.718L2.55482 616.238L-3.82119 624.398L-10.0153 632.177L-16.0243 639.557L-21.8456 646.519L-27.4776 653.047L-32.9194 659.123L-38.1707 664.733L-43.2319 669.86L-48.1042 674.491L-52.7893 678.614L-57.2896 682.215L-61.6083 685.285L-65.7487 687.814L-69.7152 689.792L-73.5124 691.213L-77.1453 692.069L-80.6195 692.356L-83.941 692.07L-87.1162 691.208L-90.1515 689.769L-93.0541 687.751L-95.831 685.157L-98.4898 681.989L-101.038 678.25L-103.483 673.944L-105.832 669.078L-108.095 663.659L-110.277 657.696L-112.388 651.198L-114.434 644.176L-116.423 636.642L-118.363 628.61L-120.26 620.093L-122.122 611.107L-123.954 601.668L-125.765 591.794L-127.558 581.504L-129.341 570.815L-131.117 559.749L-132.892 548.327L-134.67 536.57L-136.454 524.501L-138.249 512.143L-140.056 499.519L-141.877 486.655L-174.29 256.134L-176.066 243.361L-177.786 230.835L-179.442 218.575L-181.023 206.606L-182.52 194.947L-183.924 183.619L-185.223 172.641L-186.409 162.032L-187.469 151.81L-188.394 141.99L-189.173 132.589L-189.795 123.621L-190.248 115.1L-190.523 107.037L-190.608 99.4454L-190.493 92.3339L-190.167 85.7119L-189.62 79.5872L-188.842 73.9666L-187.824 68.8556L-186.555 64.2585L-185.028 60.1784L-183.234 56.6174L-181.164 53.5763L-178.811 51.0546L-176.168 49.051L-173.229 47.5628L-169.988 46.5862L-166.44 46.1164L-162.581 46.1476L-158.407 46.6727L-153.916 47.6838L-149.105 49.172L-143.972 51.1274L-138.519 53.5392L-132.744 56.3957L-126.65 59.6846L-120.238 63.3925L-113.512 67.5054L-106.477 72.0086L-99.1354 76.8868L-91.495 82.124L-83.5621 87.7039L-75.3445 93.6093L-66.8508 99.823L-58.0907 106.327L-49.0746 113.103L-39.8138 120.134L-30.3207 127.399L-20.6084 134.881L-10.6907 142.56L-0.582342 150.418L9.70109 158.436L193.221 301.743L203.338 309.673L213.241 317.463L222.906 325.103L232.313 332.586L241.44 339.901L250.265 347.042L258.769 354.002L266.93 360.775L274.729 367.356L282.147 373.74L289.165 379.925L295.766 385.906L301.933 391.683L307.649 397.253L312.899 402.616L317.668 407.773L321.943 412.725L325.711 417.472L328.96 422.018L331.681 426.365L333.862 430.516L335.497 434.476L336.577 438.249L337.096 441.84L337.051 445.255L336.435 448.5L335.249 451.58L333.489 454.504L331.157 457.278L328.253 459.908L324.779 462.403L320.74 464.771L316.14 467.019L310.986 469.156L305.285 471.188L299.046 473.125L292.278 474.975L284.993 476.744L277.203 478.442L268.921 480.076L260.162 481.654L250.94 483.182L241.274 484.669L231.179 486.12L220.676 487.542L209.782 488.941L198.519 490.324L186.908 491.694L174.97 493.057L162.728 494.418L150.205 495.78L137.426 497.146L-94.1886 521.483L-107.165 522.836L-119.909 524.148L-132.398 525.409L-144.607 526.611L-156.517 527.747L-168.105 528.806L-179.352 529.779L-190.237 530.658L-200.743 531.431L-210.852 532.09L-220.547 532.623L-229.813 533.021L-238.635 533.273L-246.999 533.369L-254.894 533.299L-262.308 533.052L-269.23 532.617L-275.653 531.986L-281.568 531.147L-286.968 530.092L-291.849 528.811L-296.205 527.295L-300.035 525.535L-303.335 523.523L-306.106 521.251L-308.348 518.713L-310.062 515.9L-311.252 512.807L-311.922 509.429L-312.076 505.76L-311.72 501.796L-310.863 497.533L-309.512 492.969L-307.676 488.102L-305.365 482.93L-302.591 477.453L-299.366 471.671L-295.702 465.586L-291.614 459.199L-287.115 452.513L-282.22 445.533L-276.946 438.264L-271.308 430.709L-265.324 422.878L-259.012 414.776L-252.388 406.412L-245.471 397.797L-238.28 388.938L-230.833 379.849L-223.151 370.54L-215.252 361.024L-207.155 351.316L-198.88 341.429L-49.1661 163.103L-40.7974 153.155L-32.5686 143.402L-24.4909 133.867L-16.5746 124.571L-8.8293 115.537L-1.26369 106.784L6.11416 98.3336L13.2971 90.2062L20.2788 82.4215L27.0538 74.9987L33.6173 67.9566L39.9654 61.3134L46.095 55.0864L52.0036 49.2923L57.69 43.947L63.1532 39.0656L68.3931 34.6623L73.4105 30.7503L78.2069 27.3421L82.7842 24.4489L87.1453 22.081L91.2934 20.2477L95.2325 18.957L98.9673 18.216L102.503 18.0306L105.844 18.4054L108.998 19.3438L111.97 20.8482L114.768 22.9196L117.398 25.5578L119.868 28.7615L122.186 32.5278L124.36 36.853L126.398 41.7319L128.307 47.1581L130.097 53.1239L131.775 59.6207L133.351 66.6383L134.832 74.1655L136.227 82.1901L137.544 90.6985L138.79 99.6762L139.974 109.108L141.104 118.976L142.186 129.264L143.227 139.952L144.234 151.021L145.213 162.452L146.171 174.222L147.112 186.309L148.042 198.692L148.964 211.345L149.884 224.247L166.133 456.475L167.022 469.399L167.874 482.081L168.682 494.496L169.438 506.623L170.134 518.44L170.762 529.925L171.314 541.059L171.779 551.821L172.149 562.194L172.414 572.16L172.566 581.702L172.593 590.804L172.486 599.453L172.235 607.635L171.83 615.338L171.262 622.55L170.52 629.261L169.595 635.462L168.477 641.147L167.157 646.308L165.625 650.939L163.874 655.038L161.894 658.601L159.678 661.626L157.217 664.114L154.506 666.064L151.536 667.478L148.303 668.36L144.8 668.715L141.022 668.546L136.966 667.86L132.628 666.666L128.005 664.971L123.094 662.785L117.895 660.118L112.407 656.983L106.63 653.39L100.565 649.354L94.2149 644.889L87.5814 640.008L80.6685 634.729L73.4809 629.066L66.0239 623.036L58.3038 616.658L50.328 609.948L42.1043 602.925L33.642 595.608L24.9507 588.016L16.0411 580.168L6.92486 572.084L-2.38562 563.783L-11.8773 555.286L-21.5361 546.612L-194.632 390.843L-204.219 382.19L-213.608 373.689L-222.775 365.35L-231.701 357.184L-240.365 349.203L-248.745 341.414L-256.822 333.826L-264.575 326.446L-271.986 319.282L-279.034 312.34L-285.703 305.623L-291.974 299.137L-297.83 292.886L-303.254 286.87L-308.232 281.093L-312.749 275.556L-316.79 270.258L-320.343 265.199L-323.395 260.378L-325.936 255.793L-327.956 251.442L-329.445 247.32L-330.396 243.424L-330.803 239.75L-330.659 236.293L-329.959 233.047L-328.702 230.005L-326.884 227.163L-324.506 224.511L-321.566 222.044L-318.068 219.754L-314.014 217.632L-309.407 215.671L-304.253 213.862L-298.56 212.197L-292.334 210.667L-285.584 209.263L-278.321 207.977L-270.556 206.8L-262.302 205.723L-253.572 204.739L-244.38 203.837L-234.744 203.01L-224.678 202.251L-214.202 201.551L-203.333 200.902L-192.092 200.298L-180.499 199.732L-168.575 199.198L-156.342 198.688L-143.824 198.199L-131.043 197.724L-118.023 197.259L114.741 189.14L127.607 188.713L140.22 188.317L152.558 187.958L164.596 187.644L176.315 187.381L187.691 187.177L198.706 187.042L209.34 186.982L219.574 187.007L229.391 187.126L238.774 187.347L247.707 187.681L256.178 188.136L264.171 188.722L271.674 189.448L278.678 190.325L285.171 191.361L291.145 192.566L296.593 193.948L301.508 195.518L305.884 197.283L309.719 199.253L313.009 201.435L315.753 203.838L317.95 206.468L319.602 209.333L320.71 212.439L321.278 215.793L321.31 219.399L320.812 223.263L319.79 227.388L318.252 231.779L316.208 236.438L313.666 241.368L310.637 246.57L307.134 252.044L303.17 257.79L298.756 263.808L293.909 270.096L288.642 276.651L282.973 283.469L276.917 290.547L270.491 297.879L263.714 305.459L256.604 313.281L249.179 321.336L241.459 329.616L233.463 338.111L225.211 346.812L216.723 355.706L208.02 364.783L199.121 374.028L28.2764 550.841L19.347 560.045L10.5804 569.048L1.98861 577.828L-6.41711 586.365L-14.6264 594.639L-22.6296 602.629L-30.4179 610.316L-37.9834 617.68L-45.3191 624.701L-52.4186 631.363L-59.2767 637.646L-65.8887 643.533L-72.251 649.008L-78.3608 654.054L-84.2159 658.657L-89.8152 662.802L-95.1581 666.476L-100.245 669.666L-105.077 672.36L-109.657 674.547L-113.985 676.219L-118.067 677.366L-121.905 677.98L-125.504 678.055L-128.87 677.587L-132.007 676.57L-134.922 675.002L-137.622 672.88L-140.113 670.205L-142.403 666.976L-144.5 663.196L-146.412 658.868L-148.148 653.996L-149.715 648.585L-151.123 642.642L-152.38 636.175L-153.497 629.193L-154.481 621.707L-155.342 613.727L-156.089 605.267L-156.731 596.34L-157.277 586.961L-157.735 577.145L-158.115 566.91L-158.424 556.274L-158.671 545.255L-158.863 533.873L-159.007 522.148L-159.112 510.102L-159.182 497.757L-159.225 485.136L-159.247 472.262L-159.251 239.485L-159.24 226.472L-159.211 213.699L-159.157 201.187L-159.073 188.961L-158.954 177.043L-158.79 165.456L-158.577 154.219L-158.306 143.353L-157.969 132.878L-157.558 122.812L-157.065 113.172L-156.481 103.976L-155.798 95.2369L-155.005 86.9709L-154.095 79.1907L-153.058 71.9085L-151.886 65.1353L-150.568 58.8808L-149.096 53.1537L-147.462 47.9614L-145.655 43.3101L-143.669 39.2047L-141.494 35.6491L-139.123 32.6458L-136.548 30.1961L-133.761 28.3001L-130.756 26.9567L-127.527 26.1635L-124.067 25.9172L-120.371 26.2129L-116.434 27.045L-112.252 28.4065L-107.822 30.2893L-103.14 32.6845L-98.2038 35.5818L-93.0127 38.9701L-87.5652 42.8375L-81.8616 47.1708L-75.9026 51.9562L-69.6897 57.1791L-63.2252 62.8238L-56.5125 68.8743L-49.5555 75.3134L-42.3591 82.1237L-34.929 89.2869L-27.2718 96.7845L-19.3949 104.597L-11.3067 112.705L-3.01626 121.089L5.46656 129.728L14.131 138.601L22.9654 147.689L31.9574 156.969L193.764 324.425L202.768 333.765L211.59 342.943L220.208 351.947L228.602 360.764L236.752 369.382L244.638 377.791L252.24 385.98L259.539 393.941L266.516 401.665L273.152 409.145L279.429 416.374L285.33 423.347L290.837 430.059L295.935 436.505L300.607 442.683L304.84 448.591L308.618 454.226L311.929 459.589L314.76 464.68L317.101 469.499L318.94 474.049L320.269 478.332L321.078 482.35L321.361 486.108L321.111 489.611L320.324 492.863L318.995 495.87L317.121 498.639L314.701 501.175L311.735 503.487L308.223 505.582L304.167 507.467L299.57 509.152L294.438 510.644L288.775 511.953L282.588 513.088L275.886 514.058L268.678 514.872L260.973 515.54L252.784 516.072L244.123 516.477L235.005 516.763L225.443 516.942L215.454 517.021L205.056 517.011L194.264 516.919L183.1 516.755L171.581 516.526L159.73 516.241L147.567 515.908L135.114 515.533L122.395 515.123L109.433 514.686L-123.354 506.56L-136.279 506.092L-148.956 505.611L-161.361 505.114L-173.47 504.595L-185.262 504.048L-196.715 503.468L-207.806 502.847L-218.518 502.178L-228.829 501.454L-238.722 500.669L-248.179 499.813L-257.185 498.878L-265.723 497.857L-273.779 496.74L-281.341 495.52L-288.396 494.187L-294.934 492.733L-300.944 491.149L-306.418 489.426L-311.35 487.557L-315.732 485.531L-319.56 483.341L-322.831 480.98L-325.542 478.439L-327.693 475.71L-329.282 472.787L-330.311 469.663L-330.784 466.332L-330.703 462.787L-330.074 459.023L-328.903 455.036L-327.197 450.821L-324.963 446.375L-322.213 441.694L-318.955 436.776L-315.202 431.62L-310.966 426.225L-306.26 420.589L-301.098 414.715L-295.496 408.603L-289.469 402.256L-283.034 395.676L-276.208 388.867L-269.01 381.833L-261.457 374.581L-253.57 367.115L-245.367 359.445L-236.869 351.576L-228.096 343.518L-219.069 335.281L-209.809 326.875L-200.337 318.31L-190.674 309.599L-17.5823 153.842L-7.98994 145.238L1.42958 136.818L10.6625 128.603L19.696 120.613L28.518 112.867L37.1173 105.384L45.4836 98.1849L53.6073 91.2873L61.4799 84.7103L69.0936 78.4718L76.4416 72.5896L83.5179 67.0808L90.3175 61.9618L96.8361 57.2486L103.07 52.9563L109.018 49.0994L114.678 45.6916L120.048 42.7456L125.129 40.2735L129.923 38.2863L134.43 36.7941L138.653 35.806L142.595 35.3302L146.26 35.3735L149.652 35.9421L152.777 37.0407L155.641 38.6731L158.25 40.8418L160.61 43.5483L162.729 46.7927L164.614 50.5742L166.275 54.8906L167.719 59.7385L168.956 65.1133L169.994 71.0092L170.844 77.4194L171.514 84.3356L172.014 91.7484L172.355 99.6476L172.546 108.021L172.597 116.857L172.518 126.14L172.319 135.857L172.01 145.991L171.6 156.524L171.099 167.44L170.515 178.719L169.858 190.342L169.137 202.288L168.359 214.535L167.532 227.061L166.664 239.844L149.51 485.044L148.589 497.848L147.664 510.394L146.73 522.659L145.783 534.62L144.817 546.254L143.827 557.54L142.807 568.456L141.75 578.984L140.65 589.103L139.499 598.795L138.29 608.044L137.016 616.832L135.669 625.145L134.24 632.969L132.721 640.29L131.105 647.097L129.382 653.378L127.544 659.125L125.583 664.329L123.492 668.983L121.26 673.081L118.881 676.619L116.346 679.592L113.649 682L110.781 683.84L107.735 685.114L104.506 685.823L101.086 685.969L97.4702 685.556L93.6528 684.59L89.6291 683.078L85.3948 681.026L80.9459 678.443L76.2797 675.338L71.3935 671.724L66.2856 667.61L60.9547 663.01L55.4006 657.938L49.6236 652.408L43.6246 646.436L37.4057 640.037L30.9695 633.229L24.3193 626.03L17.4595 618.457L10.3951 610.531L3.13192 602.269L-4.32329 593.693L-11.9631 584.823L-19.7791 575.68L-27.7624 566.284L-35.9029 556.658L-44.1901 546.823L-193.9 368.516L-202.271 358.53L-210.476 348.714L-218.494 339.083L-226.308 329.65L-233.896 320.429L-241.241 311.432L-248.322 302.671L-255.122 294.157L-261.622 285.899L-267.803 277.906L-273.648 270.187L-279.139 262.748L-284.261 255.595L-288.996 248.735L-293.33 242.171L-297.247 235.906L-300.734 229.944L-303.776 224.286L-306.363 218.934L-308.481 213.886L-310.121 209.142L-311.272 204.702L-311.926 200.561L-312.075 196.718L-311.712 193.167L-310.831 189.906L-309.427 186.928L-307.498 184.228L-305.041 181.799L-302.054 179.634L-298.538 177.725L-294.494 176.066L-289.924 174.646L-284.831 173.459L-279.22 172.493L-273.098 171.74L-266.47 171.19L-259.347 170.833L-251.736 170.659L-243.648 170.658L-235.096 170.818L-226.091 171.131L-216.649 171.586L-206.784 172.171L-196.511 172.878L-185.848 173.695L-174.813 174.614L-163.425 175.623L-151.703 176.714L-139.669 177.878L-127.343 179.105L-114.748 180.388L-101.906 181.718L129.741 206.048L142.661 207.418L155.339 208.782L167.75 210.143L179.871 211.505L191.678 212.87L203.15 214.245L214.265 215.634L225.002 217.042L235.342 218.475L245.264 219.939L254.751 221.442L263.786 222.99L272.353 224.589L280.437 226.248L288.023 227.975L295.098 229.776L301.652 231.66L307.673 233.635L313.152 235.709L318.081 237.89L322.453 240.186L326.262 242.604L329.504 245.154L332.176 247.842L334.275 250.676L335.801 253.662L336.755 256.809L337.138 260.123L336.953 263.609L336.204 267.273L334.897 271.122L333.039 275.159L330.637 279.389L327.7 283.817L324.238 288.444L320.262 293.275L315.784 298.31L310.818 303.551L305.376 308.999L299.475 314.653L293.129 320.513L286.356 326.577L279.172 332.843L271.597 339.308L263.648 345.968L255.345 352.818L246.708 359.853L237.757 367.065L228.514 374.45L218.999 381.998L209.234 389.7L199.242 397.549L189.043 405.532L5.49205 548.855L-4.72197 556.81L-14.7544 564.598L-24.5903 572.199L-34.2149 579.595L-43.6149 586.767L-52.7775 593.696L-61.6906 600.364L-70.3434 606.752L-78.7258 612.842L-86.8284 618.617L-94.643 624.059L-102.162 629.152L-109.38 633.879L-116.29 638.225L-122.888 642.175L-129.171 645.714L-135.135 648.828L-140.779 651.505L-146.102 653.732L-151.103 655.499L-155.784 656.794L-160.146 657.608L-164.191 657.932L-167.923 657.76L-171.345 657.085L-174.462 655.9L-177.28 654.203L-179.804 651.988L-182.041 649.255L-183.997 646.002L-185.682 642.229L-187.103 637.938L-188.268 633.132L-189.188 627.812L-189.87 621.986L-190.326 615.658L-190.565 608.835L-190.597 601.527L-190.434 593.742L-190.085 585.491L-189.561 576.786L-188.874 567.64L-188.035 558.067L-187.053 548.081L-185.94 537.699L-184.707 526.938L-183.364 515.815L-181.921 504.35L-180.388 492.562L-178.776 480.472L-177.093 468.101L-175.349 455.471L-173.553 442.606L-141.133 212.084L-139.318 199.315L-137.516 186.797L-135.726 174.554L-133.945 162.609L-132.169 150.986L-130.394 139.706L-128.615 128.791L-126.829 118.263L-125.03 108.139L-123.211 98.4407L-121.367 89.1845L-119.492 80.3877L-117.578 72.0663L-115.619 64.2353L-113.608 56.9085L-111.536 50.0986L-109.397 43.8172L-107.183 38.0746L-104.886 32.8801L-102.499 28.2416L-100.013 24.1659L-97.4206 20.6585L-94.7146 17.7237L-91.8874 15.3644L-88.9315 13.5825L-85.8401 12.3783L-82.6061 11.7512L-79.2231 11.699L-75.6849 12.2187L-71.9858 13.3056L-68.1202 14.9542L-64.0834 17.1576L-59.8708 19.9077L-55.4785 23.1955L-50.9033 27.0107L-46.1421 31.3419L-41.1931 36.1769L-36.0546 41.5022L-30.7257 47.3035L-25.2063 53.5657L-19.497 60.2726L-13.599 67.4072L-7.5143 74.952L-1.24573 82.8883L5.20332 91.1972L11.8285 99.8588L18.6246 108.853L25.586 118.159L32.7059 127.755L39.977 137.62L47.3911 147.731L54.9392 158.067L62.6118 168.605L199.5 356.918L207.04 367.329L214.413 377.548L221.599 387.558L228.58 397.344L235.338 406.893L241.854 416.191L248.112 425.227L254.092 433.989L259.777 442.466L265.15 450.65L270.195 458.531L274.895 466.103L279.233 473.358L283.196 480.291L286.767 486.896L289.934 493.171L292.682 499.112L294.999 504.717L296.874 509.985L298.295 514.916L299.252 519.511L299.736 523.772L299.739 527.7L299.253 531.298L298.273 534.572L296.792 537.525L294.807 540.163L292.315 542.492L289.313 544.518L285.802 546.25L281.78 547.695L277.25 548.861L272.214 549.758L266.676 550.394L260.64 550.78L254.114 550.926L247.103 550.842L239.617 550.538L231.665 550.027L223.258 549.318L214.408 548.423L205.127 547.354L195.429 546.122L185.33 544.737L174.845 543.212L163.991 541.558L152.787 539.785L141.251 537.905L129.402 535.928L117.263 533.864L104.852 531.724L92.194 529.518L-150.008 486.833L-162.623 484.583L-174.978 482.355L-187.05 480.147L-198.814 477.957L-210.249 475.783L-221.333 473.62L-232.043 471.466L-242.36 469.315L-252.263 467.163L-261.734 465.005L-270.756 462.836L-279.311 460.648L-287.383 458.437L-294.958 456.194L-302.022 453.915L-308.562 451.591L-314.567 449.215L-320.028 446.78L-324.934 444.279L-329.278 441.704L-333.054 439.047L-336.255 436.302L-338.879 433.459L-340.923 430.514L-342.384 427.457L-343.262 424.282L-343.56 420.983L-343.278 417.552L-342.42 413.984L-340.991 410.273L-338.997 406.414L-336.446 402.401L-333.344 398.229L-329.703 393.896L-325.531 389.397L-320.842 384.729L-315.647 379.891L-309.96 374.88L-303.797 369.694L-297.172 364.335L-290.101 358.802L-282.603 353.095L-274.696 347.217L-266.397 341.17L-257.727 334.957L-248.705 328.582L-239.353 322.049L-229.692 315.365L-219.743 308.535L-209.528 301.565L-199.07 294.465L-188.391 287.241L4.70399 157.068L15.4943 149.808L26.0961 142.698L36.493 135.756L46.6687 128.999L56.6083 122.446L66.2976 116.114L75.723 110.021L84.8723 104.184L93.7338 98.6213L102.297 93.3492L110.551 88.3847L118.489 83.744L126.102 79.4431L133.384 75.4972L140.327 71.9214L146.929 68.7299L153.184 65.9364L159.09 63.5537L164.644 61.5942L169.846 60.0693L174.695 58.9897L179.192 58.3652L183.338 58.2046L187.136 58.5161L190.589 59.3066L193.702 60.5821L196.478 62.3477L198.924 64.6073L201.045 67.3638L202.849 70.6191L204.344 74.3738L205.536 78.6275L206.436 83.3786L207.052 88.6245L207.394 94.3612L207.472 100.584L207.296 107.286L206.878 114.461L206.228 122.1L205.358 130.193L204.279 138.73L203.004 147.699L201.543 157.086L199.908 166.879L198.113 177.062L196.167 187.619L194.084 198.534L191.874 209.788L189.55 221.362L187.122 233.238L184.601 245.394L181.999 257.809L179.326 270.461L130.898 498.17L128.188 510.84L125.509 523.268L122.861 535.428L120.243 547.297L117.653 558.851L115.089 570.068L112.548 580.926L110.027 591.404L107.522 601.481L105.028 611.139L102.542 620.358L100.057 629.12L97.5693 637.41L95.0719 645.211L92.5588 652.509L90.0238 659.29L87.46 665.543L84.8607 671.255L82.2187 676.417L79.527 681.021L76.7781 685.057L73.9648 688.521L71.0799 691.407L68.116 693.711L65.0659 695.43L61.9225 696.564L58.679 697.112L55.3287 697.075L51.8651 696.457L48.2819 695.26L44.5734 693.49L40.734 691.153L36.7588 688.256L32.6429 684.808L28.3822 680.818L23.973 676.298L19.4123 671.258L14.6973 665.713L9.82606 659.677L4.79718 653.163L-0.39006 646.188L-5.73576 638.769L-11.2393 630.924L-16.8994 622.67L-22.7142 614.027L-28.6808 605.014L-34.7958 595.653L-41.0549 585.964L-47.4535 575.969L-53.9855 565.69L-60.6448 555.148L-67.424 544.368L-74.3153 533.372L-197.746 335.952L-204.577 324.991L-211.258 314.231L-217.773 303.687L-224.104 293.376L-230.232 283.314L-236.142 273.516L-241.816 263.993L-247.237 254.761L-252.387 245.83L-257.251 237.211L-261.812 228.914L-266.055 220.949L-269.964 213.322L-273.523 206.042L-276.719 199.113L-279.537 192.542L-281.965 186.332L-283.989 180.487L-285.598 175.008L-286.781 169.897L-287.527 165.153L-287.827 160.777L-287.672 156.766L-287.054 153.119L-285.967 149.832L-284.405 146.9L-282.362 144.319L-279.836 142.083L-276.824 140.186L-273.323 138.621L-269.334 137.379L-264.856 136.453L-259.893 135.834L-254.445 135.512L-248.518 135.477L-242.116 135.718L-235.246 136.225L-227.915 136.987L-220.131 137.992L-211.904 139.229L-203.245 140.685L-194.165 142.348L-184.678 144.207L-174.797 146.247L-164.537 148.459L-153.915 150.828L-142.946 153.343L-131.649 155.991L-120.043 158.76L-108.147 161.639L-95.9809 164.616L-83.5666 167.68L-70.9258 170.818L155.062 227.136L167.55 230.271L179.787 233.365L191.748 236.419L203.411 239.434L214.751 242.409L225.747 245.348L236.377 248.253L246.619 251.125L256.454 253.969L265.863 256.787L274.826 259.585L283.327 262.367L291.349 265.138L298.876 267.903L305.894 270.669L312.39 273.441L318.352 276.225L323.768 279.029L328.63 281.858L332.927 284.72L336.654 287.623L339.803 290.572L342.37 293.575L344.351 296.64L345.744 299.772L346.548 302.981L346.762 306.271L346.39 309.65L345.432 313.124L343.894 316.7L341.78 320.383L339.097 324.179L335.853 328.093L332.055 332.13L327.716 336.295L322.844 340.59L317.454 345.021L311.557 349.588L305.168 354.295L298.303 359.144L290.978 364.135L283.209 369.269L275.014 374.545L266.414 379.964L257.426 385.522L248.071 391.218L238.37 397.049L228.344 403.011L218.015 409.1L207.406 415.31L196.539 421.636L185.438 428.071L-27.5528 550.97L-38.677 557.36L-49.5893 563.601L-60.2724 569.676L-70.7097 575.569L-80.8858 581.263L-90.7857 586.741L-100.395 591.987L-109.702 596.984L-118.693 601.716L-127.359 606.167L-135.688 610.32L-143.671 614.161L-151.3 617.675L-158.569 620.846L-165.471 623.662L-172.001 626.108L-178.154 628.172L-183.928 629.841L-189.32 631.104L-194.329 631.95L-198.955 632.369L-203.199 632.351L-207.062 631.889L-210.547 630.975L-213.657 629.603L-216.396 627.766L-218.769 625.46L-220.783 622.683L-222.444 619.43L-223.758 615.7L-224.735 611.494L-225.383 606.812L-225.711 601.656L-225.728 596.028L-225.446 589.932L-224.874 583.374L-224.024 576.36L-222.909 568.897L-221.538 560.994L-219.925 552.661L-218.083 543.907L-216.023 534.745L-213.759 525.188L-211.303 515.249L-208.669 504.943L-205.869 494.287L-202.915 483.296L-199.822 471.989L-196.602 460.384L-193.266 448.5L-189.828 436.359L-186.299 423.98L-122.105 200.221L-118.505 187.713L-114.953 175.439L-111.45 163.424L-107.997 151.692L-104.595 140.266L-101.242 129.168L-97.9369 118.421L-94.679 108.047L-91.4658 98.0665L-88.2943 88.499L-85.1614 79.3638L-82.0632 70.6792L-78.9956 62.4623L-75.954 54.7295L-72.9333 47.496L-69.9281 40.776L-66.9327 34.5825L-63.941 28.9275L-60.9468 23.8217L-57.9436 19.2748L-54.9247 15.2951L-51.8834 11.8898L-48.8126 9.06478L-45.7054 6.82473L-42.5548 5.17303L-39.3538 4.1118L-36.0955 3.64184L-32.7731 3.76276L-29.3799 4.47281L-25.9096 5.76902L-22.3558 7.64715L-18.7124 10.1017L-14.9739 13.1261L-11.1349 16.7123L-7.19049 20.8512L-3.13603 25.5326L1.0325 30.7451L5.31874 36.4763L9.72578 42.7126L14.2563 49.4395L18.9121 56.6414L23.6948 64.3018L28.605 72.4034L33.6431 80.9279L38.8083 89.8563L44.0998 99.1688L49.5155 108.845L55.0529 118.864L60.7088 129.203L66.4793 139.841L72.3597 150.755L78.3445 161.921L84.4277 173.317L193.782 378.86L199.863 390.32L205.813 401.575L211.616 412.607L217.255 423.397L222.715 433.93L227.978 444.188L233.03 454.158L237.853 463.824L242.432 473.175L246.751 482.197L250.794 490.879L254.546 499.211L257.992 507.183L261.118 514.788L263.909 522.018L266.352 528.867L268.434 535.329L270.142 541.401L271.464 547.079L272.389 552.36L272.906 557.245L273.007 561.731L272.681 565.821L271.921 569.516L270.72 572.819L269.071 575.732L266.969 578.261L264.409 580.41L261.388 582.186L257.904 583.595L253.956 584.644L249.542 585.343L244.664 585.7L239.324 585.724L233.524 585.426L227.269 584.816L220.563 583.905L213.414 582.705L205.829 581.227L197.815 579.485L189.383 577.491L180.542 575.257L171.306 572.797L161.686 570.124L151.697 567.251L141.353 564.192L130.67 560.961L119.664 557.569L108.353 554.032L96.7563 550.362L84.8922 546.573L72.7812 542.676L60.444 538.686L-161.084 466.747L-173.382 462.735L-185.438 458.781L-197.228 454.885L-208.729 451.05L-219.916 447.275L-230.769 443.561L-241.263 439.908L-251.379 436.314L-261.096 432.777L-270.394 429.296L-279.254 425.867L-287.657 422.488L-295.588 419.153L-303.03 415.86L-309.968 412.604L-316.388 409.379L-322.277 406.18L-327.623 403.001L-332.416 399.837L-336.647 396.681L-340.307 393.527L-343.39 390.368L-345.889 387.197L-347.8 384.007L-349.121 380.792L-349.849 377.545L-349.983 374.259L-349.525 370.927L-348.476 367.542L-346.84 364.098L-344.621 360.589L-341.824 357.008L-338.457 353.35L-334.528 349.609L-330.046 345.78L-325.022 341.859L-319.467 337.841L-313.395 333.721L-306.818 329.498L-299.753 325.167L-292.214 320.727L-284.218 316.176L-275.783 311.512L-266.928 306.735L-257.673 301.845L-248.036 296.843L-238.039 291.73L-227.703 286.509L-217.051 281.181L-206.105 275.751L-194.888 270.222L-183.423 264.6L-171.735 258.889L37.6097 156.848L49.2058 151.218L60.5849 145.718L71.7285 140.364L82.6185 135.169L93.238 130.152L103.571 125.326L113.602 120.708L123.317 116.313L132.702 112.157L141.745 108.254L150.435 104.621L158.76 101.272L166.712 98.2213L174.282 95.483L181.463 93.0709L188.248 90.9982L194.633 89.2776L200.612 87.9212L206.183 86.9406L211.343 86.3466L216.091 86.1495L220.427 86.3586L224.352 86.9826L227.868 88.0294L230.976 89.5058L233.682 91.4181L235.989 93.7714L237.902 96.5699L239.428 99.8168L240.575 103.515L241.348 107.664L241.758 112.266L241.813 117.319L241.523 122.822L240.899 128.77L239.951 135.162L238.691 141.99L237.131 149.249L235.283 156.931L233.16 165.029L230.775 173.532L228.141 182.43L225.273 191.711L222.183 201.363L218.886 211.372L215.395 221.723L211.725 232.402L207.89 243.39L203.903 254.671L199.779 266.226L195.531 278.037L191.172 290.084L107.058 521.059L102.641 533.115L98.2912 544.923L94.0102 556.459L89.8001 567.699L85.6622 578.62L81.5972 589.2L77.6048 599.416L73.6847 609.249L69.8355 618.677L66.0555 627.682L62.3423 636.244L58.693 644.346L55.1044 651.971L51.5725 659.103L48.0929 665.728L44.6614 671.831L41.2723 677.401L37.9205 682.425L34.6003 686.893L31.3055 690.797L28.03 694.128L24.7673 696.879L21.5108 699.045L18.2538 700.623L14.9895 701.608L11.711 702L8.41153 701.798L5.08429 701.002L1.72261 699.616L-1.68013 697.643L-5.13031 695.086L-8.63409 691.953L-12.1975 688.251L-15.8261 683.987L-19.5253 679.172L-23.3 673.817L-27.1548 667.932L-31.094 661.532L-35.1212 654.63L-39.2395 647.242L-43.4518 639.383L-47.7601 631.07L-52.166 622.322L-56.6705 613.158L-61.2741 603.596L-65.9764 593.658L-70.7765 583.364L-75.673 572.736L-80.6636 561.797L-85.7454 550.569L-90.9147 539.076L-96.1675 527.341L-190.901 314.702L-196.195 302.795L-201.376 291.096L-206.429 279.626L-211.34 268.404L-216.093 257.447L-220.674 246.772L-225.067 236.396L-229.257 226.335L-233.23 216.603L-236.97 207.214L-240.462 198.179L-243.692 189.511L-246.645 181.221L-249.308 173.318L-251.667 165.81L-253.709 158.704L-255.419 152.008L-256.788 145.727L-257.802 139.865L-258.45 134.424L-258.722 129.408L-258.608 124.818L-258.099 120.653L-257.186 116.913L-255.862 113.596L-254.121 110.699L-251.955 108.219L-249.36 106.15L-246.333 104.488L-242.87 103.225L-238.968 102.355L-234.628 101.87L-229.848 101.76L-224.629 102.018L-218.974 102.631L-212.886 103.59L-206.368 104.884L-199.426 106.5L-192.067 108.426L-184.296 110.649L-176.124 113.157L-167.559 115.936L-158.612 118.971L-149.294 122.249L-139.618 125.756L-129.597 129.477L-119.246 133.397L-108.581 137.503L-97.6174 141.779L-86.373 146.211L-74.8658 150.785L-63.1147 155.487L-51.1395 160.301L164.823 247.503L176.867 252.38L188.68 257.184L200.238 261.912L211.517 266.561L222.493 271.127L233.146 275.61L243.451 280.007L253.388 284.32L262.936 288.547L272.074 292.689L280.784 296.748L289.047 300.725L296.846 304.624L304.164 308.446L310.986 312.196L317.296 315.877L323.082 319.495L328.331 323.052L333.032 326.556L337.174 330.011L340.75 333.422L343.751 336.797L346.17 340.141L348.003 343.461L349.246 346.764L349.896 350.055L349.951 353.343L349.411 356.633L348.278 359.933L346.554 363.249L344.243 366.588L341.35 369.957L337.88 373.361L333.842 376.808L329.244 380.302L324.095 383.849L318.408 387.455L312.194 391.124L305.466 394.861L298.239 398.67L290.528 402.554L282.35 406.517L273.721 410.56L264.661 414.687L255.187 418.898L245.321 423.194L235.082 427.576L224.493 432.043L213.574 436.594L202.349 441.228L190.842 445.941L179.074 450.732L167.071 455.596L-48.8974 542.803L-60.9119 547.637L-72.706 552.36L-84.2599 556.959L-95.5544 561.418L-106.571 565.725L-117.293 569.863L-127.703 573.819L-137.786 577.578L-147.527 581.125L-156.913 584.447L-165.93 587.528L-174.566 590.355L-182.812 592.914L-190.658 595.191L-198.094 597.174L-205.114 598.848L-211.71 600.202L-217.879 601.224L-223.614 601.903L-228.914 602.227L-233.775 602.186L-238.197 601.771L-242.18 600.973L-245.724 599.784L-248.832 598.196L-251.507 596.203L-253.751 593.799L-255.571 590.98L-256.972 587.741L-257.961 584.079L-258.544 579.993L-258.73 575.482L-258.529 570.545L-257.95 565.183L-257.003 559.398L-255.699 553.194L-254.051 546.575L-252.07 539.545L-249.769 532.111L-247.161 524.28L-244.261 516.061L-241.081 507.462L-237.636 498.495L-233.941 489.17L-230.01 479.501L-225.859 469.499L-221.503 459.181L-216.955 448.561L-212.233 437.655L-207.35 426.48L-202.322 415.054L-197.164 403.397L-191.89 391.527L-97.1497 178.865L-91.882 167.088L-86.6968 155.548L-81.5985 144.27L-76.5908 133.275L-71.6767 122.588L-66.8586 112.231L-62.138 102.225L-57.5162 92.592L-52.9933 83.3523L-48.5691 74.5258L-44.2428 66.1313L-40.0129 58.187L-35.8773 50.7101L-31.8336 43.7169L-27.8783 37.2226L-24.0081 31.2415L-20.2189 25.7869L-16.5061 20.8709L-12.8648 16.5044L-9.2897 12.6973L-5.77535 9.4582L-2.31568 6.79456L1.09537 4.71259L4.46414 3.21725L7.79726 2.31225L11.1014 2L14.3832 2.28168L17.6497 3.15713L20.9075 4.62502L24.1636 6.68259L27.4246 9.32593L30.6972 12.5498L33.9879 16.3478L37.3031 20.7122L40.6485 25.634L44.0302 31.1033L47.4536 37.1086L50.9239 43.6376L54.4457 50.6768L58.0235 58.2116L61.6613 66.2265L65.3625 74.7046L69.1299 83.6286L72.9661 92.9799L76.873 102.739L80.8518 112.886L84.9034 123.4L89.0279 134.26L93.2246 145.442L97.4926 156.925L101.83 168.684L106.234 180.697L110.703 192.938L190.353 411.667L194.731 423.755L199.001 435.611L203.149 447.215L207.162 458.549L211.027 469.592L214.728 480.329L218.253 490.742L221.587 500.816L224.716 510.535L227.627 519.886L230.305 528.856L232.737 537.433L234.91 545.607L236.81 553.367L238.424 560.705L239.741 567.613L240.747 574.086L241.433 580.117L241.785 585.702L241.795 590.839L241.451 595.524L240.746 599.758L239.669 603.539L238.214 606.87L236.373 609.751L234.139 612.187L231.508 614.18L228.474 615.737L225.035 616.863L221.186 617.565L216.926 617.85L212.254 617.727L207.17 617.206L201.675 616.296L195.771 615.009L189.462 613.355L182.75 611.347L175.642 608.996L168.144 606.317L160.262 603.323L152.005 600.028L143.382 596.447L134.404 592.593L125.081 588.483L115.427 584.131L105.453 579.553L95.1749 574.765L84.6073 569.781L73.7661 564.619L62.6682 559.293L51.3314 553.818L39.7741 548.212L-181.274 440.459L-192.782 434.82L-204.046 429.274L-215.044 423.825L-225.753 418.478L-236.149 413.236L-246.21 408.103L-255.915 403.081L-265.243 398.17L-274.174 393.372L-282.688 388.687L-290.766 384.115L-298.391 379.655L-305.545 375.304L-312.214 371.061L-318.381 366.922L-324.032 362.885L-329.156 358.946L-333.739 355.101L-337.771 351.344L-341.243 347.671L-344.146 344.076L-346.472 340.554L-348.217 337.099L-349.375 333.703L-349.943 330.362L-349.918 327.068L-349.3 323.814L-348.09 320.594L-346.287 317.4L-343.897 314.226L-340.922 311.065L-337.368 307.911L-333.243 304.755L-328.553 301.593L-323.309 298.418L-317.519 295.223L-311.197 292.003L-304.354 288.753L-297.005 285.467L-289.163 282.141L-280.846 278.77L-272.069 275.351L-262.851 271.879L-253.211 268.353L-243.167 264.77L-232.741 261.128L-221.953 257.425L-210.826 253.662L-199.382 249.838L-187.643 245.953L-175.635 242.009L-163.38 238.008L58.1347 166.071L70.5114 162.064L82.666 158.149L94.5774 154.339L106.225 150.646L117.59 147.083L128.654 143.664L139.398 140.401L149.806 137.309L159.863 134.401L169.552 131.69L178.86 129.189L187.775 126.913L196.284 124.873L204.376 123.083L212.041 121.556L219.272 120.303L226.06 119.338L232.399 118.671L238.283 118.314L243.709 118.278L248.673 118.573L253.173 119.207L257.208 120.191L260.778 121.533L263.884 123.24L266.529 125.32L268.716 127.778L270.448 130.619L271.732 133.849L272.573 137.471L272.979 141.488L272.957 145.901L272.516 150.712L271.665 155.92L270.416 161.525L268.779 167.523L266.766 173.914L264.389 180.691L261.661 187.851L258.596 195.387L255.208 203.292L251.511 211.558L247.521 220.176L243.252 229.135L238.72 238.426L233.941 248.035L228.931 257.949L223.705 268.156L218.281 278.638L212.674 289.382L206.9 300.37L200.976 311.585L194.918 323.009L85.5653 528.556L79.4645 539.991L73.461 551.202L67.5609 562.164L61.7697 572.855L56.0922 583.251L50.5326 593.331L45.0941 603.072L39.7795 612.454L34.5906 621.455L29.529 630.056L24.595 638.237L19.7888 645.98L15.1095 653.269L10.556 660.085L6.12623 666.413L1.81778 672.239L-2.37227 677.549L-6.44758 682.329L-10.4121 686.569L-14.2702 690.259L-18.027 693.388L-21.6875 695.949L-25.2575 697.934L-28.7429 699.338L-32.1498 700.157L-35.4849 700.388L-38.7545 700.027L-41.9656 699.076L-45.125 697.533L-48.2397 695.402L-51.3168 692.685L-54.3631 689.387L-57.3856 685.513L-60.3912 681.071L-63.3865 676.068L-66.3782 670.514L-69.3724 664.419L-72.3754 657.796L-75.3928 650.656L-78.4302 643.015L-81.4926 634.887L-84.5847 626.287L-87.711 617.234L-90.875 607.745L-94.0803 597.84L-97.3297 587.537L-100.626 576.858L-103.97 565.824L-107.363 554.456L-110.806 542.779L-114.3 530.814L-117.843 518.587L-121.434 506.121L-185.636 282.346L-189.18 269.925L-192.636 257.738L-195.992 245.805L-199.235 234.147L-202.352 222.783L-205.332 211.733L-208.162 201.013L-210.828 190.641L-213.318 180.633L-215.619 171.004L-217.717 161.768L-219.601 152.937L-221.257 144.525L-222.673 136.541L-223.837 128.996L-224.737 121.899L-225.361 115.256L-225.698 109.074L-225.737 103.359L-225.468 98.1149L-224.88 93.3446L-223.965 89.0502L-222.713 85.2326L-221.117 81.8916L-219.169 79.0258L-216.863 76.633L-214.192 74.7096L-211.151 73.2514L-207.736 72.2529L-203.944 71.7077L-199.771 71.6086L-195.215 71.9474L-190.277 72.7149L-184.956 73.9013L-179.252 75.4959L-173.169 77.4874L-166.709 79.8636L-159.876 82.6118L-152.675 85.7185L-145.112 89.1699L-137.193 92.9514L-128.928 97.0481L-120.324 101.445L-111.392 106.126L-102.143 111.075L-92.5887 116.276L-82.7416 121.712L-72.6156 127.368L-62.2255 133.225L-51.5867 139.268L-40.7156 145.479L-29.6294 151.842L-18.3459 158.341L183.357 274.732L194.499 281.186L205.411 287.533L216.069 293.765L226.452 299.877L236.536 305.863L246.299 311.719L255.719 317.44L264.777 323.024L273.451 328.469L281.722 333.771L289.571 338.932L296.98 343.949L303.932 348.824L310.41 353.557L316.399 358.151L321.884 362.606L326.853 366.926L331.292 371.115L335.19 375.175L338.538 379.112L341.326 382.929L343.545 386.633L345.191 390.228L346.256 393.721L346.738 397.117L346.632 400.423L345.937 403.646L344.653 406.793L342.781 409.869L340.322 412.883L337.281 415.842L333.661 418.752L329.469 421.622L324.711 424.457L319.397 427.264L313.536 430.052L307.138 432.826L300.215 435.592L292.781 438.357L284.85 441.126L276.437 443.906L267.558 446.7L258.231 449.515L248.473 452.353L238.305 455.22L227.745 458.118L216.816 461.051L205.537 464.019L193.933 467.027L182.025 470.073L169.837 473.16L157.394 476.287L-81.2406 535.751L-93.6986 538.83L-105.912 541.823L-117.86 544.721L-129.521 547.512L-140.877 550.184L-151.908 552.724L-162.596 555.121L-172.924 557.363L-182.876 559.436L-192.438 561.329L-201.594 563.029L-210.332 564.525L-218.639 565.803L-226.506 566.852L-233.922 567.66L-240.878 568.215L-247.367 568.506L-253.383 568.523L-258.92 568.255L-263.973 567.691L-268.541 566.823L-272.621 565.641L-276.212 564.136L-279.315 562.301L-281.931 560.129L-284.063 557.612L-285.713 554.746L-286.888 551.525L-287.592 547.944L-287.833 544.001L-287.617 539.693L-286.953 535.017L-285.85 529.974L-284.319 524.563L-282.371 518.786L-280.017 512.643L-277.27 506.139L-274.143 499.276L-270.65 492.061L-266.805 484.498L-262.623 476.594L-258.12 468.358L-253.311 459.798L-248.212 450.924L-242.84 441.747L-237.212 432.278L-231.345 422.529L-225.255 412.515L-218.961 402.249L-212.479 391.747L-205.827 381.026L-199.022 370.101L-75.604 172.695L-68.6928 161.661L-61.8922 150.839L-55.2101 140.252L-48.654 129.922L-42.2303 119.873L-35.9449 110.125L-29.8028 100.702L-23.8085 91.6233L-17.9654 82.9103L-12.2764 74.5828L-6.74366 66.6601L-1.36869 59.1608L3.8479 52.1024L8.90611 45.5021L13.8065 39.3758L18.5503 33.7386L23.1395 28.6048L27.5764 23.9873L31.8644 19.8985L36.0068 16.3491L40.0077 13.3493L43.872 10.9077L47.6043 9.03202L51.2103 7.72857L54.6957 7.00255L58.0665 6.85799L61.3293 7.29755L64.4906 8.32272L67.5575 9.93374L70.5368 12.1295L73.4358 14.9077L76.2618 18.2647L79.0221 22.1956L81.7239 26.6943L84.3745 31.7536L86.9812 37.3647L89.551 43.5179L92.0909 50.2022L94.6075 57.4055L97.1074 65.1145L99.5967 73.3148L102.081 81.991L104.567 91.1266L107.059 100.704L109.561 110.705L112.079 121.11L114.616 131.899L117.176 143.052L119.761 154.545L122.374 166.357L125.016 178.465L127.689 190.845L130.393 203.472L178.823 431.177L181.509 443.871L184.125 456.332L186.662 468.538L189.107 480.467L191.452 492.098L193.684 503.413L195.791 514.392L197.763 525.017L199.587 535.27L201.252 545.136L202.746 554.6L204.057 563.648L205.174 572.266L206.083 580.442L206.775 588.166L207.237 595.427L207.458 602.217L207.428 608.529L207.136 614.357L206.571 619.694L205.725 624.537L204.587 628.883L203.149 632.73L201.403 636.078L199.341 638.927L196.956 641.278L194.241 643.135L191.192 644.501L187.802 645.381L184.068 645.781L179.986 645.707L175.555 645.168L170.771 644.172L165.635 642.729L160.146 640.849L154.305 638.544L148.114 635.826L141.577 632.707L134.696 629.201L127.477 625.323L119.925 621.086L112.047 616.508L103.85 611.602L95.3433 606.385L86.5364 600.875L77.4397 595.088L68.0645 589.041L58.4231 582.752L48.5288 576.238L38.3958 569.518L28.0387 562.609L17.4736 555.529L6.7169 548.295L-186.39 418.117L-197.107 410.872L-207.607 403.748L-217.869 396.754L-227.869 389.897L-237.586 383.185L-246.997 376.624L-256.081 370.22L-264.818 363.976L-273.187 357.898L-281.168 351.989L-288.744 346.25L-295.895 340.685L-302.604 335.293L-308.854 330.075L-314.63 325.032L-319.917 320.162L-324.701 315.462L-328.969 310.932L-332.71 306.569L-335.912 302.368L-338.566 298.325L-340.664 294.438L-342.198 290.7L-343.162 287.106L-343.551 283.65L-343.361 280.327L-342.591 277.13L-341.237 274.052L-339.302 271.086L-336.785 268.225L-333.69 265.462L-330.021 262.789L-325.781 260.2L-320.979 257.685L-315.621 255.239L-309.715 252.853L-303.273 250.52L-296.306 248.232L-288.824 245.984L-280.843 243.767L-272.377 241.575L-263.441 239.403L-254.051 237.243L-244.227 235.091L-233.985 232.94L-223.346 230.787L-212.331 228.626L-200.959 226.454L-189.254 224.267L-177.237 222.063L-164.933 219.839L-152.364 217.593L-139.556 215.323L89.8228 174.905L102.525 172.687L114.983 170.534L127.174 168.456L139.078 166.462L150.674 164.563L161.941 162.769L172.861 161.092L183.415 159.542L193.587 158.131L203.361 156.87L212.72 155.769L221.651 154.841L230.142 154.097L238.179 153.548L245.752 153.206L252.851 153.08L259.468 153.182L265.594 153.523L271.225 154.112L276.355 154.96L280.979 156.076L285.095 157.468L288.701 159.146L291.797 161.118L294.384 163.39L296.463 165.97L298.036 168.864L299.109 172.078L299.686 175.616L299.773 179.483L299.378 183.681L298.508 188.214L297.172 193.083L295.38 198.289L293.144 203.832L290.475 209.71L287.385 215.923L283.887 222.468L279.996 229.34L275.726 236.536L271.092 244.049L266.111 251.874L260.797 260.002L255.168 268.426L249.241 277.136L243.034 286.122L236.564 295.372L229.849 304.876L222.908 314.619L215.759 324.588L208.42 334.769L200.909 345.146L56.3519 544.002L48.78 554.377L41.3403 564.532L34.0422 574.444L26.8936 584.092L19.9023 593.453L13.075 602.506L6.41783 611.231L-0.0641783 619.607L-6.36651 627.614L-12.4855 635.232L-18.4183 642.444L-24.1627 649.232L-29.7173 655.578L-35.0815 661.466L-40.2552 666.88L-45.2393 671.807L-50.035 676.233L-54.6445 680.144L-59.0705 683.531L-63.3161 686.381L-67.3852 688.686L-71.2821 690.438L-75.0118 691.63L-78.5794 692.255L-81.9906 692.309L-85.2517 691.789L-88.3691 690.692L-91.3495 689.017L-94.2001 686.764L-96.928 683.936L-99.5407 680.534L-102.046 676.564L-104.451 672.029L-106.764 666.937L-108.993 661.295L-111.145 655.113L-113.228 648.4L-115.25 641.168L-117.219 633.43L-119.14 625.198L-121.022 616.488L-122.871 607.316L-124.694 597.698L-126.497 587.652L-128.285 577.197L-130.065 566.352L-131.84 555.139L-133.615 543.577L-135.396 531.69L-137.184 519.501L-138.983 507.031L-140.796 494.307L-173.215 263.809L-175.02 250.903L-176.774 238.228L-178.469 225.807L-180.095 213.663L-181.643 201.818L-183.104 190.291L-184.466 179.104L-185.721 168.274L-186.856 157.821L-187.863 147.76L-188.73 138.109L-189.446 128.883L-190.001 120.095L-190.383 111.76L-190.581 103.887L-190.586 96.49L-190.386 89.5769L-189.972 83.1566L-189.332 77.2365L-188.457 71.8229L-187.338 66.9207L-185.965 62.5339L-184.33 58.6651L-182.424 55.3159L-180.24 52.4864L-177.769 50.1761L-175.007 48.3828L-171.946 47.1035L-168.58 46.334L-164.906 46.069L-160.919 46.3023L-156.616 47.0263L-151.995 48.2329L-147.053 49.9127L-141.79 52.0554L-136.205 54.6498L-130.3 57.684L-124.076 61.1452L-117.536 65.0198L-110.684 69.2935L-103.523 73.9513L-96.0589 78.9778L-88.2984 84.3566L-80.2486 90.0711L-71.9175 96.1042L-63.314 102.438L-54.4483 109.055L-45.3311 115.937L-35.9742 123.066L-26.3901 130.422L-16.5924 137.986L-6.59517 145.741L3.5864 153.666L187.133 296.982L197.367 304.989L207.399 312.863L217.208 320.594L226.771 328.171L236.066 335.586L245.072 342.831L253.769 349.9L262.135 356.784L270.152 363.479L277.798 369.981L285.055 376.284L291.906 382.386L298.332 388.284L304.317 393.977L309.845 399.463L314.9 404.742L319.47 409.815L323.54 414.683L327.098 419.348L330.133 423.812L332.635 428.079L334.594 432.152L336.004 436.035L336.856 439.733L337.146 443.252L336.869 446.597L336.021 449.774L334.601 452.79L332.608 455.652L330.043 458.366L326.906 460.941L323.202 463.383L318.934 465.701L314.107 467.903L308.73 469.996L302.808 471.988L296.352 473.889L289.373 475.705L281.88 477.444L273.888 479.115L265.41 480.725L256.46 482.282L247.056 483.793L237.212 485.264L226.949 486.702L216.284 488.114L205.238 489.506L193.83 490.883L182.083 492.25L170.018 493.612L157.659 494.973L145.029 496.336L132.153 497.705L-99.5012 522.039L-112.386 523.376L-125.029 524.668L-137.406 525.906L-149.496 527.083L-161.277 528.188L-172.729 529.213L-183.831 530.149L-194.564 530.986L-204.91 531.714L-214.852 532.323L-224.374 532.802L-233.461 533.142L-242.098 533.332L-250.273 533.361L-257.973 533.22L-265.188 532.898L-271.907 532.384L-278.124 531.67L-283.83 530.744L-289.019 529.598L-293.687 528.222L-297.829 526.608L-301.443 524.746L-304.528 522.63L-307.083 520.25L-309.11 517.6L-310.61 514.674L-311.588 511.466L-312.046 507.97L-311.992 504.181L-311.431 500.096L-310.372 495.711L-308.822 491.023L-306.791 486.032L-304.291 480.736L-301.331 475.134L-297.926 469.229L-294.087 463.02L-289.83 456.511L-285.168 449.705L-280.117 442.607L-274.692 435.22L-268.912 427.552L-262.792 419.61L-256.35 411.4L-249.604 402.933L-242.574 394.217L-235.276 385.263L-227.731 376.083L-219.958 366.688L-211.976 357.092L-203.805 347.309L-195.463 337.354L-45.741 159.028L-37.4279 149.157L-29.2594 139.49L-21.2461 130.05L-13.3984 120.858L-5.7253 111.936L1.76469 103.304L9.06406 94.9828L16.1657 86.9926L23.0638 79.3531L29.7532 72.0831L36.2294 65.2014L42.4888 58.7256L48.5286 52.673L54.3469 47.0598L59.9423 41.9017L65.3146 37.2134L70.4637 33.0087L75.3909 29.3005L80.0978 26.1008L84.5866 23.4204L88.8605 21.2692L92.9229 19.656L96.7783 18.5885L100.431 18.0732L103.887 18.1154L107.151 18.7194L110.23 19.8882L113.13 21.6235L115.859 23.9259L118.423 26.7947L120.831 30.2279L123.089 34.2225L125.206 38.7739L127.19 43.8766L129.05 49.5236L130.794 55.7068L132.429 62.417L133.965 69.6436L135.41 77.375L136.772 85.5983L138.06 94.2998L139.28 103.464L140.441 113.076L141.55 123.117L142.614 133.57L143.641 144.416L144.636 155.635L145.606 167.207L146.556 179.108L147.492 191.319L148.418 203.815L149.339 216.572L150.259 229.568L166.499 461.768L167.374 474.596L168.209 487.172L168.997 499.472L169.729 511.475L170.399 523.159L170.997 534.504L171.514 545.488L171.942 556.095L172.27 566.304L172.49 576.099L172.592 585.463L172.566 594.383L172.402 602.843L172.089 610.831L171.619 618.335L170.981 625.344L170.166 631.849L169.163 637.841L167.964 643.312L166.559 648.258L164.939 652.673L163.095 656.554L161.02 659.898L158.705 662.705L156.144 664.973L153.328 666.705L150.251 667.902L146.909 668.568L143.295 668.709L139.404 668.328L135.233 667.435L130.779 666.035L126.039 664.139L121.011 661.756L115.695 658.897L110.089 655.574L104.194 651.799L98.0129 647.586L91.5467 642.95L84.799 637.905L77.7736 632.467L70.4756 626.653L62.9105 620.479L55.0853 613.963L47.0075 607.124L38.6855 599.979L30.1286 592.548L21.3471 584.849L12.3519 576.902L3.15501 568.727L-6.23094 560.344L-15.7924 551.773L-198.56 387.301L-208.069 378.708L-217.37 370.271L-226.442 362.002L-235.263 353.91L-243.814 346.006L-252.073 338.298L-260.02 330.794L-267.636 323.502L-274.902 316.427L-281.798 309.576L-288.306 302.953L-294.41 296.562L-300.092 290.407L-305.337 284.488L-310.129 278.809L-314.453 273.369L-318.297 268.168L-321.647 263.207L-324.493 258.482L-326.822 253.993L-328.627 249.735L-329.898 245.706L-330.628 241.901L-330.811 238.316L-330.441 234.946L-329.515 231.784L-328.029 228.824L-325.983 226.06L-323.376 223.484L-320.209 221.09L-316.483 218.869L-312.203 216.814L-307.373 214.916L-301.999 213.167L-296.087 211.558L-289.647 210.08L-282.687 208.725L-275.218 207.485L-267.252 206.35L-258.803 205.312L-249.883 204.362L-240.508 203.492L-230.694 202.693L-220.459 201.959L-209.821 201.281L-198.798 200.651L-187.411 200.064L-175.68 199.511L-163.628 198.987L-151.276 198.487L-138.648 198.004L-125.767 197.533L107.006 189.405L120.011 188.963L132.777 188.548L145.28 188.166L157.499 187.824L169.41 187.53L180.991 187.29L192.223 187.113L203.085 187.008L213.558 186.981L223.624 187.043L233.266 187.203L242.468 187.469L251.214 187.851L259.492 188.358L267.287 189L274.588 189.787L281.385 190.727L287.668 191.831L293.428 193.107L298.66 194.565L303.356 196.213L307.512 198.061L311.125 200.116L314.193 202.387L316.714 204.881L318.689 207.606L320.118 210.569L321.006 213.775L321.355 217.231L321.17 220.941L320.458 224.911L319.225 229.145L317.48 233.645L315.231 238.414L312.49 243.454L309.267 248.767L305.574 254.352L301.425 260.209L296.833 266.337L291.813 272.734L286.38 279.396L280.551 286.321L274.343 293.503L267.772 300.937L260.857 308.617L253.616 316.534L246.069 324.682L238.234 333.051L230.131 341.631L221.781 350.412L213.203 359.382L204.417 368.529L195.445 377.84L33.6401 545.299L24.6202 554.613L15.7556 563.738L7.0588 572.652L-1.45845 581.336L-9.78542 589.769L-17.9119 597.929L-25.8285 605.798L-33.527 613.356L-40.9997 620.582L-48.2399 627.459L-55.2416 633.969L-62 640.092L-68.5107 645.814L-74.7704 651.116L-80.7767 655.983L-86.5277 660.402L-92.0225 664.356L-97.2612 667.834L-102.244 670.824L-106.973 673.312L-111.45 675.291L-115.678 676.75L-119.66 677.68L-123.4 678.076L-126.903 677.93L-130.175 677.239L-133.221 675.998L-136.047 674.204L-138.661 671.857L-141.07 668.956L-143.28 665.503L-145.301 661.499L-147.14 656.949L-148.806 651.856L-150.307 646.228L-151.653 640.07L-152.852 633.393L-153.913 626.204L-154.846 618.515L-155.659 610.338L-156.362 601.686L-156.964 592.573L-157.473 583.014L-157.899 573.026L-158.249 562.625L-158.531 551.831L-158.755 540.661L-158.927 529.137L-159.054 517.279L-159.144 505.108L-159.203 492.648L-159.236 479.921L-159.251 466.951L-159.249 234.157L-159.231 221.239L-159.192 208.569L-159.127 196.171L-159.029 184.068L-158.893 172.282L-158.71 160.835L-158.474 149.747L-158.177 139.038L-157.811 128.727L-157.368 118.833L-156.839 109.372L-156.215 100.36L-155.488 91.812L-154.649 83.7423L-153.689 76.1636L-152.598 69.0875L-151.367 62.5244L-149.988 56.4838L-148.45 50.9737L-146.747 46.001L-144.868 41.5716L-142.806 37.6898L-140.552 34.3589L-138.099 31.5811L-135.439 29.3569L-132.564 27.6862L-129.468 26.5673L-126.146 25.9974L-122.59 25.9725L-118.797 26.4875L-114.76 27.5361L-110.478 29.111L-105.945 31.2037L-101.16 33.8047L-96.1201 36.9034L-90.8246 40.4884L-85.2728 44.5471L-79.465 49.0664L-73.4024 54.0318L-67.0866 59.4284L-60.5207 65.2404L-53.7079 71.4513L-46.6527 78.0437L-39.3603 85L-31.8369 92.3018L-24.0893 99.93L-16.1252 107.865L-7.95351 116.088L0.416623 124.578L8.97473 133.315L17.7098 142.278L26.61 151.447L35.6626 160.8L197.452 328.248L206.385 337.524L215.126 346.633L223.655 355.562L231.952 364.299L239.997 372.833L247.77 381.154L255.251 389.251L262.421 397.117L269.261 404.742L275.753 412.121L281.879 419.246L287.622 426.113L292.964 432.717L297.89 439.054L302.385 445.122L306.434 450.919L310.024 456.444L313.141 461.696L315.774 466.676L317.911 471.385L319.544 475.826L320.662 480L321.257 483.912L321.324 487.566L320.856 490.966L319.848 494.117L318.297 497.027L316.201 499.7L313.559 502.144L310.37 504.366L306.636 506.375L302.36 508.177L297.544 509.783L292.195 511.199L286.318 512.436L279.92 513.503L273.01 514.408L265.599 515.162L257.695 515.773L249.312 516.252L240.463 516.607L231.163 516.849L221.425 516.986L211.267 517.027L200.706 516.983L189.76 516.86L178.449 516.669L166.793 516.417L154.812 516.111L142.528 515.76L129.964 515.37L117.143 514.948L-128.647 506.37L-141.474 505.898L-154.043 505.411L-166.33 504.906L-178.313 504.376L-189.969 503.816L-201.277 503.22L-212.217 502.58L-222.767 501.89L-232.91 501.142L-242.628 500.329L-251.903 499.442L-260.72 498.473L-269.063 497.414L-276.92 496.256L-284.277 494.991L-291.122 493.61L-297.446 492.104L-303.239 490.465L-308.493 488.683L-313.201 486.751L-317.359 484.659L-320.96 482.401L-324.003 479.967L-326.486 477.35L-328.408 474.543L-329.769 471.539L-330.571 468.331L-330.818 464.914L-330.513 461.28L-329.662 457.426L-328.272 453.347L-326.35 449.038L-323.905 444.496L-320.946 439.719L-317.486 434.705L-313.534 429.451L-309.105 423.958L-304.211 418.225L-298.868 412.254L-293.091 406.046L-286.896 399.603L-280.299 392.929L-273.32 386.028L-265.975 378.905L-258.284 371.565L-250.265 364.015L-241.94 356.263L-233.327 348.316L-224.448 340.184L-215.324 331.877L-205.975 323.404L-196.422 314.779L-23.3431 159.02L-13.655 150.316L-4.13124 141.785L5.21385 133.446L14.367 125.32L23.3158 117.427L32.0484 109.786L40.554 102.416L48.8225 95.3376L56.8449 88.5684L64.6129 82.1272L72.1193 76.0317L79.3572 70.2996L86.3213 64.9476L93.0069 59.992L99.4101 55.4485L105.528 51.3319L111.358 47.6563L116.9 44.4351L122.153 41.6808L127.117 39.4049L131.793 37.6182L136.184 36.3303L140.292 35.55L144.121 35.2848L147.674 35.5414L150.957 36.3254L153.975 37.641L156.734 39.4916L159.24 41.8793L161.501 44.805L163.525 48.2684L165.318 52.2681L166.889 56.8014L168.248 61.8646L169.402 67.4524L170.363 73.5588L171.138 80.1761L171.738 87.2958L172.172 94.9081L172.45 103.002L172.583 111.565L172.58 120.585L172.451 130.047L172.206 139.935L171.855 150.234L171.407 160.926L170.871 171.992L170.256 183.414L169.572 195.17L168.826 207.241L168.027 219.605L167.183 232.239L166.3 245.12L150.054 477.345L149.135 490.289L148.213 502.991L147.285 515.425L146.347 527.569L145.392 539.399L144.417 550.894L143.416 562.032L142.381 572.793L141.308 583.156L140.188 593.104L139.014 602.617L137.78 611.68L136.477 620.277L135.097 628.392L133.633 636.012L132.075 643.125L130.416 649.719L128.647 655.784L126.761 661.311L124.748 666.292L122.6 670.72L120.309 674.59L117.868 677.898L115.268 680.642L112.501 682.818L109.562 684.428L106.443 685.471L103.136 685.95L99.6373 685.868L95.9399 685.229L92.039 684.04L87.9299 682.307L83.6086 680.037L79.0715 677.241L74.3159 673.927L69.3396 670.107L64.141 665.794L58.7192 661L53.0742 655.74L47.2066 650.028L41.1179 643.88L34.81 637.312L28.2862 630.343L21.5501 622.989L14.6063 615.27L7.46016 607.205L0.117871 598.813L-7.41347 590.114L-15.1261 581.13L-23.0115 571.882L-31.06 562.389L-39.2616 552.675L-47.6053 542.761L-197.329 364.429L-205.634 354.51L-213.766 344.768L-221.703 335.215L-229.427 325.867L-236.919 316.736L-244.158 307.834L-251.127 299.173L-257.807 290.762L-264.179 282.611L-270.225 274.728L-275.928 267.122L-281.271 259.799L-286.237 252.765L-290.811 246.025L-294.976 239.582L-298.72 233.441L-302.027 227.603L-304.886 222.069L-307.283 216.841L-309.208 211.917L-310.65 207.297L-311.599 202.979L-312.048 198.96L-311.989 195.236L-311.416 191.804L-310.322 188.659L-308.705 185.795L-306.561 183.206L-303.888 180.885L-300.686 178.826L-296.955 177.02L-292.696 175.459L-287.912 174.135L-282.608 173.039L-276.788 172.161L-270.459 171.492L-263.628 171.022L-256.305 170.741L-248.498 170.638L-240.22 170.704L-231.482 170.928L-222.297 171.3L-212.681 171.809L-202.647 172.445L-192.213 173.198L-181.397 174.058L-170.216 175.014L-158.689 176.058L-146.838 177.18L-134.682 178.371L-122.244 179.622L-109.545 180.924L-96.6097 182.271L135.032 206.607L147.856 207.975L160.428 209.337L172.723 210.698L184.719 212.06L196.393 213.429L207.722 214.809L218.686 216.204L229.263 217.622L239.435 219.067L249.182 220.546L258.487 222.067L267.334 223.634L275.705 225.257L283.587 226.943L290.967 228.699L297.832 230.533L304.169 232.453L309.971 234.467L315.227 236.584L319.93 238.811L324.073 241.156L327.652 243.627L330.662 246.232L333.1 248.978L334.966 251.873L336.259 254.925L336.979 258.138L337.131 261.521L336.715 265.079L335.739 268.818L334.207 272.743L332.126 276.859L329.505 281.169L326.353 285.677L322.68 290.387L318.498 295.301L313.82 300.42L308.658 305.745L303.027 311.277L296.943 317.015L290.421 322.959L283.478 329.106L276.133 335.453L268.403 341.998L260.307 348.736L251.866 355.662L243.099 362.77L234.026 370.053L224.67 377.505L215.05 385.117L205.19 392.88L195.111 400.785L1.31057 552.115L-8.83144 560.004L-18.7856 567.718L-28.5371 575.238L-38.0718 582.545L-47.3766 589.62L-56.4389 596.445L-65.2474 603L-73.7911 609.269L-82.0605 615.233L-90.0468 620.875L-97.742 626.177L-105.139 631.123L-112.232 635.697L-119.015 639.883L-125.485 643.667L-131.639 647.034L-137.473 649.972L-142.986 652.467L-148.178 654.508L-153.049 656.083L-157.599 657.184L-161.832 657.8L-165.749 657.923L-169.354 657.546L-172.651 656.664L-175.646 655.271L-178.343 653.363L-180.749 650.938L-182.871 647.993L-184.716 644.528L-186.292 640.544L-187.608 636.043L-188.672 631.026L-189.494 625.5L-190.083 619.468L-190.449 612.938L-190.602 605.916L-190.554 598.413L-190.313 590.437L-189.892 581.999L-189.301 573.113L-188.55 563.791L-187.651 554.048L-186.615 543.899L-185.452 533.36L-184.172 522.45L-182.787 511.185L-181.307 499.586L-179.74 487.672L-178.098 475.465L-176.39 462.986L-174.623 450.258L-142.217 219.761L-140.392 206.854L-138.582 194.184L-136.786 181.775L-135 169.651L-133.221 157.834L-131.446 146.348L-129.67 135.215L-127.889 124.455L-126.098 114.089L-124.291 104.136L-122.463 94.6158L-120.607 85.5447L-118.717 76.9397L-116.786 68.8164L-114.806 61.1892L-112.771 54.0714L-110.673 47.4755L-108.505 41.4124L-106.258 35.892L-103.925 30.9231L-101.498 26.5131L-98.9701 22.6683L-96.3324 19.3937L-93.5779 16.6931L-90.6992 14.5688L-87.689 13.0222L-84.5403 12.0533L-81.2464 11.6607L-77.8009 11.8419L-74.1978 12.5933L-70.4315 13.9098L-66.4968 15.7852L-62.3888 18.2123L-58.1035 21.1827L-53.6371 24.6866L-48.9864 28.7134L-44.1489 33.2513L-39.1229 38.2877L-33.9069 43.8087L-28.5004 49.7997L-22.9035 56.245L-17.1172 63.1282L-11.1428 70.4321L-4.98285 78.1386L1.3597 86.229L7.88104 94.684L14.5765 103.484L21.4407 112.607L28.4675 122.034L35.65 131.742L42.9803 141.71L50.4501 151.916L58.0501 162.337L194.96 350.663L202.591 361.181L210.065 371.516L217.363 381.651L224.468 391.572L231.361 401.263L238.023 410.711L244.436 419.904L250.582 428.83L256.444 437.477L262.005 445.836L267.246 453.898L272.152 461.654L276.706 469.097L280.894 476.221L284.698 483.021L288.107 489.492L291.104 495.631L293.679 501.435L295.817 506.903L297.508 512.034L298.741 516.829L299.507 521.287L299.796 525.412L299.601 529.205L298.914 532.671L297.73 535.813L296.045 538.637L293.853 541.148L291.154 543.353L287.945 545.259L284.225 546.873L279.996 548.203L275.259 549.258L270.018 550.048L264.277 550.581L258.04 550.868L251.316 550.919L244.111 550.744L236.434 550.355L228.295 549.761L219.706 548.975L210.678 548.008L201.226 546.871L191.363 545.575L181.104 544.132L170.467 542.553L159.468 540.849L148.127 539.031L136.461 537.11L124.491 535.097L112.239 533.001L99.7247 530.833L86.9717 528.602L-142.419 488.178L-155.176 485.914L-167.688 483.673L-179.931 481.453L-191.88 479.253L-203.514 477.07L-214.808 474.901L-225.742 472.742L-236.294 470.59L-246.445 468.439L-256.174 466.285L-265.465 464.123L-274.298 461.947L-282.658 459.75L-290.529 457.527L-297.898 455.271L-304.75 452.974L-311.073 450.63L-316.858 448.231L-322.093 445.77L-326.772 443.239L-330.885 440.632L-334.427 437.94L-337.394 435.156L-339.782 432.272L-341.588 429.282L-342.812 426.178L-343.454 422.954L-343.515 419.602L-342.997 416.116L-341.907 412.49L-340.247 408.719L-338.025 404.798L-335.248 400.721L-331.925 396.484L-328.067 392.084L-323.683 387.516L-318.786 382.779L-313.389 377.87L-307.506 372.788L-301.153 367.532L-294.344 362.102L-287.098 356.498L-279.431 350.721L-271.361 344.774L-262.909 338.659L-254.093 332.379L-244.935 325.94L-235.454 319.345L-225.673 312.6L-215.612 305.712L-205.296 298.688L-194.745 291.537L-183.983 284.266L9.12106 154.093L19.8367 146.893L30.3569 139.849L40.6655 132.98L50.7468 126.304L60.5861 119.839L70.1696 113.602L79.484 107.611L88.5173 101.884L97.2584 96.4377L105.697 91.2889L113.824 86.4543L121.63 81.9501L129.109 77.792L136.253 73.9952L143.058 70.5742L149.519 67.5432L155.632 64.9155L161.395 62.7037L166.806 60.92L171.864 59.5752L176.569 58.6798L180.923 58.2433L184.927 58.2741L188.584 58.7799L191.898 59.7673L194.873 61.2419L197.514 63.2083L199.826 65.67L201.818 68.6296L203.495 72.0882L204.865 76.0463L205.938 80.5029L206.72 85.456L207.224 90.9024L207.457 96.8377L207.43 103.257L207.154 110.152L206.641 117.517L205.9 125.342L204.943 133.617L203.783 142.332L202.43 151.473L200.897 161.027L199.196 170.981L197.337 181.318L195.334 192.023L193.198 203.078L190.941 214.465L188.573 226.164L186.106 238.157L183.551 250.421L180.918 262.935L178.219 275.678L129.79 503.359L127.093 515.933L124.427 528.255L121.791 540.299L119.185 552.043L116.606 563.462L114.051 574.536L111.519 585.241L109.005 595.558L106.505 605.467L104.015 614.948L101.53 623.983L99.0446 632.555L96.5534 640.647L94.0504 648.245L91.5292 655.335L88.9833 661.902L86.4059 667.936L83.79 673.425L81.1287 678.361L78.4145 682.734L75.6403 686.538L72.7987 689.767L69.8825 692.416L66.8843 694.482L63.7971 695.963L60.6138 696.858L57.3275 697.168L53.9319 696.894L50.4202 696.039L46.7867 694.608L43.0255 692.606L39.1314 690.04L35.0994 686.917L30.925 683.247L26.6043 679.04L22.1337 674.307L17.5104 669.06L12.732 663.313L7.79662 657.08L2.70329 650.377L-2.54851 643.219L-7.95858 635.624L-13.5262 627.61L-19.2496 619.195L-25.1265 610.399L-31.154 601.242L-37.3283 591.745L-43.6449 581.928L-50.0985 571.815L-56.6832 561.426L-63.3922 550.785L-70.2181 539.914L-200.545 331.464L-207.318 320.583L-213.933 309.908L-220.375 299.458L-226.625 289.247L-232.667 279.29L-238.483 269.603L-244.056 260.197L-249.368 251.086L-254.404 242.281L-259.147 233.792L-263.58 225.629L-267.688 217.801L-271.456 210.314L-274.869 203.177L-277.913 196.393L-280.574 189.969L-282.839 183.907L-284.695 178.211L-286.132 172.882L-287.138 167.92L-287.703 163.326L-287.819 159.099L-287.476 155.237L-286.668 151.737L-285.388 148.595L-283.631 145.806L-281.392 143.367L-278.668 141.27L-275.457 139.509L-271.757 138.077L-267.569 136.965L-262.893 136.165L-257.732 135.668L-252.088 135.463L-245.967 135.542L-239.374 135.893L-232.315 136.506L-224.798 137.368L-216.832 138.469L-208.428 139.796L-199.596 141.338L-190.349 143.082L-180.7 145.017L-170.663 147.128L-160.253 149.405L-149.487 151.835L-138.383 154.406L-126.958 157.105L-115.231 159.92L-103.222 162.841L-90.9528 165.854L-78.4435 168.95L147.552 225.26L160.178 228.418L172.566 231.536L184.694 234.614L196.536 237.652L208.071 240.65L219.273 243.611L230.123 246.535L240.597 249.426L250.676 252.286L260.339 255.119L269.569 257.929L278.346 260.72L286.653 263.497L294.475 266.265L301.797 269.029L308.604 271.797L314.884 274.573L320.625 277.364L325.816 280.178L330.449 283.02L334.514 285.897L338.006 288.818L340.919 291.788L343.247 294.816L344.989 297.907L346.142 301.07L346.706 304.31L346.681 307.636L346.07 311.053L344.875 314.568L343.102 318.187L340.755 321.915L337.843 325.759L334.372 329.723L330.353 333.811L325.795 338.029L320.711 342.379L315.112 346.864L309.013 351.489L302.428 356.253L295.374 361.16L287.866 366.209L279.921 371.401L271.559 376.735L262.798 382.211L253.658 387.826L244.16 393.577L234.324 399.462L224.172 405.477L213.726 411.616L203.009 417.874L192.044 424.245L180.854 430.722L-20.8674 547.121L-32.1086 553.59L-43.1486 559.921L-53.9696 566.096L-64.5546 572.099L-74.8873 577.913L-84.9526 583.522L-94.7359 588.907L-104.224 594.054L-113.403 598.945L-122.263 603.564L-130.793 607.895L-138.982 611.923L-146.822 615.633L-154.305 619.009L-161.425 622.037L-168.176 624.704L-174.553 626.996L-180.552 628.9L-186.17 630.405L-191.407 631.499L-196.26 632.172L-200.73 632.415L-204.818 632.217L-208.527 631.572L-211.859 630.472L-214.817 628.911L-217.406 626.884L-219.633 624.386L-221.502 621.415L-223.021 617.968L-224.197 614.045L-225.038 609.645L-225.555 604.769L-225.755 599.42L-225.649 593.601L-225.247 587.316L-224.561 580.572L-223.601 573.374L-222.38 565.731L-220.91 557.651L-219.202 549.145L-217.269 540.224L-215.125 530.899L-212.781 521.184L-210.251 511.094L-207.547 500.644L-204.683 489.849L-201.672 478.727L-198.525 467.296L-195.256 455.576L-191.877 443.585L-188.4 431.344L-184.838 418.875L-120.633 195.099L-117.052 182.684L-113.52 170.513L-110.038 158.61L-106.605 146.999L-103.223 135.704L-99.8896 124.747L-96.6043 114.149L-93.3649 103.933L-90.169 94.1182L-87.0137 84.7246L-83.8954 75.7708L-80.8102 67.2747L-77.7538 59.2531L-74.7213 51.7219L-71.7076 44.6959L-68.7071 38.1888L-65.7139 32.2133L-62.722 26.7808L-59.7249 21.9016L-56.7162 17.5847L-53.6889 13.8382L-50.6364 10.6687L-47.5516 8.08147L-44.4276 6.08074L-41.2573 4.66938L-38.0339 3.84899L-34.7503 3.61985L-31.3998 3.98102L-27.9761 4.93025L-24.4724 6.46409L-20.8828 8.57779L-17.2014 11.2653L-13.4225 14.5196L-9.54116 18.332L-5.55247 22.6933L-1.452 27.5925L2.76408 33.0178L7.09922 38.9565L11.5562 45.3945L16.1375 52.3168L20.845 59.7074L25.6795 67.5497L30.6419 75.8258L35.7319 84.5172L40.9487 93.6045L46.291 103.068L51.7566 112.886L57.3427 123.038L63.0458 133.501L68.8616 144.255L74.7853 155.274L80.8109 166.537L86.9324 178.019L196.274 383.552L202.304 394.931L208.195 406.097L213.934 417.032L219.502 427.72L224.883 438.142L230.062 448.285L235.023 458.133L239.748 467.672L244.223 476.89L248.432 485.775L252.358 494.316L255.988 502.502L259.305 510.326L262.296 517.779L264.947 524.854L267.244 531.546L269.175 537.85L270.727 543.761L271.889 549.278L272.649 554.398L272.998 559.12L272.926 563.445L272.424 567.374L271.486 570.909L270.103 574.052L268.27 576.808L265.981 579.182L263.234 581.178L260.025 582.803L256.352 584.065L252.214 584.971L247.611 585.529L242.544 585.749L237.016 585.641L231.031 585.214L224.591 584.48L217.704 583.45L210.376 582.136L202.615 580.549L194.43 578.703L185.83 576.609L176.827 574.282L167.433 571.733L157.661 568.977L147.525 566.027L137.041 562.896L126.224 559.598L115.092 556.145L103.663 552.553L91.9546 548.832L79.9875 544.998L67.7817 541.061L-166.121 465.106L-178.323 461.118L-190.274 457.187L-201.949 453.315L-213.325 449.505L-224.379 445.755L-235.088 442.066L-245.431 438.437L-255.387 434.866L-264.935 431.353L-274.057 427.893L-282.733 424.485L-290.946 421.124L-298.679 417.807L-305.918 414.53L-312.646 411.287L-318.851 408.073L-324.521 404.883L-329.643 401.711L-334.208 398.551L-338.207 395.396L-341.633 392.241L-344.478 389.078L-346.738 385.9L-348.41 382.701L-349.489 379.474L-349.975 376.212L-349.868 372.908L-349.169 369.555L-347.88 366.147L-346.006 362.677L-343.551 359.139L-340.521 355.528L-336.924 351.837L-332.768 348.06L-328.064 344.195L-322.823 340.234L-317.056 336.175L-310.776 332.014L-303.998 327.747L-296.738 323.372L-289.011 318.887L-280.834 314.29L-272.226 309.58L-263.205 304.757L-253.792 299.821L-244.006 294.774L-233.868 289.617L-223.401 284.351L-212.627 278.981L-201.567 273.51L-190.247 267.943L-178.688 262.284L30.6428 160.239L42.3583 154.54L53.8683 148.961L65.1537 143.519L76.196 138.227L86.9779 133.103L97.4826 128.162L107.694 123.419L117.598 118.89L127.18 114.59L136.428 110.536L145.328 106.741L153.87 103.222L162.045 99.9926L169.842 97.0674L177.255 94.4603L184.275 92.1849L190.898 90.2541L197.117 88.6804L202.931 87.4758L208.334 86.6514L213.327 86.2179L217.907 86.1851L222.076 86.5622L225.834 87.3575L229.183 88.5786L232.127 90.2319L234.669 92.3232L236.815 94.8574L238.57 97.8383L239.941 101.269L240.934 105.15L241.559 109.484L241.823 114.27L241.736 119.506L241.309 125.191L240.551 131.321L239.475 137.891L238.091 144.895L236.412 152.328L234.45 160.18L232.219 168.444L229.731 177.109L227 186.165L224.04 195.599L220.864 205.398L217.486 215.548L213.921 226.035L210.182 236.841L206.284 247.951L202.239 259.346L198.063 271.008L193.768 282.917L189.368 295.053L109.705 513.806L105.251 525.998L100.861 537.957L96.5389 549.657L92.2866 561.075L88.1058 572.187L83.9975 582.972L79.9621 593.406L75.9993 603.469L72.1083 613.14L68.2875 622.398L64.535 631.224L60.8482 639.601L57.2241 647.511L53.659 654.937L50.149 661.864L46.6896 668.278L43.2759 674.165L39.9028 679.514L36.5646 684.313L33.2554 688.552L29.9693 692.223L26.6998 695.319L23.4405 697.832L20.1845 699.759L16.9254 701.096L13.6561 701.84L10.3699 701.989L7.05994 701.545L3.71945 700.509L0.341812 698.883L-3.07949 696.671L-6.55074 693.879L-10.0781 690.513L-13.6674 686.581L-17.3241 682.092L-21.0535 677.055L-24.8604 671.483L-28.7491 665.387L-32.7237 658.78L-36.7876 651.678L-40.9439 644.096L-45.195 636.05L-49.5429 627.558L-53.989 618.638L-58.5338 609.31L-63.1777 599.592L-67.92 589.507L-72.7596 579.074L-77.6947 568.317L-82.7228 557.257L-87.8407 545.918L-93.0446 534.324L-98.3299 522.498L-193.07 309.828L-198.32 298.003L-203.451 286.395L-208.447 275.024L-213.296 263.907L-217.981 253.063L-222.487 242.509L-226.799 232.259L-230.903 222.33L-234.782 212.736L-238.423 203.49L-241.81 194.604L-244.929 186.088L-247.766 177.955L-250.307 170.211L-252.538 162.866L-254.446 155.927L-256.019 149.399L-257.244 143.288L-258.11 137.597L-258.607 132.33L-258.723 127.487L-258.449 123.07L-257.776 119.078L-256.697 115.511L-255.204 112.365L-253.29 109.639L-250.95 107.327L-248.18 105.424L-244.975 103.925L-241.333 102.824L-237.253 102.111L-232.733 101.78L-227.775 101.822L-222.378 102.225L-216.546 102.981L-210.282 104.077L-203.591 105.504L-196.478 107.248L-188.951 109.296L-181.015 111.637L-172.682 114.257L-163.96 117.142L-154.86 120.278L-145.395 123.651L-135.577 127.246L-125.42 131.05L-114.939 135.048L-104.15 139.225L-93.0699 143.567L-81.7162 148.058L-70.1074 152.686L-58.2626 157.435L-46.2019 162.292L169.756 249.498L181.708 254.346L193.42 259.12L204.867 263.816L216.026 268.431L226.873 272.963L237.387 277.412L247.544 281.774L257.325 286.052L266.709 290.244L275.675 294.352L284.205 298.377L292.281 302.322L299.886 306.19L307.004 309.982L313.619 313.704L319.717 317.358L325.285 320.951L330.312 324.486L334.787 327.969L338.7 331.405L342.042 334.801L344.807 338.163L346.988 341.496L348.581 344.808L349.582 348.105L349.99 351.395" stroke="url(#paint0_linear_96_25)" stroke-width="2"/>
<defs>
<linearGradient id="paint0_linear_96_25" x1="238" y1="2.00001" x2="0" y2="702" gradientUnits="userSpaceOnUse">
<stop stop-color="#282848" stop-opacity="0"/>
<stop offset="1" stop-color="#2D2D55"/>
</linearGradient>
</defs>
</svg>
