<svg fill="none" height="10" viewBox="0 0 10 10" width="10" xmlns="http://www.w3.org/2000/svg"><g fill="#aaa"><path d="m20.7767 7.05078h-17.55404c-.19892 0-.38968-.07902-.53033-.21967-.14066-.14065-.21967-.33142-.21967-.53033s.07901-.38968.21967-.53033c.14065-.14065.33141-.21967.53033-.21967h17.55404c.1989 0 .3896.07902.5303.21967.1406.14065.2197.33142.2197.53033s-.0791.38968-.2197.53033c-.1407.14065-.3314.21967-.5303.21967z"/><path d="m10 17.5808c-.19891 0-.38968-.079-.53033-.2197-.14065-.1406-.21967-.3314-.21967-.5303v-6.739c0-.19892.07902-.38968.21967-.53033.14065-.14066.33142-.21967.53033-.21967.1989 0 .3897.07901.5303.21967.1407.14065.2197.33141.2197.53033v6.739c0 .1989-.079.3897-.2197.5303-.1406.1407-.3314.2197-.5303.2197z"/><path d="m14 17.5808c-.1989 0-.3897-.079-.5303-.2197-.1407-.1406-.2197-.3314-.2197-.5303v-6.739c0-.19892.079-.38968.2197-.53033.1406-.14066.3314-.21967.5303-.21967s.3897.07901.5303.21967c.1407.14065.2197.33141.2197.53033v6.739c0 .1989-.079.3897-.2197.5303-.1406.1407-.3314.2197-.5303.2197z"/><path d="m17.8918 21.9787h-11.78399c-.42386-.0016-.82991-.1706-1.12962-.4704-.29972-.2997-.4688-.7057-.47038-1.1296v-13.22499c.00158-.42386.17066-.82991.47038-1.12962.29971-.29972.70576-.4688 1.12962-.47038h11.78399c.4239.00158.8299.17066 1.1296.47038.2998.29971.4688.70576.4704 1.12962v13.22199c-.0008.4244-.1695.8312-.4693 1.1316-.2998.3003-.7063.4698-1.1307.4714zm-11.78399-14.92799c-.02605.00144-.05066.01244-.06911.03089s-.02945.04306-.03089.06911v13.22499c.00144.0261.01244.0507.03089.0691.01845.0185.04306.0295.06911.0309h11.78399c.0261-.0014.0507-.0124.0691-.0309.0185-.0184.0295-.043.0309-.0691v-13.22199c-.0014-.02605-.0124-.05066-.0309-.06911-.0184-.01845-.043-.02945-.0691-.03089z"/><path d="m16.6679 7.051c-.1989 0-.3896-.07902-.5303-.21967-.1406-.14065-.2197-.33142-.2197-.53033v-2.701c-.0016-.02598-.0127-.05047-.0311-.06888-.0184-.0184-.0429-.02947-.0689-.03112h-7.63196c-.02598.00165-.05047.01272-.06888.03112-.01841.01841-.02947.0429-.03112.06888v2.7c0 .19891-.07902.38968-.21967.53033s-.33142.21967-.53033.21967-.38968-.07902-.53033-.21967-.21967-.33142-.21967-.53033v-2.7c.00132-.42394.17031-.83014.47008-1.12991.29978-.29978.70598-.46877 1.12992-.47009h7.62796c.424.00132.8302.17031 1.13.47009.2997.29977.4687.70597.47 1.12991v2.7c.0003.19839-.078.38881-.2179.52957-.1398.14075-.3297.22037-.5281.22143z"/></g></svg>