<svg fill="none" height="20" viewBox="0 0 20 20" width="20" xmlns="http://www.w3.org/2000/svg"><g fill="#757575"><path d="m11.4114 19.9997h-2.84283c-.23847.0035-.47034-.0782-.65385-.2305-.18352-.1522-.30662-.365-.34714-.5999l-.17017-1.0705c-.45092-.1445-.88944-.3252-1.3113-.5402l-.88087.6203c-.19136.1362-.42457.2009-.65882.1826s-.45459-.1184-.62245-.2827l-2.00198-2.001c-.16698-.1683-.2687-.3905-.28703-.6269s.04791-.4716.18693-.6637l.63062-.8804c-.21928-.4163-.4002-.8516-.54053-1.3006l-1.071064-.1801c-.23686-.0384-.452056-.1605-.606388-.3441-.154333-.1837-.23753305-.4166-.23444503-.6564v-2.85138c-.00308802-.2398.08011203-.47274.23444503-.65638.154332-.18363.369528-.30575.606388-.3441l1.081074-.18009c.13855-.44646.31956-.87864.54053-1.29062l-.65064-.90044c-.13506-.19238-.19805-.42615-.17792-.66032.02014-.23416.1221-.45376.28803-.62029l2.00198-2.00097c.16786-.16432.3882-.26439.62245-.28268s.46746.04636.65882.18263l.90089.64031c.41382-.21741.8459-.39819 1.29128-.54026l.18018-1.080521c.03837-.23674.16055-.451826.34428-.606081.18373-.1542537.41678-.23741153.65671-.23432507h2.84282c.2399-.00308646.473.08007137.6567.23432507.1837.154255.3059.369341.3443.606081l.1802 1.080521c.4442.14123.876.31857 1.2912.53026l.9009-.64031c.1925-.135.4264-.19795.6607-.17783.2343.02013.454.12204.6206.28788l2.002 2.00097c.1644.16777.2645.388.2828.62213s-.0464.46723-.1827.65848l-.6306.89043c.2192.41626.4002.8516.5405 1.30063l1.0711.18009c.2368.03835.452.16047.6063.3441.1544.18364.2376.41658.2345.65638v2.84138c.0035.2383-.0783.4701-.2306.6535-.1524.1834-.3652.3065-.6002.347l-1.0711.1801c-.1446.4507-.3254.889-.5405 1.3106l.6206.8804c.1363.1913.201.4244.1827.6585s-.1184.4544-.2828.6221l-2.002 2.001c-.1679.1643-.3882.2644-.6224.2827-.2343.0183-.4675-.0464-.6589-.1826l-.8808-.6203c-.4199.2192-.8588.4-1.3113.5402l-.1802 1.0705c-.0386.2385-.1623.455-.3481.6094-.1858.1545-.4213.2366-.6629.231zm-2.002-2.0009h1.1612l.1401-.8604c.0343-.1933.1246-.3723.2599-.5146s.3095-.2417.5008-.2858c.6897-.1647 1.3486-.4383 1.952-.8104.1645-.1097.3578-.1683.5555-.1683.1978 0 .3911.0586.5556.1683l.7107.5102.8108-.8204-.5005-.7103c-.1098-.1644-.1683-.3576-.1683-.5553 0-.1976.0585-.3908.1683-.5552.3781-.6001.6523-1.2597.8108-1.951.0448-.1926.1458-.3677.2901-.503.1443-.1354.3255-.2249.5207-.2574l.8609-.14v-1.13057l-.8609-.14007c-.1952-.03244-.3764-.12199-.5207-.25732-.1443-.13534-.2453-.31039-.2901-.50305-.1673-.68528-.4409-1.34017-.8108-1.94093-.1098-.16441-.1683-.35763-.1683-.55527 0-.19765.0585-.39086.1683-.55527l.5105-.72035-.8108-.82039-.7307.52025c-.1635.10758-.3549.16491-.5506.16491s-.3871-.05733-.5505-.16491c-.5994-.37064-1.2554-.64099-1.9419-.80039-.1928-.04479-.3679-.14568-.5033-.28992s-.225-.32536-.2575-.52047l-.1501-.84041h-1.1612l-.14014.88043c-.03245.19511-.12205.37623-.25745.52047-.13541.14424-.31055.24513-.5033.28992-.68283.16127-1.33517.43153-1.93191.80039-.1645.10969-.35781.16823-.55555.16823-.19775 0-.39106-.05854-.55555-.16823l-.73073-.52025-.8108.82039.51051.73035c.10974.16441.16831.35763.16831.55527 0 .19765-.05857.39086-.16831.55527-.37147.59636-.64519 1.24823-.81081 1.93093-.04481.19266-.14575.36771-.29007.50304-.14431.13534-.32552.22489-.52073.25733l-.83082.10005v1.16057l.87086.1401c.19521.0324.37642.1219.52073.2573.14432.1353.24526.3104.29007.503.15948.6862.42997 1.3418.8008 1.941.10974.1644.16831.3576.16831.5552 0 .1977-.05857.3909-.16831.5553l-.51051.7203.8108.8104.71071-.5002c.16449-.1097.3578-.1682.55555-.1682.19774 0 .39105.0585.55555.1682.60126.3763 1.26088.6501 1.95193.8104.19275.0448.36789.1457.5033.2899.1354.1442.225.3254.25745.5205z"/><path d="m9.98047 13.9902c-.79112 0-1.56448-.2346-2.22228-.6741s-1.17049-1.0642-1.47324-1.7951-.38196-1.5352-.22762-2.31112c.15434-.77593.5353-1.48866 1.09471-2.04807s1.27215-.94037 2.04807-1.09471c.77592-.15435 1.58019-.07513 2.31109.22762s1.3556.81544 1.7951 1.47324c.4396.65779.6742 1.43115.6742 2.22228 0 1.06086-.4215 2.07826-1.1716 2.82846-.7501.7501-1.7676 1.1715-2.82843 1.1715zm0-5.99996c-.39556 0-.78224.11729-1.11114.33706-.3289.21976-.58524.53212-.73662.89757-.15137.36545-.19098.76759-.11381 1.15553.07717.388.26765.7443.54736 1.024.2797.2798.63607.4702 1.02403.5474s.79011.0376 1.15551-.1138c.3655-.1514.6778-.4077.8976-.7366s.3371-.7156.3371-1.11116c0-.53044-.2107-1.03914-.5858-1.41422-.3751-.37507-.8838-.58578-1.41423-.58578z"/></g></svg>