<svg fill="none" height="24" viewBox="0 0 24 24" width="24" xmlns="http://www.w3.org/2000/svg"><g fill="#757575"><path d="m13.1001 6h-6.20021c-.23867 0-.46756.10536-.63632.29289-.16876.18754-.26357.44189-.26357.70711s.09481.51957.26357.70711c.16876.18753.39765.29289.63632.29289h6.20021c.2387 0 .4676-.10536.6363-.29289.1688-.18754.2636-.44189.2636-.70711s-.0948-.51957-.2636-.70711c-.1687-.18753-.3976-.29289-.6363-.29289z"/><path d="m11.1561 10h-4.31222c-.22381 0-.43845.1054-.59671.2929s-.24717.4419-.24717.7071.08891.5196.24717.7071.3729.2929.59671.2929h4.31222c.2238 0 .4385-.1054.5967-.2929.1583-.1875.2472-.4419.2472-.7071s-.0889-.5196-.2472-.7071c-.1582-.1875-.3729-.2929-.5967-.2929z"/><path d="m10.0689 14h-3.1378c-.24694 0-.48377.1054-.65839.2929-.17461.1875-.27271.4419-.27271.7071s.0981.5196.27271.7071c.17462.1875.41145.2929.65839.2929h3.1378c.2469 0 .4838-.1054.6584-.2929s.2727-.4419.2727-.7071-.0981-.5196-.2727-.7071-.4115-.2929-.6584-.2929z"/><g clip-rule="evenodd" fill-rule="evenodd"><path d="m3 4c0-1.10457.89543-2 2-2h11c1.1046 0 2 .89543 2 2v8c0 .5523-.4477 1-1 1s-1-.4477-1-1v-8h-11v14h8.2143c.5523 0 1 .4477 1 1s-.4477 1-1 1h-8.2143c-1.10457 0-2-.8954-2-2z"/><path d="m13 12c0-.5523.4477-1 1-1h6c.5523 0 1 .4477 1 1v9c0 .3905-.2273.7453-.5821.9085s-.7722.1049-1.0687-.1492l-2.3492-2.0137-2.3492 2.0137c-.2965.2541-.7139.3124-1.0687.1492s-.5821-.518-.5821-.9085zm2 1v5.8258l1.3492-1.1565c.3745-.321.9271-.321 1.3016 0l1.3492 1.1565v-5.8258z"/></g></g></svg>